;TYPE=PLATED
;Layer: PTH_Through
;EasyEDA Pro v3.2.148, 2026-07-30 20:47:14
;Gerber Generator version 0.3
M48
METRIC,LZ,0000.00000
;Hole size 1 = 0.30500 METRIC
T01C0.30500
;Hole size 2 = 0.60000 METRIC
T02C0.60000
;Hole size 3 = 1.10002 METRIC
T03C1.10002
;Hole size 4 = 1.20000 METRIC
T04C1.20000
%
G05
G90
T01
X85.56488Y-32.54918
X78.19888Y-30.90151
X78.79781Y-37.86096
X74.22581Y-36.08296
X71.01587Y-32.87302
X61.87187Y-32.87302
X56.82544Y-36.90346
X42.09484Y-21.98408
X39.30084Y-21.98408
X43.79773Y-29.78297
X44.958Y-30.226
X72.56505Y-37.54059
X75.86705Y-38.04859
X77.13705Y-39.91344
X78.8178Y-34.50953
X80.5958Y-39.84353
X82.8818Y-24.45466
X51.054Y-30.48
X60.706Y-32.004
X65.99667Y-31.75
X65.22535Y-25.654
X64.46335Y-29.972
X63.246Y-30.88509
X75.68975Y-32.19571
X77.343Y-30.57207
X78.613Y-33.528
X79.883Y-30.48
X79.5815Y-29.7655
X73.9219Y-30.42786
X66.04Y-27.432
X68.80889Y-28.67689
X64.008Y-26.416
X67.056Y-25.654
X73.533Y-26.416
X71.60148Y-26.32944
X69.723Y-26.416
X68.961Y-25.4
X84.836Y-44.958
X68.4609Y-37.2189
X69.0085Y-46.228
X66.2145Y-38.862
X83.058Y-45.72
X85.391Y-47.451
X88.693Y-55.96
X78.66Y-55.452
X69.77Y-45.292
X67.32997Y-41.32797
X68.50565Y-38.02565
X67.31Y-39.93804
X71.628Y-37.46275
X70.612Y-36.70075
X69.15271Y-38.73275
X80.264Y-54.864
X71.12Y-43.434
X68.834Y-41.656
X74.93Y-35.306
X69.596Y-40.70004
X80.645Y-28.702
X73.21479Y-29.718
X59.262Y-19.986
X62.484Y-30.734
X67.056Y-43.434
X64.14808Y-38.354
X68.21208Y-35.25212
X63.754Y-36.576
X68.58Y-42.418
X64.008Y-41.91
X73.34596Y-41.148
X71.05996Y-38.862
X69.78996Y-36.83
X67.92163Y-36.66633
X70.612Y-45.52604
X68.072Y-41.71604
X65.56744Y-38.3294
X67.0481Y-30.51544
X42.09415Y-44.60241
X72.92043Y-33.77269
X75.20643Y-33.51869
X77.74643Y-36.05869
X60.73252Y-40.9104
X58.19252Y-42.6884
X55.975Y-42.25232
X74.263Y-34.88632
X60.57499Y-37.36228
X66.49318Y-34.39048
X69.28718Y-34.39048
X73.60518Y-34.39048
X61.10522Y-31.35078
X63.31586Y-45.53586
X54.21918Y-35.95082
X55.74318Y-40.52282
X65.64918Y-34.17282
X69.45918Y-32.14082
X71.74518Y-32.14082
X79.11118Y-35.44282
X85.46118Y-41.79282
T02
X36.81904Y-20.05907G85X35.91904Y-20.05907
X36.81903Y-28.70909G85X35.919Y-28.70909
X32.46897Y-20.05901G85X31.86897Y-20.05901
X32.46897Y-28.70898G85X31.86897Y-28.70898
T03
X34.798Y-41.402
X34.798Y-38.862
X37.338Y-41.402
X37.338Y-38.862
X39.878Y-41.402
X39.878Y-38.862
X42.418Y-41.402
X42.418Y-38.862
X44.958Y-41.402
X44.958Y-38.862
T04
X74.676Y-53.594
X74.676Y-51.054
X77.216Y-53.594
X77.216Y-51.054
X79.756Y-53.594
X79.756Y-51.054
X82.296Y-53.594
X82.296Y-51.054
X84.836Y-53.594
X84.836Y-51.054
X87.376Y-53.594
X87.376Y-51.054
X89.916Y-53.594
X89.916Y-51.054
X92.456Y-53.594
X92.456Y-51.054
X67.564Y-18.796
X67.564Y-21.336
X65.024Y-18.796
X65.024Y-21.336
X62.484Y-18.796
X62.484Y-21.336
X59.944Y-18.796
X59.944Y-21.336
X57.404Y-18.796
X57.404Y-21.336
X54.864Y-18.796
X54.864Y-21.336
X52.324Y-18.796
X52.324Y-21.336
X49.784Y-18.796
X49.784Y-21.336
X93.599Y-35.306
X91.059Y-35.306
X93.599Y-32.766
X91.059Y-32.766
X93.599Y-30.226
X91.059Y-30.226
X93.599Y-27.686
X91.059Y-27.686
X93.599Y-25.146
X91.059Y-25.146
X93.599Y-22.606
X91.059Y-22.606
X93.599Y-20.066
X91.059Y-20.066
X93.599Y-17.526
X91.059Y-17.526
X42.59699Y-50.83599
X49.09701Y-50.83599
X42.59699Y-55.33601
X49.09701Y-55.33601
M30