G04 Layer: TopPasteMaskLayer*
G04 EasyEDA Pro v3.2.148, 2026-07-30 20:47:14*
G04 Gerber Generator version 0.3*
G04 Scale: 100 percent, Rotated: No, Reflected: No*
G04 Dimensions in millimeters*
G04 Leading zeros omitted, absolute positions, 4 integers and 5 decimals*
G04 Generated by one-click*
G04 Object Configs: Pad,Via,Track,Text,Image,Dimension,BoardOutline,BoardCutout,CopperFilled,SolidRegion,FPCStiffener,Line,PlaneZone,ComponentProperty,ComponentSilkscreen,TearDrop*
G04 Layer Configs: 1,2,3,4,5,6,7,8,9,10,11,13,14,56*
G04 Copper Areas: 0*
%FSLAX45Y45*%
%MOMM*%
%AMOval*1,1,$1,$2,$3*1,1,$1,$4,$5*20,1,$1,$2,$3,$4,$5,0*%
%ADD10R,0.762X0.762*%
%ADD11R,1.0X1.25001*%
%ADD12Oval,0.3X-0.42426X0.42426X0.42426X-0.42426*%
%ADD13Oval,0.3X-0.42426X-0.42426X0.42426X0.42426*%
%ADD14R,0.7X1.4*%
%ADD15R,1.2X1.8*%
%ADD16R,1.2X2.4*%
%ADD17R,1.6X1.5*%
%ADD18R,2.4793X0.98001*%
%ADD19R,2.47X0.98001*%
%ADD20R,2.47X3.59999*%
%ADD21R,1.7X1.05001*%
G75*


G04 PolygonModel Start*
G36*
G01X4306776Y-2255660D02*
G01X4306776Y-2218634D01*
G01X4316776Y-2208634D01*
G01X4347266Y-2208634D01*
G01X4357266Y-2198634D01*
G01X4357266Y-2159884D01*
G01X4347266Y-2149884D01*
G01X4316776Y-2149884D01*
G01X4306776Y-2139884D01*
G01X4306776Y-2102858D01*
G01X4316776Y-2092858D01*
G01X4445274Y-2092858D01*
G01X4455274Y-2102858D01*
G01X4455274Y-2255660D01*
G01X4445274Y-2265660D01*
G01X4316776Y-2265660D01*
G01X4306776Y-2255660D01*
G37*
G36*
G01X4136774Y-2255660D02*
G01X4126774Y-2265660D01*
G01X3998275Y-2265660D01*
G01X3988275Y-2255660D01*
G01X3988275Y-2102858D01*
G01X3998275Y-2092858D01*
G01X4126774Y-2092858D01*
G01X4136774Y-2102858D01*
G01X4136774Y-2139884D01*
G01X4126774Y-2149884D01*
G01X4096283Y-2149884D01*
G01X4086283Y-2159884D01*
G01X4086283Y-2198634D01*
G01X4096283Y-2208634D01*
G01X4126774Y-2208634D01*
G01X4136774Y-2218634D01*
G01X4136774Y-2255660D01*
G37*
G36*
G01X4300317Y-1963560D02*
G01X4300317Y-1926534D01*
G01X4310317Y-1916534D01*
G01X4340807Y-1916534D01*
G01X4350807Y-1906534D01*
G01X4350807Y-1867784D01*
G01X4340807Y-1857784D01*
G01X4310317Y-1857784D01*
G01X4300317Y-1847784D01*
G01X4300317Y-1810758D01*
G01X4310317Y-1800758D01*
G01X4438815Y-1800758D01*
G01X4448815Y-1810758D01*
G01X4448815Y-1963560D01*
G01X4438815Y-1973560D01*
G01X4310317Y-1973560D01*
G01X4300317Y-1963560D01*
G37*
G36*
G01X4130314Y-1963560D02*
G01X4120314Y-1973560D01*
G01X3991816Y-1973560D01*
G01X3981816Y-1963560D01*
G01X3981816Y-1810758D01*
G01X3991816Y-1800758D01*
G01X4120314Y-1800758D01*
G01X4130314Y-1810758D01*
G01X4130314Y-1847784D01*
G01X4120314Y-1857784D01*
G01X4089824Y-1857784D01*
G01X4079824Y-1867784D01*
G01X4079824Y-1906534D01*
G01X4089824Y-1916534D01*
G01X4120314Y-1916534D01*
G01X4130314Y-1926534D01*
G01X4130314Y-1963560D01*
G37*
G36*
G01X4486872Y-4663241D02*
G01X4486872Y-4700266D01*
G01X4476872Y-4710266D01*
G01X4446382Y-4710266D01*
G01X4436382Y-4720266D01*
G01X4436382Y-4759016D01*
G01X4446382Y-4769016D01*
G01X4476872Y-4769016D01*
G01X4486872Y-4779016D01*
G01X4486872Y-4816042D01*
G01X4476872Y-4826042D01*
G01X4348373Y-4826042D01*
G01X4338373Y-4816042D01*
G01X4338373Y-4663241D01*
G01X4348373Y-4653241D01*
G01X4476872Y-4653241D01*
G01X4486872Y-4663241D01*
G37*
G36*
G01X4656874Y-4663241D02*
G01X4666874Y-4653241D01*
G01X4795373Y-4653241D01*
G01X4805373Y-4663241D01*
G01X4805373Y-4816042D01*
G01X4795373Y-4826042D01*
G01X4666874Y-4826042D01*
G01X4656874Y-4816042D01*
G01X4656874Y-4779016D01*
G01X4666874Y-4769016D01*
G01X4697364Y-4769016D01*
G01X4707364Y-4759016D01*
G01X4707364Y-4720266D01*
G01X4697364Y-4710266D01*
G01X4666874Y-4710266D01*
G01X4656874Y-4700266D01*
G01X4656874Y-4663241D01*
G37*
G36*
G01X8276440Y-4514068D02*
G01X8276440Y-4477042D01*
G01X8286440Y-4467042D01*
G01X8316930Y-4467042D01*
G01X8326930Y-4457042D01*
G01X8326930Y-4418292D01*
G01X8316930Y-4408292D01*
G01X8286440Y-4408292D01*
G01X8276440Y-4398292D01*
G01X8276440Y-4361266D01*
G01X8286440Y-4351266D01*
G01X8414939Y-4351266D01*
G01X8424939Y-4361266D01*
G01X8424939Y-4514068D01*
G01X8414939Y-4524068D01*
G01X8286440Y-4524068D01*
G01X8276440Y-4514068D01*
G37*
G36*
G01X8106438Y-4514068D02*
G01X8096438Y-4524068D01*
G01X7967939Y-4524068D01*
G01X7957939Y-4514068D01*
G01X7957939Y-4361266D01*
G01X7967939Y-4351266D01*
G01X8096438Y-4351266D01*
G01X8106438Y-4361266D01*
G01X8106438Y-4398292D01*
G01X8096438Y-4408292D01*
G01X8065948Y-4408292D01*
G01X8055948Y-4418292D01*
G01X8055948Y-4457042D01*
G01X8065948Y-4467042D01*
G01X8096438Y-4467042D01*
G01X8106438Y-4477042D01*
G01X8106438Y-4514068D01*
G37*
G36*
G01X8106438Y-4064805D02*
G01X8106438Y-4101831D01*
G01X8096438Y-4111831D01*
G01X8065948Y-4111831D01*
G01X8055948Y-4121831D01*
G01X8055948Y-4160581D01*
G01X8065948Y-4170581D01*
G01X8096438Y-4170581D01*
G01X8106438Y-4180581D01*
G01X8106438Y-4217606D01*
G01X8096438Y-4227606D01*
G01X7967939Y-4227606D01*
G01X7957939Y-4217606D01*
G01X7957939Y-4064805D01*
G01X7967939Y-4054805D01*
G01X8096438Y-4054805D01*
G01X8106438Y-4064805D01*
G37*
G36*
G01X8276440Y-4064805D02*
G01X8286440Y-4054805D01*
G01X8414939Y-4054805D01*
G01X8424939Y-4064805D01*
G01X8424939Y-4217606D01*
G01X8414939Y-4227606D01*
G01X8286440Y-4227606D01*
G01X8276440Y-4217606D01*
G01X8276440Y-4180581D01*
G01X8286440Y-4170581D01*
G01X8316930Y-4170581D01*
G01X8326930Y-4160581D01*
G01X8326930Y-4121831D01*
G01X8316930Y-4111831D01*
G01X8286440Y-4111831D01*
G01X8276440Y-4101831D01*
G01X8276440Y-4064805D01*
G37*
G36*
G01X8106438Y-3760495D02*
G01X8106438Y-3797521D01*
G01X8096438Y-3807521D01*
G01X8065948Y-3807521D01*
G01X8055948Y-3817521D01*
G01X8055948Y-3856271D01*
G01X8065948Y-3866271D01*
G01X8096438Y-3866271D01*
G01X8106438Y-3876271D01*
G01X8106438Y-3913297D01*
G01X8096438Y-3923297D01*
G01X7967939Y-3923297D01*
G01X7957939Y-3913297D01*
G01X7957939Y-3760495D01*
G01X7967939Y-3750495D01*
G01X8096438Y-3750495D01*
G01X8106438Y-3760495D01*
G37*
G36*
G01X8276440Y-3760495D02*
G01X8286440Y-3750495D01*
G01X8414939Y-3750495D01*
G01X8424939Y-3760495D01*
G01X8424939Y-3913297D01*
G01X8414939Y-3923297D01*
G01X8286440Y-3923297D01*
G01X8276440Y-3913297D01*
G01X8276440Y-3876271D01*
G01X8286440Y-3866271D01*
G01X8316930Y-3866271D01*
G01X8326930Y-3856271D01*
G01X8326930Y-3817521D01*
G01X8316930Y-3807521D01*
G01X8286440Y-3807521D01*
G01X8276440Y-3797521D01*
G01X8276440Y-3760495D01*
G37*
G36*
G01X8212011Y-2372098D02*
G01X8212011Y-2244100D01*
G01X8217012Y-2239099D01*
G01X8332013Y-2239099D01*
G01X8337012Y-2244100D01*
G01X8337514Y-2285103D01*
G01X8292513Y-2285103D01*
G01X8292513Y-2330102D01*
G01X8336514Y-2330102D01*
G01X8337012Y-2372098D01*
G01X8332013Y-2377100D01*
G01X8217012Y-2377100D01*
G01X8212011Y-2372098D01*
G37*
G36*
G01X8553006Y-2244098D02*
G01X8553006Y-2372096D01*
G01X8548004Y-2377097D01*
G01X8433003Y-2377097D01*
G01X8428004Y-2372096D01*
G01X8427502Y-2331093D01*
G01X8472503Y-2331093D01*
G01X8472503Y-2286094D01*
G01X8428502Y-2286094D01*
G01X8428004Y-2244098D01*
G01X8433003Y-2239096D01*
G01X8548004Y-2239096D01*
G01X8553006Y-2244098D01*
G37*
G36*
G01X8206570Y-3134098D02*
G01X8206570Y-3006100D01*
G01X8211571Y-3001099D01*
G01X8326572Y-3001099D01*
G01X8331571Y-3006100D01*
G01X8332074Y-3047103D01*
G01X8287073Y-3047103D01*
G01X8287073Y-3092102D01*
G01X8331073Y-3092102D01*
G01X8331571Y-3134098D01*
G01X8326572Y-3139100D01*
G01X8211571Y-3139100D01*
G01X8206570Y-3134098D01*
G37*
G36*
G01X8547565Y-3006098D02*
G01X8547565Y-3134096D01*
G01X8542564Y-3139097D01*
G01X8427563Y-3139097D01*
G01X8422564Y-3134096D01*
G01X8422061Y-3093093D01*
G01X8467062Y-3093093D01*
G01X8467062Y-3048094D01*
G01X8423062Y-3048094D01*
G01X8422564Y-3006098D01*
G01X8427563Y-3001096D01*
G01X8542564Y-3001096D01*
G01X8547565Y-3006098D01*
G37*
G36*
G01X5811487Y-3995560D02*
G01X5811487Y-3958534D01*
G01X5821487Y-3948534D01*
G01X5851977Y-3948534D01*
G01X5861977Y-3938534D01*
G01X5861977Y-3899784D01*
G01X5851977Y-3889784D01*
G01X5821487Y-3889784D01*
G01X5811487Y-3879784D01*
G01X5811487Y-3842758D01*
G01X5821487Y-3832758D01*
G01X5949986Y-3832758D01*
G01X5959986Y-3842758D01*
G01X5959986Y-3995560D01*
G01X5949986Y-4005560D01*
G01X5821487Y-4005560D01*
G01X5811487Y-3995560D01*
G37*
G36*
G01X5641485Y-3995560D02*
G01X5631485Y-4005560D01*
G01X5502986Y-4005560D01*
G01X5492986Y-3995560D01*
G01X5492986Y-3842758D01*
G01X5502986Y-3832758D01*
G01X5631485Y-3832758D01*
G01X5641485Y-3842758D01*
G01X5641485Y-3879784D01*
G01X5631485Y-3889784D01*
G01X5600995Y-3889784D01*
G01X5590995Y-3899784D01*
G01X5590995Y-3938534D01*
G01X5600995Y-3948534D01*
G01X5631485Y-3948534D01*
G01X5641485Y-3958534D01*
G01X5641485Y-3995560D01*
G37*
G36*
G01X5805028Y-3741560D02*
G01X5805028Y-3704534D01*
G01X5815028Y-3694534D01*
G01X5845518Y-3694534D01*
G01X5855518Y-3684534D01*
G01X5855518Y-3645784D01*
G01X5845518Y-3635784D01*
G01X5815028Y-3635784D01*
G01X5805028Y-3625784D01*
G01X5805028Y-3588758D01*
G01X5815028Y-3578758D01*
G01X5943526Y-3578758D01*
G01X5953526Y-3588758D01*
G01X5953526Y-3741560D01*
G01X5943526Y-3751560D01*
G01X5815028Y-3751560D01*
G01X5805028Y-3741560D01*
G37*
G36*
G01X5635026Y-3741560D02*
G01X5625026Y-3751560D01*
G01X5496527Y-3751560D01*
G01X5486527Y-3741560D01*
G01X5486527Y-3588758D01*
G01X5496527Y-3578758D01*
G01X5625026Y-3578758D01*
G01X5635026Y-3588758D01*
G01X5635026Y-3625784D01*
G01X5625026Y-3635784D01*
G01X5594535Y-3635784D01*
G01X5584535Y-3645784D01*
G01X5584535Y-3684534D01*
G01X5594535Y-3694534D01*
G01X5625026Y-3694534D01*
G01X5635026Y-3704534D01*
G01X5635026Y-3741560D01*
G37*
G36*
G01X7428396Y-1953777D02*
G01X7428396Y-1916751D01*
G01X7438396Y-1906751D01*
G01X7468887Y-1906751D01*
G01X7478886Y-1896751D01*
G01X7478886Y-1858001D01*
G01X7468887Y-1848001D01*
G01X7438396Y-1848001D01*
G01X7428396Y-1838001D01*
G01X7428396Y-1800976D01*
G01X7438396Y-1790976D01*
G01X7566895Y-1790976D01*
G01X7576895Y-1800976D01*
G01X7576895Y-1953777D01*
G01X7566895Y-1963777D01*
G01X7438396Y-1963777D01*
G01X7428396Y-1953777D01*
G37*
G36*
G01X7258394Y-1953777D02*
G01X7248394Y-1963777D01*
G01X7119896Y-1963777D01*
G01X7109896Y-1953777D01*
G01X7109896Y-1800976D01*
G01X7119896Y-1790976D01*
G01X7248394Y-1790976D01*
G01X7258394Y-1800976D01*
G01X7258394Y-1838001D01*
G01X7248394Y-1848001D01*
G01X7217904Y-1848001D01*
G01X7207904Y-1858001D01*
G01X7207904Y-1896751D01*
G01X7217904Y-1906751D01*
G01X7248394Y-1906751D01*
G01X7258394Y-1916751D01*
G01X7258394Y-1953777D01*
G37*
G36*
G01X7252044Y-2076287D02*
G01X7252044Y-2113313D01*
G01X7242044Y-2123313D01*
G01X7211554Y-2123313D01*
G01X7201554Y-2133313D01*
G01X7201554Y-2172063D01*
G01X7211554Y-2182063D01*
G01X7242044Y-2182063D01*
G01X7252044Y-2192063D01*
G01X7252044Y-2229089D01*
G01X7242044Y-2239089D01*
G01X7113546Y-2239089D01*
G01X7103546Y-2229089D01*
G01X7103546Y-2076287D01*
G01X7113546Y-2066287D01*
G01X7242044Y-2066287D01*
G01X7252044Y-2076287D01*
G37*
G36*
G01X7422046Y-2076287D02*
G01X7432046Y-2066287D01*
G01X7560545Y-2066287D01*
G01X7570545Y-2076287D01*
G01X7570545Y-2229089D01*
G01X7560545Y-2239089D01*
G01X7432046Y-2239089D01*
G01X7422046Y-2229089D01*
G01X7422046Y-2192063D01*
G01X7432046Y-2182063D01*
G01X7462537Y-2182063D01*
G01X7472536Y-2172063D01*
G01X7472536Y-2133313D01*
G01X7462537Y-2123313D01*
G01X7432046Y-2123313D01*
G01X7422046Y-2113313D01*
G01X7422046Y-2076287D01*
G37*
G36*
G01X4302140Y-2585105D02*
G01X4302140Y-2548974D01*
G01X4312140Y-2538974D01*
G01X4333197Y-2538974D01*
G01X4343197Y-2528974D01*
G01X4343197Y-2491138D01*
G01X4333197Y-2481138D01*
G01X4312140Y-2481138D01*
G01X4302140Y-2471138D01*
G01X4302140Y-2435007D01*
G01X4312140Y-2425007D01*
G01X4412892Y-2425007D01*
G01X4422892Y-2435007D01*
G01X4422892Y-2585105D01*
G01X4412892Y-2595105D01*
G01X4312140Y-2595105D01*
G01X4302140Y-2585105D01*
G37*
G36*
G01X4127139Y-2585105D02*
G01X4117139Y-2595105D01*
G01X4016388Y-2595105D01*
G01X4006388Y-2585105D01*
G01X4006388Y-2435007D01*
G01X4016388Y-2425007D01*
G01X4117139Y-2425007D01*
G01X4127139Y-2435007D01*
G01X4127139Y-2471138D01*
G01X4117139Y-2481138D01*
G01X4096083Y-2481138D01*
G01X4086083Y-2491138D01*
G01X4086083Y-2528974D01*
G01X4096083Y-2538974D01*
G01X4117139Y-2538974D01*
G01X4127139Y-2548974D01*
G01X4127139Y-2585105D01*
G37*
G36*
G01X4308904Y-2877205D02*
G01X4308904Y-2841074D01*
G01X4318904Y-2831074D01*
G01X4339961Y-2831074D01*
G01X4349961Y-2821074D01*
G01X4349961Y-2783238D01*
G01X4339961Y-2773238D01*
G01X4318904Y-2773238D01*
G01X4308904Y-2763238D01*
G01X4308904Y-2727107D01*
G01X4318904Y-2717107D01*
G01X4419656Y-2717107D01*
G01X4429656Y-2727107D01*
G01X4429656Y-2877205D01*
G01X4419656Y-2887205D01*
G01X4318904Y-2887205D01*
G01X4308904Y-2877205D01*
G37*
G36*
G01X4133903Y-2877205D02*
G01X4123903Y-2887205D01*
G01X4023152Y-2887205D01*
G01X4013152Y-2877205D01*
G01X4013152Y-2727107D01*
G01X4023152Y-2717107D01*
G01X4123903Y-2717107D01*
G01X4133903Y-2727107D01*
G01X4133903Y-2763238D01*
G01X4123903Y-2773238D01*
G01X4102847Y-2773238D01*
G01X4092847Y-2783238D01*
G01X4092847Y-2821074D01*
G01X4102847Y-2831074D01*
G01X4123903Y-2831074D01*
G01X4133903Y-2841074D01*
G01X4133903Y-2877205D01*
G37*
G36*
G01X4109771Y-3169115D02*
G01X4109771Y-3041117D01*
G01X4114772Y-3036115D01*
G01X4229773Y-3036115D01*
G01X4234772Y-3041117D01*
G01X4235275Y-3082120D01*
G01X4190274Y-3082120D01*
G01X4190274Y-3127118D01*
G01X4234274Y-3127118D01*
G01X4234772Y-3169115D01*
G01X4229773Y-3174116D01*
G01X4114772Y-3174116D01*
G01X4109771Y-3169115D01*
G37*
G36*
G01X4324772Y-3169115D02*
G01X4324774Y-3127118D01*
G01X4369272Y-3127118D01*
G01X4369272Y-3082120D01*
G01X4325275Y-3082120D01*
G01X4324772Y-3041117D01*
G01X4329773Y-3036115D01*
G01X4444771Y-3036115D01*
G01X4449773Y-3041117D01*
G01X4449773Y-3169115D01*
G01X4444771Y-3174116D01*
G01X4329773Y-3174116D01*
G01X4324772Y-3169115D01*
G37*
G36*
G01X3807739Y-3095394D02*
G01X3935738Y-3095394D01*
G01X3940739Y-3100395D01*
G01X3940739Y-3215396D01*
G01X3935738Y-3220395D01*
G01X3894734Y-3220898D01*
G01X3894734Y-3175897D01*
G01X3849736Y-3175897D01*
G01X3849736Y-3219897D01*
G01X3807739Y-3220395D01*
G01X3802738Y-3215396D01*
G01X3802738Y-3100395D01*
G01X3807739Y-3095394D01*
G37*
G36*
G01X3807739Y-3310395D02*
G01X3849736Y-3310397D01*
G01X3849736Y-3354895D01*
G01X3894734Y-3354895D01*
G01X3894734Y-3310898D01*
G01X3935738Y-3310395D01*
G01X3940739Y-3315396D01*
G01X3940739Y-3430394D01*
G01X3935738Y-3435396D01*
G01X3807739Y-3435396D01*
G01X3802738Y-3430394D01*
G01X3802738Y-3315396D01*
G01X3807739Y-3310395D01*
G37*
G36*
G01X5875198Y-3073900D02*
G01X5875198Y-2945902D01*
G01X5880199Y-2940901D01*
G01X5995200Y-2940901D01*
G01X6000199Y-2945902D01*
G01X6000702Y-2986905D01*
G01X5955701Y-2986905D01*
G01X5955701Y-3031904D01*
G01X5999701Y-3031904D01*
G01X6000199Y-3073900D01*
G01X5995200Y-3078902D01*
G01X5880199Y-3078902D01*
G01X5875198Y-3073900D01*
G37*
G36*
G01X6090199Y-3073900D02*
G01X6090201Y-3031904D01*
G01X6134699Y-3031904D01*
G01X6134699Y-2986905D01*
G01X6090702Y-2986905D01*
G01X6090199Y-2945902D01*
G01X6095200Y-2940901D01*
G01X6210198Y-2940901D01*
G01X6215200Y-2945902D01*
G01X6215200Y-3073900D01*
G01X6210198Y-3078902D01*
G01X6095200Y-3078902D01*
G01X6090199Y-3073900D01*
G37*
G36*
G01X8664285Y-4488412D02*
G01X8664285Y-4360414D01*
G01X8669287Y-4355413D01*
G01X8784288Y-4355413D01*
G01X8789286Y-4360414D01*
G01X8789789Y-4401417D01*
G01X8744788Y-4401417D01*
G01X8744788Y-4446416D01*
G01X8788789Y-4446416D01*
G01X8789286Y-4488412D01*
G01X8784288Y-4493414D01*
G01X8669287Y-4493414D01*
G01X8664285Y-4488412D01*
G37*
G36*
G01X8879286Y-4488412D02*
G01X8879289Y-4446416D01*
G01X8923787Y-4446416D01*
G01X8923787Y-4401417D01*
G01X8879789Y-4401417D01*
G01X8879286Y-4360414D01*
G01X8884288Y-4355413D01*
G01X8999286Y-4355413D01*
G01X9004287Y-4360414D01*
G01X9004287Y-4488412D01*
G01X8999286Y-4493414D01*
G01X8884288Y-4493414D01*
G01X8879286Y-4488412D01*
G37*
G36*
G01X8664285Y-4065284D02*
G01X8664285Y-3937286D01*
G01X8669287Y-3932284D01*
G01X8784288Y-3932284D01*
G01X8789286Y-3937286D01*
G01X8789789Y-3978289D01*
G01X8744788Y-3978289D01*
G01X8744788Y-4023288D01*
G01X8788789Y-4023288D01*
G01X8789286Y-4065284D01*
G01X8784288Y-4070285D01*
G01X8669287Y-4070285D01*
G01X8664285Y-4065284D01*
G37*
G36*
G01X8879286Y-4065284D02*
G01X8879289Y-4023288D01*
G01X8923787Y-4023288D01*
G01X8923787Y-3978289D01*
G01X8879789Y-3978289D01*
G01X8879286Y-3937286D01*
G01X8884288Y-3932284D01*
G01X8999286Y-3932284D01*
G01X9004287Y-3937286D01*
G01X9004287Y-4065284D01*
G01X8999286Y-4070285D01*
G01X8884288Y-4070285D01*
G01X8879286Y-4065284D01*
G37*
G36*
G01X5313068Y-3857597D02*
G01X5313068Y-3985595D01*
G01X5308067Y-3990597D01*
G01X5193066Y-3990597D01*
G01X5188067Y-3985595D01*
G01X5187564Y-3944592D01*
G01X5232565Y-3944592D01*
G01X5232565Y-3899593D01*
G01X5188565Y-3899593D01*
G01X5188067Y-3857597D01*
G01X5193066Y-3852596D01*
G01X5308067Y-3852596D01*
G01X5313068Y-3857597D01*
G37*
G36*
G01X5098067Y-3857597D02*
G01X5098064Y-3899593D01*
G01X5053566Y-3899593D01*
G01X5053566Y-3944592D01*
G01X5097564Y-3944592D01*
G01X5098067Y-3985595D01*
G01X5093066Y-3990597D01*
G01X4978067Y-3990597D01*
G01X4973066Y-3985595D01*
G01X4973066Y-3857597D01*
G01X4978067Y-3852596D01*
G01X5093066Y-3852596D01*
G01X5098067Y-3857597D01*
G37*
G36*
G01X4974697Y-3749429D02*
G01X4974697Y-3621430D01*
G01X4979698Y-3616429D01*
G01X5094699Y-3616429D01*
G01X5099698Y-3621430D01*
G01X5100201Y-3662434D01*
G01X5055199Y-3662434D01*
G01X5055199Y-3707432D01*
G01X5099200Y-3707432D01*
G01X5099698Y-3749429D01*
G01X5094699Y-3754430D01*
G01X4979698Y-3754430D01*
G01X4974697Y-3749429D01*
G37*
G36*
G01X5189698Y-3749429D02*
G01X5189700Y-3707432D01*
G01X5234198Y-3707432D01*
G01X5234198Y-3662434D01*
G01X5190200Y-3662434D01*
G01X5189698Y-3621430D01*
G01X5194699Y-3616429D01*
G01X5309697Y-3616429D01*
G01X5314699Y-3621430D01*
G01X5314699Y-3749429D01*
G01X5309697Y-3754430D01*
G01X5194699Y-3754430D01*
G01X5189698Y-3749429D01*
G37*
G36*
G01X3636904Y-2578407D02*
G01X3636904Y-2548405D01*
G01X3746904Y-2548405D01*
G01X3746904Y-2578407D01*
G01X3636904Y-2578407D01*
G37*
G36*
G01X3746904Y-2598417D02*
G01X3746904Y-2628420D01*
G01X3636904Y-2628420D01*
G01X3636904Y-2598417D01*
G01X3746904Y-2598417D01*
G37*
G36*
G01X3746904Y-2088398D02*
G01X3746904Y-2148398D01*
G01X3636904Y-2148398D01*
G01X3636904Y-2088398D01*
G01X3746904Y-2088398D01*
G37*
G36*
G01X3636904Y-2528395D02*
G01X3636904Y-2498392D01*
G01X3746904Y-2498392D01*
G01X3746904Y-2528395D01*
G01X3636904Y-2528395D01*
G37*
G36*
G01X3746904Y-2648417D02*
G01X3746904Y-2708417D01*
G01X3636904Y-2708417D01*
G01X3636904Y-2648417D01*
G01X3746904Y-2648417D01*
G37*
G36*
G01X3636904Y-2788402D02*
G01X3636904Y-2728402D01*
G01X3746904Y-2728402D01*
G01X3746904Y-2788402D01*
G01X3636904Y-2788402D01*
G37*
G36*
G01X3636904Y-2478408D02*
G01X3636904Y-2448405D01*
G01X3746904Y-2448405D01*
G01X3746904Y-2478408D01*
G01X3636904Y-2478408D01*
G37*
G36*
G01X3636904Y-2428395D02*
G01X3636904Y-2398392D01*
G01X3746904Y-2398392D01*
G01X3746904Y-2428395D01*
G01X3636904Y-2428395D01*
G37*
G36*
G01X3746904Y-2168408D02*
G01X3746904Y-2228408D01*
G01X3636904Y-2228408D01*
G01X3636904Y-2168408D01*
G01X3746904Y-2168408D01*
G37*
G36*
G01X3636904Y-2378408D02*
G01X3636904Y-2348405D01*
G01X3746904Y-2348405D01*
G01X3746904Y-2378408D01*
G01X3636904Y-2378408D01*
G37*
G36*
G01X3636904Y-2328421D02*
G01X3636904Y-2298418D01*
G01X3746904Y-2298418D01*
G01X3746904Y-2328421D01*
G01X3636904Y-2328421D01*
G37*
G36*
G01X3636904Y-2278408D02*
G01X3636904Y-2248405D01*
G01X3746904Y-2248405D01*
G01X3746904Y-2278408D01*
G01X3636904Y-2278408D01*
G37*
G36*
G01X3736744Y-2875382D02*
G01X3736447Y-2878358D01*
G01X3736000Y-2881318D01*
G01X3735408Y-2884249D01*
G01X3734669Y-2887149D01*
G01X3733787Y-2890007D01*
G01X3732764Y-2892819D01*
G01X3731603Y-2895575D01*
G01X3730305Y-2898272D01*
G01X3728872Y-2900898D01*
G01X3727313Y-2903451D01*
G01X3725629Y-2905923D01*
G01X3723820Y-2908308D01*
G01X3721898Y-2910599D01*
G01X3719863Y-2912793D01*
G01X3717722Y-2914881D01*
G01X3715479Y-2916862D01*
G01X3713140Y-2918727D01*
G01X3710711Y-2920472D01*
G01X3708197Y-2922095D01*
G01X3705606Y-2923591D01*
G01X3702944Y-2924957D01*
G01X3700219Y-2926187D01*
G01X3697432Y-2927279D01*
G01X3694598Y-2928234D01*
G01X3691717Y-2929044D01*
G01X3688801Y-2929710D01*
G01X3685855Y-2930228D01*
G01X3682886Y-2930601D01*
G01X3679901Y-2930825D01*
G01X3676912Y-2930898D01*
G01X3596912Y-2930898D01*
G01X3593922Y-2930825D01*
G01X3590938Y-2930601D01*
G01X3587968Y-2930228D01*
G01X3585022Y-2929710D01*
G01X3582106Y-2929044D01*
G01X3579226Y-2928234D01*
G01X3576391Y-2927279D01*
G01X3573605Y-2926187D01*
G01X3570879Y-2924957D01*
G01X3568217Y-2923591D01*
G01X3565627Y-2922095D01*
G01X3563112Y-2920472D01*
G01X3560684Y-2918727D01*
G01X3558344Y-2916862D01*
G01X3556102Y-2914881D01*
G01X3553960Y-2912793D01*
G01X3551926Y-2910599D01*
G01X3550003Y-2908308D01*
G01X3548195Y-2905923D01*
G01X3546511Y-2903451D01*
G01X3544951Y-2900898D01*
G01X3543518Y-2898272D01*
G01X3542221Y-2895575D01*
G01X3541060Y-2892819D01*
G01X3540036Y-2890007D01*
G01X3539155Y-2887149D01*
G01X3538416Y-2884249D01*
G01X3537824Y-2881318D01*
G01X3537377Y-2878358D01*
G01X3537080Y-2875382D01*
G01X3536930Y-2872395D01*
G01X3536930Y-2869402D01*
G01X3537080Y-2866415D01*
G01X3537377Y-2863439D01*
G01X3537824Y-2860479D01*
G01X3538416Y-2857548D01*
G01X3539155Y-2854648D01*
G01X3540036Y-2851790D01*
G01X3541060Y-2848978D01*
G01X3542221Y-2846222D01*
G01X3543518Y-2843525D01*
G01X3544951Y-2840899D01*
G01X3546511Y-2838346D01*
G01X3548195Y-2835874D01*
G01X3550003Y-2833489D01*
G01X3551926Y-2831198D01*
G01X3553960Y-2829004D01*
G01X3556102Y-2826916D01*
G01X3558344Y-2824935D01*
G01X3560684Y-2823070D01*
G01X3563112Y-2821325D01*
G01X3565627Y-2819702D01*
G01X3568217Y-2818206D01*
G01X3570879Y-2816840D01*
G01X3573605Y-2815610D01*
G01X3576391Y-2814518D01*
G01X3579226Y-2813563D01*
G01X3582106Y-2812753D01*
G01X3585022Y-2812087D01*
G01X3587968Y-2811569D01*
G01X3590938Y-2811196D01*
G01X3593922Y-2810972D01*
G01X3596912Y-2810899D01*
G01X3676912Y-2810899D01*
G01X3679901Y-2810972D01*
G01X3682886Y-2811196D01*
G01X3685855Y-2811569D01*
G01X3688801Y-2812087D01*
G01X3691717Y-2812753D01*
G01X3694598Y-2813563D01*
G01X3697432Y-2814518D01*
G01X3700219Y-2815610D01*
G01X3702944Y-2816840D01*
G01X3705606Y-2818206D01*
G01X3708197Y-2819702D01*
G01X3710711Y-2821325D01*
G01X3713140Y-2823070D01*
G01X3715479Y-2824935D01*
G01X3717722Y-2826916D01*
G01X3719863Y-2829004D01*
G01X3721898Y-2831198D01*
G01X3723820Y-2833489D01*
G01X3725629Y-2835874D01*
G01X3727313Y-2838346D01*
G01X3728872Y-2840899D01*
G01X3730305Y-2843525D01*
G01X3731603Y-2846222D01*
G01X3732764Y-2848978D01*
G01X3733787Y-2851790D01*
G01X3734669Y-2854648D01*
G01X3735408Y-2857548D01*
G01X3736000Y-2860479D01*
G01X3736447Y-2863439D01*
G01X3736744Y-2866415D01*
G01X3736894Y-2869402D01*
G01X3736894Y-2872395D01*
G01X3736744Y-2875382D01*
G37*
G36*
G01X3736894Y-2004405D02*
G01X3736894Y-2007398D01*
G01X3736744Y-2010385D01*
G01X3736447Y-2013361D01*
G01X3736000Y-2016321D01*
G01X3735408Y-2019252D01*
G01X3734669Y-2022152D01*
G01X3733787Y-2025010D01*
G01X3732764Y-2027822D01*
G01X3731603Y-2030578D01*
G01X3730305Y-2033275D01*
G01X3728872Y-2035901D01*
G01X3727313Y-2038454D01*
G01X3725629Y-2040926D01*
G01X3723820Y-2043311D01*
G01X3721898Y-2045602D01*
G01X3719863Y-2047796D01*
G01X3717722Y-2049884D01*
G01X3715479Y-2051865D01*
G01X3713140Y-2053730D01*
G01X3710711Y-2055475D01*
G01X3708197Y-2057098D01*
G01X3705606Y-2058594D01*
G01X3702944Y-2059960D01*
G01X3700219Y-2061190D01*
G01X3697432Y-2062282D01*
G01X3694598Y-2063237D01*
G01X3691717Y-2064047D01*
G01X3688801Y-2064713D01*
G01X3685855Y-2065231D01*
G01X3682886Y-2065604D01*
G01X3679901Y-2065828D01*
G01X3676912Y-2065901D01*
G01X3596912Y-2065901D01*
G01X3593922Y-2065828D01*
G01X3590938Y-2065604D01*
G01X3587968Y-2065231D01*
G01X3585022Y-2064713D01*
G01X3582106Y-2064047D01*
G01X3579226Y-2063237D01*
G01X3576391Y-2062282D01*
G01X3573605Y-2061190D01*
G01X3570879Y-2059960D01*
G01X3568217Y-2058594D01*
G01X3565627Y-2057098D01*
G01X3563112Y-2055475D01*
G01X3560684Y-2053730D01*
G01X3558344Y-2051865D01*
G01X3556102Y-2049884D01*
G01X3553960Y-2047796D01*
G01X3551926Y-2045602D01*
G01X3550003Y-2043311D01*
G01X3548195Y-2040926D01*
G01X3546511Y-2038454D01*
G01X3544951Y-2035901D01*
G01X3543518Y-2033275D01*
G01X3542221Y-2030578D01*
G01X3541060Y-2027822D01*
G01X3540036Y-2025010D01*
G01X3539155Y-2022152D01*
G01X3538416Y-2019252D01*
G01X3537824Y-2016321D01*
G01X3537377Y-2013361D01*
G01X3537080Y-2010385D01*
G01X3536930Y-2007398D01*
G01X3536930Y-2004405D01*
G01X3537080Y-2001418D01*
G01X3537377Y-1998442D01*
G01X3537824Y-1995482D01*
G01X3538416Y-1992551D01*
G01X3539155Y-1989651D01*
G01X3540036Y-1986793D01*
G01X3541060Y-1983981D01*
G01X3542221Y-1981225D01*
G01X3543518Y-1978528D01*
G01X3544951Y-1975902D01*
G01X3546511Y-1973349D01*
G01X3548195Y-1970877D01*
G01X3550003Y-1968492D01*
G01X3551926Y-1966201D01*
G01X3553960Y-1964007D01*
G01X3556102Y-1961919D01*
G01X3558344Y-1959938D01*
G01X3560684Y-1958073D01*
G01X3563112Y-1956328D01*
G01X3565627Y-1954705D01*
G01X3568217Y-1953209D01*
G01X3570879Y-1951843D01*
G01X3573605Y-1950613D01*
G01X3576391Y-1949521D01*
G01X3579226Y-1948566D01*
G01X3582106Y-1947756D01*
G01X3585022Y-1947090D01*
G01X3587968Y-1946572D01*
G01X3590938Y-1946199D01*
G01X3593922Y-1945975D01*
G01X3596912Y-1945902D01*
G01X3676912Y-1945902D01*
G01X3679901Y-1945975D01*
G01X3682886Y-1946199D01*
G01X3685855Y-1946572D01*
G01X3688801Y-1947090D01*
G01X3691717Y-1947756D01*
G01X3694598Y-1948566D01*
G01X3697432Y-1949521D01*
G01X3700219Y-1950613D01*
G01X3702944Y-1951843D01*
G01X3705606Y-1953209D01*
G01X3708197Y-1954705D01*
G01X3710711Y-1956328D01*
G01X3713140Y-1958073D01*
G01X3715479Y-1959938D01*
G01X3717722Y-1961919D01*
G01X3719863Y-1964007D01*
G01X3721898Y-1966201D01*
G01X3723820Y-1968492D01*
G01X3725629Y-1970877D01*
G01X3727313Y-1973349D01*
G01X3728872Y-1975902D01*
G01X3730305Y-1978528D01*
G01X3731603Y-1981225D01*
G01X3732764Y-1983981D01*
G01X3733787Y-1986793D01*
G01X3734669Y-1989651D01*
G01X3735408Y-1992551D01*
G01X3736000Y-1995482D01*
G01X3736447Y-1998442D01*
G01X3736744Y-2001418D01*
G01X3736894Y-2004405D01*
G37*
G36*
G01X3291728Y-2010385D02*
G01X3291431Y-2013361D01*
G01X3290984Y-2016321D01*
G01X3290392Y-2019252D01*
G01X3289653Y-2022152D01*
G01X3288772Y-2025010D01*
G01X3287748Y-2027822D01*
G01X3286587Y-2030578D01*
G01X3285289Y-2033275D01*
G01X3283857Y-2035901D01*
G01X3282297Y-2038454D01*
G01X3280613Y-2040926D01*
G01X3278805Y-2043311D01*
G01X3276882Y-2045602D01*
G01X3274847Y-2047796D01*
G01X3272706Y-2049884D01*
G01X3270463Y-2051865D01*
G01X3268124Y-2053730D01*
G01X3265696Y-2055475D01*
G01X3263181Y-2057098D01*
G01X3260590Y-2058594D01*
G01X3257928Y-2059960D01*
G01X3255203Y-2061190D01*
G01X3252417Y-2062282D01*
G01X3249582Y-2063237D01*
G01X3246702Y-2064047D01*
G01X3243786Y-2064713D01*
G01X3240839Y-2065231D01*
G01X3237870Y-2065604D01*
G01X3234886Y-2065828D01*
G01X3231896Y-2065901D01*
G01X3201896Y-2065901D01*
G01X3198906Y-2065828D01*
G01X3195922Y-2065604D01*
G01X3192953Y-2065231D01*
G01X3190006Y-2064713D01*
G01X3187090Y-2064047D01*
G01X3184210Y-2063237D01*
G01X3181375Y-2062282D01*
G01X3178589Y-2061190D01*
G01X3175864Y-2059960D01*
G01X3173202Y-2058594D01*
G01X3170611Y-2057098D01*
G01X3168096Y-2055475D01*
G01X3165668Y-2053730D01*
G01X3163329Y-2051865D01*
G01X3161086Y-2049884D01*
G01X3158945Y-2047796D01*
G01X3156910Y-2045602D01*
G01X3154987Y-2043311D01*
G01X3153179Y-2040926D01*
G01X3151495Y-2038454D01*
G01X3149935Y-2035901D01*
G01X3148503Y-2033275D01*
G01X3147205Y-2030578D01*
G01X3146044Y-2027822D01*
G01X3145020Y-2025010D01*
G01X3144139Y-2022152D01*
G01X3143400Y-2019252D01*
G01X3142808Y-2016321D01*
G01X3142361Y-2013361D01*
G01X3142064Y-2010385D01*
G01X3141914Y-2007398D01*
G01X3141914Y-2004405D01*
G01X3142064Y-2001418D01*
G01X3142361Y-1998442D01*
G01X3142808Y-1995482D01*
G01X3143400Y-1992551D01*
G01X3144139Y-1989651D01*
G01X3145020Y-1986793D01*
G01X3146044Y-1983981D01*
G01X3147205Y-1981225D01*
G01X3148503Y-1978528D01*
G01X3149935Y-1975902D01*
G01X3151495Y-1973349D01*
G01X3153179Y-1970877D01*
G01X3154987Y-1968492D01*
G01X3156910Y-1966201D01*
G01X3158945Y-1964007D01*
G01X3161086Y-1961919D01*
G01X3163329Y-1959938D01*
G01X3165668Y-1958073D01*
G01X3168096Y-1956328D01*
G01X3170611Y-1954705D01*
G01X3173202Y-1953209D01*
G01X3175864Y-1951843D01*
G01X3178589Y-1950613D01*
G01X3181375Y-1949521D01*
G01X3184210Y-1948566D01*
G01X3187090Y-1947756D01*
G01X3190006Y-1947090D01*
G01X3192953Y-1946572D01*
G01X3195922Y-1946199D01*
G01X3198906Y-1945975D01*
G01X3201896Y-1945902D01*
G01X3231896Y-1945902D01*
G01X3234886Y-1945975D01*
G01X3237870Y-1946199D01*
G01X3240839Y-1946572D01*
G01X3243786Y-1947090D01*
G01X3246702Y-1947756D01*
G01X3249582Y-1948566D01*
G01X3252417Y-1949521D01*
G01X3255203Y-1950613D01*
G01X3257928Y-1951843D01*
G01X3260590Y-1953209D01*
G01X3263181Y-1954705D01*
G01X3265696Y-1956328D01*
G01X3268124Y-1958073D01*
G01X3270463Y-1959938D01*
G01X3272706Y-1961919D01*
G01X3274847Y-1964007D01*
G01X3276882Y-1966201D01*
G01X3278805Y-1968492D01*
G01X3280613Y-1970877D01*
G01X3282297Y-1973349D01*
G01X3283857Y-1975902D01*
G01X3285289Y-1978528D01*
G01X3286587Y-1981225D01*
G01X3287748Y-1983981D01*
G01X3288772Y-1986793D01*
G01X3289653Y-1989651D01*
G01X3290392Y-1992551D01*
G01X3290984Y-1995482D01*
G01X3291431Y-1998442D01*
G01X3291728Y-2001418D01*
G01X3291878Y-2004405D01*
G01X3291878Y-2007398D01*
G01X3291728Y-2010385D01*
G37*
G36*
G01X3291878Y-2869402D02*
G01X3291878Y-2872395D01*
G01X3291728Y-2875382D01*
G01X3291431Y-2878358D01*
G01X3290984Y-2881318D01*
G01X3290392Y-2884249D01*
G01X3289653Y-2887149D01*
G01X3288772Y-2890007D01*
G01X3287748Y-2892819D01*
G01X3286587Y-2895575D01*
G01X3285289Y-2898272D01*
G01X3283857Y-2900898D01*
G01X3282297Y-2903451D01*
G01X3280613Y-2905923D01*
G01X3278805Y-2908308D01*
G01X3276882Y-2910599D01*
G01X3274847Y-2912793D01*
G01X3272706Y-2914881D01*
G01X3270463Y-2916862D01*
G01X3268124Y-2918727D01*
G01X3265696Y-2920472D01*
G01X3263181Y-2922095D01*
G01X3260590Y-2923591D01*
G01X3257928Y-2924957D01*
G01X3255203Y-2926187D01*
G01X3252417Y-2927279D01*
G01X3249582Y-2928234D01*
G01X3246702Y-2929044D01*
G01X3243786Y-2929710D01*
G01X3240839Y-2930228D01*
G01X3237870Y-2930601D01*
G01X3234886Y-2930825D01*
G01X3231896Y-2930898D01*
G01X3201896Y-2930898D01*
G01X3198906Y-2930825D01*
G01X3195922Y-2930601D01*
G01X3192953Y-2930228D01*
G01X3190006Y-2929710D01*
G01X3187090Y-2929044D01*
G01X3184210Y-2928234D01*
G01X3181375Y-2927279D01*
G01X3178589Y-2926187D01*
G01X3175864Y-2924957D01*
G01X3173202Y-2923591D01*
G01X3170611Y-2922095D01*
G01X3168096Y-2920472D01*
G01X3165668Y-2918727D01*
G01X3163329Y-2916862D01*
G01X3161086Y-2914881D01*
G01X3158945Y-2912793D01*
G01X3156910Y-2910599D01*
G01X3154987Y-2908308D01*
G01X3153179Y-2905923D01*
G01X3151495Y-2903451D01*
G01X3149935Y-2900898D01*
G01X3148503Y-2898272D01*
G01X3147205Y-2895575D01*
G01X3146044Y-2892819D01*
G01X3145020Y-2890007D01*
G01X3144139Y-2887149D01*
G01X3143400Y-2884249D01*
G01X3142808Y-2881318D01*
G01X3142361Y-2878358D01*
G01X3142064Y-2875382D01*
G01X3141914Y-2872395D01*
G01X3141914Y-2869402D01*
G01X3142064Y-2866415D01*
G01X3142361Y-2863439D01*
G01X3142808Y-2860479D01*
G01X3143400Y-2857548D01*
G01X3144139Y-2854648D01*
G01X3145020Y-2851790D01*
G01X3146044Y-2848978D01*
G01X3147205Y-2846222D01*
G01X3148503Y-2843525D01*
G01X3149935Y-2840899D01*
G01X3151495Y-2838346D01*
G01X3153179Y-2835874D01*
G01X3154987Y-2833489D01*
G01X3156910Y-2831198D01*
G01X3158945Y-2829004D01*
G01X3161086Y-2826916D01*
G01X3163329Y-2824935D01*
G01X3165668Y-2823070D01*
G01X3168096Y-2821325D01*
G01X3170611Y-2819702D01*
G01X3173202Y-2818206D01*
G01X3175864Y-2816840D01*
G01X3178589Y-2815610D01*
G01X3181375Y-2814518D01*
G01X3184210Y-2813563D01*
G01X3187090Y-2812753D01*
G01X3190006Y-2812087D01*
G01X3192953Y-2811569D01*
G01X3195922Y-2811196D01*
G01X3198906Y-2810972D01*
G01X3201896Y-2810899D01*
G01X3231896Y-2810899D01*
G01X3234886Y-2810972D01*
G01X3237870Y-2811196D01*
G01X3240839Y-2811569D01*
G01X3243786Y-2812087D01*
G01X3246702Y-2812753D01*
G01X3249582Y-2813563D01*
G01X3252417Y-2814518D01*
G01X3255203Y-2815610D01*
G01X3257928Y-2816840D01*
G01X3260590Y-2818206D01*
G01X3263181Y-2819702D01*
G01X3265696Y-2821325D01*
G01X3268124Y-2823070D01*
G01X3270463Y-2824935D01*
G01X3272706Y-2826916D01*
G01X3274847Y-2829004D01*
G01X3276882Y-2831198D01*
G01X3278805Y-2833489D01*
G01X3280613Y-2835874D01*
G01X3282297Y-2838346D01*
G01X3283857Y-2840899D01*
G01X3285289Y-2843525D01*
G01X3286587Y-2846222D01*
G01X3287748Y-2848978D01*
G01X3288772Y-2851790D01*
G01X3289653Y-2854648D01*
G01X3290392Y-2857548D01*
G01X3290984Y-2860479D01*
G01X3291431Y-2863439D01*
G01X3291728Y-2866415D01*
G01X3291878Y-2869402D01*
G37*
G36*
G01X4453639Y-3344128D02*
G01X4453639Y-3472127D01*
G01X4448637Y-3477128D01*
G01X4333636Y-3477128D01*
G01X4328638Y-3472127D01*
G01X4328135Y-3431123D01*
G01X4373136Y-3431123D01*
G01X4373136Y-3386125D01*
G01X4329135Y-3386125D01*
G01X4328638Y-3344128D01*
G01X4333636Y-3339127D01*
G01X4448637Y-3339127D01*
G01X4453639Y-3344128D01*
G37*
G36*
G01X4238638Y-3344128D02*
G01X4238635Y-3386125D01*
G01X4194137Y-3386125D01*
G01X4194137Y-3431123D01*
G01X4238135Y-3431123D01*
G01X4238638Y-3472127D01*
G01X4233636Y-3477128D01*
G01X4118638Y-3477128D01*
G01X4113637Y-3472127D01*
G01X4113637Y-3344128D01*
G01X4118638Y-3339127D01*
G01X4233636Y-3339127D01*
G01X4238638Y-3344128D01*
G37*

G04 Pad Start*
G54D10*
G01X3886200Y-2400300D03*
G01X3886200Y-2540000D03*
G01X4660900Y-1828800D03*
G01X4660900Y-1562100D03*
G01X5041900Y-3327400D03*
G54D11*
G01X9198166Y-4001294D03*
G01X9418180Y-4001294D03*
G01X9198166Y-4424422D03*
G01X9418180Y-4424422D03*
G01X3433295Y-3321004D03*
G01X3213280Y-3321004D03*
G54D12*
G01X7185548Y-4020186D03*
G01X7220912Y-3984821D03*
G01X7256258Y-3949475D03*
G01X7291622Y-3914111D03*
G01X7326969Y-3878765D03*
G01X7362333Y-3843400D03*
G01X7397679Y-3808054D03*
G01X7433044Y-3772690D03*
G01X7468390Y-3737344D03*
G01X7503754Y-3701979D03*
G01X7539100Y-3666633D03*
G01X7574465Y-3631269D03*
G01X7609811Y-3595922D03*
G01X7645175Y-3560558D03*
G01X7680521Y-3525212D03*
G01X7715886Y-3489848D03*
G54D13*
G01X7715886Y-3214082D03*
G01X7680521Y-3178718D03*
G01X7645175Y-3143371D03*
G01X7609811Y-3108007D03*
G01X7574465Y-3072661D03*
G01X7539100Y-3037297D03*
G01X7503754Y-3001950D03*
G01X7468390Y-2966586D03*
G01X7433044Y-2931240D03*
G01X7397679Y-2895876D03*
G01X7362333Y-2860529D03*
G01X7326969Y-2825165D03*
G01X7291622Y-2789819D03*
G01X7256258Y-2754455D03*
G01X7220912Y-2719108D03*
G01X7185548Y-2683744D03*
G54D12*
G01X6911452Y-2685414D03*
G01X6876088Y-2720779D03*
G01X6840742Y-2756125D03*
G01X6805378Y-2791489D03*
G01X6770031Y-2826835D03*
G01X6734667Y-2862200D03*
G01X6699321Y-2897546D03*
G01X6663956Y-2932910D03*
G01X6628610Y-2968256D03*
G01X6593246Y-3003621D03*
G01X6557900Y-3038967D03*
G01X6522535Y-3074331D03*
G01X6487189Y-3109678D03*
G01X6451825Y-3145042D03*
G01X6416479Y-3180388D03*
G01X6381114Y-3215752D03*
G54D13*
G01X6379444Y-3489848D03*
G01X6414808Y-3525212D03*
G01X6450155Y-3560558D03*
G01X6485519Y-3595922D03*
G01X6520865Y-3631269D03*
G01X6556229Y-3666633D03*
G01X6591576Y-3701979D03*
G01X6626940Y-3737344D03*
G01X6662286Y-3772690D03*
G01X6697650Y-3808054D03*
G01X6732997Y-3843400D03*
G01X6768361Y-3878765D03*
G01X6803707Y-3914111D03*
G01X6839071Y-3949475D03*
G01X6874418Y-3984821D03*
G01X6909782Y-4020186D03*
G54D14*
G01X6232093Y-4372204D03*
G01X6122086Y-4372204D03*
G01X6012104Y-4372204D03*
G01X5902096Y-4372204D03*
G01X5792089Y-4372204D03*
G01X5682107Y-4372204D03*
G01X5572100Y-4372204D03*
G01X5462092Y-4372204D03*
G01X5352085Y-4372204D03*
G54D15*
G01X5224094Y-4512211D03*
G54D16*
G01X5224094Y-5432196D03*
G01X6790106Y-5432196D03*
G54D17*
G01X6728104Y-4487215D03*
G54D19*
G01X4783811Y-2640203D03*
G01X4783811Y-2870200D03*
G01X4783811Y-3100197D03*
G54D20*
G01X5350789Y-2870200D03*
G54D21*
G01X8288180Y-2547066D03*
G01X8288180Y-2802057D03*
G04 Pad End*

M02*

