G04 Layer: TopLayer*
G04 EasyEDA Pro v3.2.148, 2026-07-30 20:47:14*
G04 Gerber Generator version 0.3*
G04 Scale: 100 percent, Rotated: No, Reflected: No*
G04 Dimensions in millimeters*
G04 Leading zeros omitted, absolute positions, 4 integers and 5 decimals*
G04 Generated by one-click*
G04 Object Configs: Pad,Via,Track,Text,Image,Dimension,BoardOutline,BoardCutout,CopperFilled,SolidRegion,FPCStiffener,Line,PlaneZone,ComponentProperty,ComponentSilkscreen,TearDrop*
G04 Layer Configs: 1,2,3,4,5,6,7,8,9,10,11,13,14,56*
G04 Copper Areas: 0*
%FSLAX45Y45*%
%MOMM*%
%AMOval*1,1,$1,$2,$3*1,1,$1,$4,$5*20,1,$1,$2,$3,$4,$5,0*%
%ADD10R,0.762X0.762*%
%ADD11R,1.48501X1.72799*%
%ADD12R,1.41X1.35001*%
%ADD13R,1.7X1.7*%
%ADD14C,1.7*%
%ADD15R,1.8X1.8*%
%ADD16C,1.8*%
%ADD17R,1.0034X1.25001*%
%ADD18R,1.0X1.25001*%
%ADD19R,1.20752X1.70101*%
%ADD20R,1.13254X1.37701*%
%ADD21R,1.37701X1.13254*%
%ADD22Oval,0.3X-0.42426X0.42426X0.42426X-0.42426*%
%ADD23Oval,0.3X-0.42426X-0.42426X0.42426X0.42426*%
%ADD24R,0.7X1.4*%
%ADD25R,1.2X1.8*%
%ADD26R,1.2X2.4*%
%ADD27R,1.6X1.5*%
%ADD28R,2.47X0.98001*%
%ADD29R,2.47X3.59999*%
%ADD30R,1.1X0.55001*%
%ADD31R,1.1X0.3*%
%ADD32O,2.0X1.1*%
%ADD33O,1.8X1.2*%
%ADD34R,1.7X1.05001*%
%ADD35C,0.61*%
%ADD36C,0.254*%
G75*


G04 Pad Start*
G54D10*
G01X3886200Y-2400300D03*
G01X3886200Y-2540000D03*
G01X4660900Y-1828800D03*
G01X4660900Y-1562100D03*
G01X5041900Y-3327400D03*
G54D11*
G01X4381033Y-2179259D03*
G01X4062517Y-2179259D03*
G01X4374573Y-1887159D03*
G01X4056057Y-1887159D03*
G01X4412615Y-4739641D03*
G01X4731131Y-4739641D03*
G01X8350697Y-4437667D03*
G01X8032181Y-4437667D03*
G01X8032181Y-4141206D03*
G01X8350697Y-4141206D03*
G01X8032181Y-3836896D03*
G01X8350697Y-3836896D03*
G54D12*
G01X8482508Y-2308098D03*
G01X8282508Y-2308098D03*
G01X8477067Y-3070098D03*
G01X8277068Y-3070098D03*
G54D11*
G01X5885744Y-3919159D03*
G01X5567228Y-3919159D03*
G01X5879285Y-3665159D03*
G01X5560769Y-3665159D03*
G01X7502653Y-1877376D03*
G01X7184137Y-1877376D03*
G01X7177787Y-2152688D03*
G01X7496303Y-2152688D03*
G54D13*
G01X3479800Y-4140200D03*
G54D14*
G01X3479800Y-3886200D03*
G01X3733800Y-4140200D03*
G01X3733800Y-3886200D03*
G01X3987800Y-4140200D03*
G01X3987800Y-3886200D03*
G01X4241800Y-4140200D03*
G01X4241800Y-3886200D03*
G01X4495800Y-4140200D03*
G01X4495800Y-3886200D03*
G54D15*
G01X7467600Y-5359400D03*
G54D16*
G01X7467600Y-5105400D03*
G01X7721600Y-5359400D03*
G01X7721600Y-5105400D03*
G01X7975600Y-5359400D03*
G01X7975600Y-5105400D03*
G01X8229600Y-5359400D03*
G01X8229600Y-5105400D03*
G01X8483600Y-5359400D03*
G01X8483600Y-5105400D03*
G01X8737600Y-5359400D03*
G01X8737600Y-5105400D03*
G01X8991600Y-5359400D03*
G01X8991600Y-5105400D03*
G01X9245600Y-5359400D03*
G01X9245600Y-5105400D03*
G54D15*
G01X6756400Y-1879600D03*
G54D16*
G01X6756400Y-2133600D03*
G01X6502400Y-1879600D03*
G01X6502400Y-2133600D03*
G01X6248400Y-1879600D03*
G01X6248400Y-2133600D03*
G01X5994400Y-1879600D03*
G01X5994400Y-2133600D03*
G01X5740400Y-1879600D03*
G01X5740400Y-2133600D03*
G01X5486400Y-1879600D03*
G01X5486400Y-2133600D03*
G01X5232400Y-1879600D03*
G01X5232400Y-2133600D03*
G01X4978400Y-1879600D03*
G01X4978400Y-2133600D03*
G54D15*
G01X9359900Y-3530600D03*
G54D16*
G01X9105900Y-3530600D03*
G01X9359900Y-3276600D03*
G01X9105900Y-3276600D03*
G01X9359900Y-3022600D03*
G01X9105900Y-3022600D03*
G01X9359900Y-2768600D03*
G01X9105900Y-2768600D03*
G01X9359900Y-2514600D03*
G01X9105900Y-2514600D03*
G01X9359900Y-2260600D03*
G01X9105900Y-2260600D03*
G01X9359900Y-2006600D03*
G01X9105900Y-2006600D03*
G01X9359900Y-1752600D03*
G01X9105900Y-1752600D03*
G54D18*
G01X9198166Y-4001294D03*
G01X9418180Y-4001294D03*
G01X9198166Y-4424422D03*
G01X9418180Y-4424422D03*
G01X3433295Y-3321004D03*
G01X3213280Y-3321004D03*
G54D19*
G01X4362519Y-2510056D03*
G01X4066761Y-2510056D03*
G01X4369283Y-2802156D03*
G01X4073525Y-2802156D03*
G54D20*
G01X4379773Y-3105114D03*
G01X4179773Y-3105114D03*
G54D21*
G01X3871740Y-3365396D03*
G01X3871740Y-3165396D03*
G54D20*
G01X6145200Y-3009900D03*
G01X5945200Y-3009900D03*
G01X8934287Y-4424412D03*
G01X8734288Y-4424412D03*
G01X8934287Y-4001284D03*
G01X8734288Y-4001284D03*
G01X5043066Y-3921597D03*
G01X5243065Y-3921597D03*
G01X5244699Y-3685428D03*
G01X5044699Y-3685428D03*
G54D16*
G01X4259707Y-5083607D03*
G01X4909693Y-5083607D03*
G01X4259707Y-5533593D03*
G01X4909693Y-5533593D03*
G54D22*
G01X7185548Y-4020186D03*
G01X7220912Y-3984821D03*
G01X7256258Y-3949475D03*
G01X7291622Y-3914111D03*
G01X7326969Y-3878765D03*
G01X7362333Y-3843400D03*
G01X7397679Y-3808054D03*
G01X7433044Y-3772690D03*
G01X7468390Y-3737344D03*
G01X7503754Y-3701979D03*
G01X7539100Y-3666633D03*
G01X7574465Y-3631269D03*
G01X7609811Y-3595922D03*
G01X7645175Y-3560558D03*
G01X7680521Y-3525212D03*
G01X7715886Y-3489848D03*
G54D23*
G01X7715886Y-3214082D03*
G01X7680521Y-3178718D03*
G01X7645175Y-3143371D03*
G01X7609811Y-3108007D03*
G01X7574465Y-3072661D03*
G01X7539100Y-3037297D03*
G01X7503754Y-3001950D03*
G01X7468390Y-2966586D03*
G01X7433044Y-2931240D03*
G01X7397679Y-2895876D03*
G01X7362333Y-2860529D03*
G01X7326969Y-2825165D03*
G01X7291622Y-2789819D03*
G01X7256258Y-2754455D03*
G01X7220912Y-2719108D03*
G01X7185548Y-2683744D03*
G54D22*
G01X6911452Y-2685414D03*
G01X6876088Y-2720779D03*
G01X6840742Y-2756125D03*
G01X6805378Y-2791489D03*
G01X6770031Y-2826835D03*
G01X6734667Y-2862200D03*
G01X6699321Y-2897546D03*
G01X6663956Y-2932910D03*
G01X6628610Y-2968256D03*
G01X6593246Y-3003621D03*
G01X6557900Y-3038967D03*
G01X6522535Y-3074331D03*
G01X6487189Y-3109678D03*
G01X6451825Y-3145042D03*
G01X6416479Y-3180388D03*
G01X6381114Y-3215752D03*
G54D23*
G01X6379444Y-3489848D03*
G01X6414808Y-3525212D03*
G01X6450155Y-3560558D03*
G01X6485519Y-3595922D03*
G01X6520865Y-3631269D03*
G01X6556229Y-3666633D03*
G01X6591576Y-3701979D03*
G01X6626940Y-3737344D03*
G01X6662286Y-3772690D03*
G01X6697650Y-3808054D03*
G01X6732997Y-3843400D03*
G01X6768361Y-3878765D03*
G01X6803707Y-3914111D03*
G01X6839071Y-3949475D03*
G01X6874418Y-3984821D03*
G01X6909782Y-4020186D03*
G54D24*
G01X6232093Y-4372204D03*
G01X6122086Y-4372204D03*
G01X6012104Y-4372204D03*
G01X5902096Y-4372204D03*
G01X5792089Y-4372204D03*
G01X5682107Y-4372204D03*
G01X5572100Y-4372204D03*
G01X5462092Y-4372204D03*
G01X5352085Y-4372204D03*
G54D25*
G01X5224094Y-4512211D03*
G54D26*
G01X5224094Y-5432196D03*
G01X6790106Y-5432196D03*
G54D27*
G01X6728104Y-4487215D03*
G54D28*
G01X4783811Y-2640203D03*
G01X4783811Y-2870200D03*
G01X4783811Y-3100197D03*
G54D29*
G01X5350789Y-2870200D03*
G54D30*
G01X3691903Y-2118398D03*
G01X3691903Y-2198408D03*
G54D31*
G01X3691903Y-2263407D03*
G01X3691903Y-2313419D03*
G01X3691903Y-2363406D03*
G01X3691903Y-2413394D03*
G01X3691903Y-2463406D03*
G01X3691903Y-2513393D03*
G01X3691903Y-2563406D03*
G01X3691903Y-2613419D03*
G54D30*
G01X3691903Y-2678417D03*
G01X3691903Y-2758402D03*
G54D32*
G01X3636912Y-2005901D03*
G01X3636912Y-2870898D03*
G54D33*
G01X3216897Y-2005901D03*
G01X3216897Y-2870898D03*
G54D34*
G01X8288180Y-2547066D03*
G01X8288180Y-2802057D03*
G54D20*
G01X4183637Y-3408129D03*
G01X4383636Y-3408129D03*
G04 Pad End*

G04 Via Start*
G54D35*
G01X8556488Y-3254918D03*
G01X7819888Y-3090151D03*
G01X7879781Y-3786096D03*
G01X7422581Y-3608296D03*
G01X7101587Y-3287302D03*
G01X6187187Y-3287302D03*
G01X5682544Y-3690346D03*
G01X4209484Y-2198408D03*
G01X3930084Y-2198408D03*
G01X4379773Y-2978297D03*
G01X4495800Y-3022600D03*
G01X7256505Y-3754059D03*
G01X7586705Y-3804859D03*
G01X7713705Y-3991344D03*
G01X7881780Y-3450953D03*
G01X8059580Y-3984353D03*
G01X8288180Y-2445466D03*
G01X5105400Y-3048000D03*
G01X6070600Y-3200400D03*
G01X6599667Y-3175000D03*
G01X6522535Y-2565400D03*
G01X6446335Y-2997200D03*
G01X6324600Y-3088509D03*
G01X7568975Y-3219571D03*
G01X7734300Y-3057207D03*
G01X7861300Y-3352800D03*
G01X7988300Y-3048000D03*
G01X7958150Y-2976550D03*
G01X7392190Y-3042786D03*
G01X6604000Y-2743200D03*
G01X6880889Y-2867689D03*
G01X6400800Y-2641600D03*
G01X6705600Y-2565400D03*
G01X7353300Y-2641600D03*
G01X7160148Y-2632944D03*
G01X6972300Y-2641600D03*
G01X6896100Y-2540000D03*
G01X8483600Y-4495800D03*
G01X6846090Y-3721890D03*
G01X6900850Y-4622800D03*
G01X6621450Y-3886200D03*
G01X8305800Y-4572000D03*
G01X8539100Y-4745100D03*
G01X8869300Y-5596000D03*
G01X7866000Y-5545200D03*
G01X6977000Y-4529200D03*
G01X6732997Y-4132797D03*
G01X6850565Y-3802565D03*
G01X6731000Y-3993804D03*
G01X7162800Y-3746275D03*
G01X7061200Y-3670075D03*
G01X6915271Y-3873275D03*
G01X8026400Y-5486400D03*
G01X7112000Y-4343400D03*
G01X6883400Y-4165600D03*
G01X7493000Y-3530600D03*
G01X6959600Y-4070004D03*
G01X8064500Y-2870200D03*
G01X7321479Y-2971800D03*
G01X5926200Y-1998600D03*
G01X6248400Y-3073400D03*
G01X6705600Y-4343400D03*
G01X6414808Y-3835400D03*
G01X6821208Y-3525212D03*
G01X6375400Y-3657600D03*
G01X6858000Y-4241800D03*
G01X6400800Y-4191000D03*
G01X7334596Y-4114800D03*
G01X7105996Y-3886200D03*
G01X6978996Y-3683000D03*
G01X6792163Y-3666633D03*
G01X7061200Y-4552604D03*
G01X6807200Y-4171604D03*
G01X6556744Y-3832940D03*
G01X6704810Y-3051544D03*
G01X4209415Y-4460241D03*
G01X7292043Y-3377269D03*
G01X7520643Y-3351869D03*
G01X7774643Y-3605869D03*
G01X6073252Y-4091040D03*
G01X5819252Y-4268840D03*
G01X5597500Y-4225232D03*
G01X7426300Y-3488632D03*
G01X6057499Y-3736228D03*
G01X6649318Y-3439048D03*
G01X6928718Y-3439048D03*
G01X7360518Y-3439048D03*
G01X6110522Y-3135078D03*
G01X6331586Y-4553586D03*
G01X5421918Y-3595082D03*
G01X5574318Y-4052282D03*
G01X6564918Y-3417282D03*
G01X6945918Y-3214082D03*
G01X7174518Y-3214082D03*
G01X7911118Y-3544282D03*
G01X8546118Y-4179282D03*
G04 Via End*

G04 Track Start*
G54D36*
G01X4362519Y-2510056D02*
G01X4165882Y-2313419D01*
G01X3691903Y-2313419D01*
G01X4369283Y-2802156D02*
G01X4191483Y-2624356D01*
G01X3759683Y-2624356D01*
G01X3748745Y-2613419D01*
G01X3691903Y-2613419D01*
G01X3433295Y-3321004D02*
G01X3716132Y-3321004D01*
G01X3871740Y-3165396D01*
G01X4119491Y-3165396D01*
G01X4179773Y-3105114D01*
G01X9198166Y-4424422D02*
G01X8934298Y-4424422D01*
G01X9198166Y-4001294D02*
G01X8934298Y-4001294D01*
G01X8734288Y-4001284D02*
G01X8734288Y-3432718D01*
G01X8556488Y-3254918D01*
G01X7819888Y-3090151D02*
G01X7794488Y-3115551D01*
G01X7743688Y-3115551D01*
G01X7680521Y-3178718D01*
G01X3871740Y-3365396D02*
G01X4140904Y-3365396D01*
G01X4183637Y-3408129D01*
G01X8032181Y-4437667D02*
G01X8328642Y-4141206D01*
G01X8350697Y-4141206D01*
G01X8328642Y-4141206D02*
G01X8328642Y-4133357D01*
G01X8032181Y-3836896D01*
G01X7930581Y-3836896D01*
G01X7879781Y-3786096D01*
G01X7422581Y-3608296D02*
G01X7371781Y-3659096D01*
G01X7371781Y-3711427D01*
G01X7433044Y-3772690D01*
G01X7397679Y-3808054D01*
G01X7422581Y-3608296D02*
G01X7177787Y-3363502D01*
G01X7177787Y-3312702D01*
G01X7076187Y-3211102D02*
G01X7076187Y-2254288D01*
G01X7177787Y-2152688D01*
G01X6775488Y-2152688D01*
G01X6756400Y-2133600D01*
G01X7126987Y-3261902D02*
G01X7101587Y-3287302D01*
G01X6187187Y-3287302D02*
G01X5882387Y-3592102D01*
G01X5882387Y-3662056D01*
G01X5879285Y-3665159D01*
G01X5682544Y-3690346D02*
G01X5682544Y-3766546D01*
G01X5834944Y-3918946D01*
G01X5885744Y-3919159D01*
G01X5885744Y-4355851D01*
G01X5902096Y-4372204D01*
G01X5882387Y-3592102D02*
G01X5780787Y-3490502D01*
G01X5239625Y-3490502D02*
G01X5044699Y-3685428D01*
G01X5044699Y-3919964D01*
G01X5043066Y-3921597D01*
G01X4941466Y-4023197D01*
G01X4378797Y-4023197D01*
G01X4241800Y-3886200D01*
G01X5374387Y-3490502D02*
G01X5374387Y-3460777D01*
G01X4381033Y-2179259D02*
G01X4381033Y-1893618D01*
G01X4374573Y-1887159D01*
G01X4381033Y-2179259D02*
G01X4254033Y-2179259D01*
G01X4234884Y-2198408D01*
G01X4209484Y-2198408D01*
G01X3930084Y-2198408D02*
G01X3691903Y-2198408D01*
G01X3641103Y-2198408D01*
G01X3539503Y-2300008D01*
G01X3539503Y-2579408D01*
G01X3641103Y-2681008D01*
G01X3689312Y-2681008D01*
G01X3691903Y-2678417D01*
G01X4379773Y-2978297D02*
G01X4379773Y-3105114D01*
G01X4778893Y-3105114D02*
G01X4783811Y-3100197D01*
G01X4506773Y-3105114D02*
G01X4506773Y-3875227D01*
G01X4495800Y-3886200D01*
G01X4381033Y-1893618D02*
G01X4572851Y-1701800D01*
G01X6578600Y-1701800D02*
G01X6756400Y-1879600D01*
G01X7181914Y-1879600D01*
G01X7184137Y-1877376D01*
G01X4495800Y-3022600D02*
G01X4495800Y-2933700D01*
G01X4648200Y-2781300D01*
G01X4927600Y-2781300D01*
G01X5181600Y-3035300D01*
G01X5181600Y-3060700D01*
G01X5232400Y-3111500D01*
G01X6043600Y-3111500D01*
G01X6145200Y-3009900D01*
G01X6342083Y-3009900D01*
G01X6392883Y-3060700D01*
G01X6392883Y-3086100D01*
G01X6451825Y-3145042D01*
G01X4062517Y-1893618D02*
G01X4056057Y-1887159D01*
G01X4062517Y-2179259D02*
G01X4138717Y-2255459D01*
G01X4189517Y-2255459D01*
G01X4330119Y-2396062D01*
G01X4442467Y-2396062D01*
G01X4457119Y-2410713D01*
G01X4457119Y-2523062D01*
G01X4468917Y-2534859D01*
G01X4468917Y-2611059D01*
G01X4443517Y-2636459D01*
G01X4291117Y-2636459D01*
G01X4164117Y-2509459D01*
G01X4067358Y-2509459D01*
G01X4443517Y-2636459D02*
G01X4468917Y-2661859D01*
G01X4468917Y-2890459D01*
G01X4443517Y-2915859D01*
G01X4187228Y-2915859D02*
G01X4073525Y-2802156D01*
G01X4468917Y-2611059D02*
G01X4722917Y-2611059D01*
G01X4748317Y-2636459D01*
G01X4780067Y-2636459D01*
G01X4783811Y-2640203D01*
G01X4062517Y-2128459D02*
G01X3701964Y-2128459D01*
G01X3691903Y-2118398D01*
G01X3691903Y-2060892D01*
G01X3636912Y-2005901D01*
G01X4073525Y-2802156D02*
G01X3735657Y-2802156D01*
G01X3691903Y-2758402D01*
G01X3691903Y-2815907D01*
G01X3636912Y-2870898D01*
G01X3636912Y-2005901D02*
G01X3216897Y-2005901D01*
G01X3636912Y-2870898D02*
G01X3216897Y-2870898D01*
G01X3216897Y-3317387D01*
G01X3213280Y-3321004D01*
G01X4316517Y-2915859D02*
G01X4291117Y-2941259D01*
G01X4291117Y-3315609D01*
G01X4383636Y-3408129D01*
G01X4780067Y-2636459D02*
G01X4780067Y-2611059D01*
G01X4978400Y-2412726D01*
G01X4978400Y-2133600D01*
G01X4383636Y-3408129D02*
G01X4383636Y-3490364D01*
G01X3987800Y-3886200D01*
G01X3987800Y-4140200D01*
G01X4038600Y-4140200D01*
G01X4638041Y-4739641D01*
G01X4731131Y-4739641D01*
G01X4909693Y-4918203D02*
G01X4909693Y-5083607D01*
G01X4909693Y-5117795D01*
G01X5224094Y-5432196D01*
G01X4858131Y-4866641D02*
G01X4869664Y-4866641D01*
G01X5224094Y-4512211D01*
G01X5579694Y-4512211D01*
G01X5681294Y-4410611D01*
G01X5681294Y-4373016D01*
G01X5682107Y-4372204D01*
G01X5682107Y-4034038D01*
G01X5567228Y-3919159D01*
G01X5567228Y-3671618D01*
G01X5560769Y-3665159D01*
G01X4978400Y-2412726D02*
G01X5348026Y-2412726D01*
G01X5945200Y-3009900D01*
G01X5681294Y-4410611D02*
G01X5757494Y-4486811D01*
G01X6265494Y-4486811D02*
G01X6265494Y-4907585D01*
G01X6790106Y-5432196D01*
G01X4062517Y-1899859D02*
G01X4316517Y-1645859D01*
G01X7154905Y-1645859D02*
G01X7332705Y-1823659D01*
G01X7281905Y-2001459D02*
G01X6697705Y-2001459D01*
G01X6621505Y-2077659D01*
G01X6621505Y-2179259D01*
G01X7035505Y-2593259D01*
G01X7035505Y-3533059D01*
G01X7256505Y-3754059D01*
G01X7586705Y-3804859D02*
G01X7620790Y-3770775D01*
G01X7620790Y-3762417D01*
G01X7612432Y-3762417D01*
G01X7586705Y-3788144D01*
G01X7510505Y-3788144D01*
G01X7510505Y-3779459D01*
G01X7468390Y-3737344D01*
G01X7332705Y-1874459D02*
G01X7499736Y-1874459D01*
G01X7502653Y-1877376D01*
G01X7307305Y-1976059D02*
G01X7319674Y-1976059D01*
G01X7496303Y-2152688D01*
G01X7713705Y-3991344D02*
G01X7863568Y-4141206D01*
G01X7914368Y-4141206D02*
G01X7914368Y-4522206D01*
G01X7965168Y-4573006D01*
G01X8215358Y-4573006D01*
G01X8350697Y-4437667D01*
G01X8477697Y-4310667D01*
G01X8477697Y-3963896D02*
G01X8350697Y-3836896D01*
G01X8350697Y-3196468D01*
G01X8477067Y-3070098D01*
G01X8477067Y-2313539D02*
G01X8482508Y-2308098D01*
G01X8477067Y-2511298D02*
G01X8604067Y-2638298D01*
G01X9236202Y-2638298D01*
G01X9359900Y-2514600D01*
G01X8477697Y-4056667D02*
G01X8528497Y-4107467D01*
G01X9312007Y-4107467D02*
G01X9418180Y-4001294D01*
G01X9265097Y-4107467D02*
G01X9265097Y-4271339D01*
G01X9418180Y-4424422D01*
G01X8282508Y-2308098D02*
G01X8161180Y-2429426D01*
G01X8161180Y-2675057D01*
G01X8288180Y-2802057D01*
G01X8059580Y-3030657D01*
G01X8059580Y-3273153D01*
G01X7881780Y-3450953D01*
G01X8059580Y-3984353D02*
G01X7830980Y-3984353D01*
G01X7760738Y-3914111D01*
G01X7506738Y-3914111D01*
G01X7430538Y-3990311D01*
G01X7367822Y-3990311D01*
G01X7291622Y-3914111D01*
G01X8277068Y-3070098D02*
G01X8404068Y-2943098D01*
G01X8404068Y-2662954D01*
G01X8288180Y-2547066D01*
G01X8277068Y-3070098D02*
G01X8277068Y-3284266D01*
G01X7692868Y-3868466D01*
G01X7489668Y-3868466D01*
G01X7428569Y-3929565D01*
G01X7377769Y-3929565D01*
G01X7326969Y-3878765D01*
G01X8288180Y-2547066D02*
G01X8288180Y-2445466D01*
G01X5232400Y-2133600D02*
G01X5994400Y-2895600D01*
G01X6485225Y-2895600D01*
G01X6593246Y-3003621D01*
G01X5105400Y-3048000D02*
G01X5257800Y-3200400D01*
G01X6070600Y-3200400D01*
G01X6599667Y-3175000D02*
G01X6625067Y-3149600D01*
G01X6625067Y-3106134D01*
G01X6557900Y-3038967D01*
G01X5994400Y-1879600D02*
G01X6121400Y-2006600D01*
G01X6121400Y-2184400D01*
G01X6502400Y-2565400D01*
G01X6522535Y-2565400D01*
G01X6446335Y-2997200D02*
G01X6522535Y-3074331D01*
G01X6324600Y-3088509D02*
G01X6416479Y-3180388D01*
G01X7568975Y-3219571D02*
G01X7645175Y-3143371D01*
G01X7734300Y-3057207D02*
G01X7660611Y-3057207D01*
G01X7609811Y-3108007D01*
G01X7861300Y-3352800D02*
G01X7886700Y-3327400D01*
G01X7886700Y-3073400D01*
G01X7810500Y-2997200D01*
G01X7649926Y-2997200D01*
G01X7574465Y-3072661D01*
G01X7988300Y-3048000D02*
G01X7937500Y-3048000D01*
G01X7835900Y-2946400D01*
G01X7629997Y-2946400D01*
G01X7539100Y-3037297D01*
G01X7958150Y-2976550D02*
G01X7881950Y-2900350D01*
G01X7605354Y-2900350D01*
G01X7503754Y-3001950D01*
G01X7392190Y-3042786D02*
G01X7468390Y-2966586D01*
G01X5994400Y-2133600D02*
G01X6604000Y-2743200D01*
G01X6880889Y-2867689D02*
G01X6805378Y-2791489D01*
G01X5740400Y-1879600D02*
G01X5867400Y-2006600D01*
G01X5867400Y-2184400D01*
G01X6324600Y-2641600D01*
G01X6400800Y-2641600D01*
G01X6705600Y-2565400D02*
G01X6705600Y-2762404D01*
G01X6770031Y-2826835D01*
G01X9105900Y-1752600D02*
G01X9232900Y-1625600D01*
G01X9410700Y-1625600D01*
G01X9486900Y-1701800D01*
G01X9486900Y-1803400D01*
G01X9410700Y-1879600D01*
G01X9309100Y-1879600D01*
G01X9232900Y-1955800D01*
G01X9232900Y-2057400D01*
G01X9156700Y-2133600D01*
G01X8018534Y-2133600D01*
G01X7326969Y-2825165D01*
G01X7353300Y-2641600D02*
G01X7353300Y-2657413D01*
G01X7256258Y-2754454D01*
G01X9359900Y-2006600D02*
G01X9537700Y-1828800D01*
G01X9537700Y-1676400D01*
G01X9436100Y-1574800D01*
G01X8318500Y-1574800D01*
G01X7277100Y-2616200D01*
G01X7277100Y-2662920D01*
G01X7220912Y-2719108D01*
G01X7160148Y-2632944D02*
G01X7160148Y-2658344D01*
G01X7185548Y-2683744D01*
G01X6972300Y-2641600D02*
G01X6929867Y-2599167D01*
G01X6850688Y-2599167D01*
G01X6825288Y-2624567D01*
G01X6825288Y-2669979D01*
G01X6876088Y-2720779D01*
G01X6896100Y-2540000D02*
G01X6845300Y-2540000D01*
G01X6769100Y-2616200D01*
G01X6769100Y-2684483D01*
G01X6840742Y-2756125D01*
G01X9359900Y-1752600D02*
G01X9232900Y-1879600D01*
G01X8201841Y-1879600D01*
G01X7291622Y-2789819D01*
G01X8483600Y-5359400D02*
G01X8356600Y-5232400D01*
G01X8356600Y-4826000D01*
G01X8483600Y-4699000D01*
G01X8483600Y-4495800D01*
G01X6846090Y-3721890D02*
G01X6820690Y-3747290D01*
G01X6795290Y-3747290D01*
G01X6769890Y-3721890D01*
G01X6713086Y-3721890D01*
G01X6662286Y-3772690D01*
G01X8483600Y-5105400D02*
G01X8610600Y-5232400D01*
G01X8788400Y-5232400D01*
G01X8864600Y-5308600D01*
G01X8864600Y-5410200D01*
G01X8661400Y-5613400D01*
G01X7493000Y-5613400D01*
G01X6900850Y-5021250D01*
G01X6900850Y-4622800D01*
G01X6621450Y-3886200D02*
G01X6621450Y-3884254D01*
G01X6697650Y-3808054D01*
G01X8737600Y-5359400D02*
G01X8610600Y-5486400D01*
G01X8432800Y-5486400D01*
G01X8356600Y-5410200D01*
G01X8356600Y-5308600D01*
G01X8280400Y-5232400D01*
G01X8178800Y-5232400D01*
G01X8102600Y-5156200D01*
G01X8102600Y-4775200D01*
G01X8305800Y-4572000D01*
G01X8856600Y-5037200D02*
G01X8856600Y-5138800D01*
G01X8958200Y-5240400D01*
G01X9059800Y-5240400D01*
G01X9110600Y-5291200D01*
G01X9110600Y-5418200D01*
G01X9034400Y-5494400D01*
G01X7586600Y-5392800D02*
G01X7586600Y-5255052D01*
G01X7571948Y-5240400D01*
G01X7434200Y-5240400D01*
G01X6977000Y-4783200D01*
G01X6977000Y-4529200D01*
G01X6732997Y-4132797D02*
G01X6656797Y-4056597D01*
G01X6656797Y-3980397D01*
G01X6682197Y-3954997D01*
G01X6682197Y-3894200D01*
G01X6732997Y-3843400D01*
G01X6850565Y-3802565D02*
G01X6844561Y-3802565D01*
G01X6768361Y-3878765D01*
G01X6731000Y-3993804D02*
G01X6731000Y-3986818D01*
G01X6803707Y-3914111D01*
G01X7162800Y-3746275D02*
G01X7137400Y-3746275D01*
G01X7061200Y-3670075D01*
G01X6915271Y-3873275D02*
G01X6839071Y-3949475D01*
G01X8026400Y-5486400D02*
G01X8102600Y-5410200D01*
G01X8102600Y-5308600D01*
G01X8026400Y-5232400D01*
G01X7924800Y-5232400D01*
G01X7848600Y-5156200D01*
G01X7848600Y-5054600D01*
G01X7137400Y-4343400D01*
G01X7112000Y-4343400D01*
G01X6883400Y-4165600D02*
G01X6883400Y-4140200D01*
G01X6823618Y-4080418D01*
G01X6823618Y-4035621D01*
G01X6874418Y-3984821D01*
G01X7493000Y-3530600D02*
G01X7544488Y-3530600D01*
G01X7609811Y-3595922D01*
G01X6959600Y-4070004D02*
G01X6909782Y-4020186D01*
G01X8064500Y-2870200D02*
G01X8039100Y-2844800D01*
G01X7519483Y-2844800D01*
G01X7433044Y-2931240D01*
G01X7321479Y-2971800D02*
G01X7397679Y-2895876D01*
G01X5926200Y-1998600D02*
G01X5875400Y-1947800D01*
G01X5875400Y-1820800D01*
G01X5951600Y-1744600D01*
G01X6027800Y-1744600D01*
G01X6129400Y-1846200D01*
G01X6129400Y-1947800D01*
G01X6180200Y-1998600D01*
G01X6281800Y-1998600D01*
G01X6383400Y-2100200D01*
G01X6383400Y-2328800D01*
G01X6662800Y-2608200D01*
G01X6662800Y-2790333D01*
G01X6734667Y-2862200D01*
G01X5486400Y-1879600D02*
G01X5613400Y-2006600D01*
G01X5613400Y-2192625D01*
G01X6223000Y-2802225D01*
G01X6604000Y-2802225D01*
G01X6699321Y-2897546D01*
G01X6248400Y-3073400D02*
G01X6248400Y-3098800D01*
G01X6365352Y-3215752D01*
G01X6381114Y-3215752D01*
G01X6705600Y-4343400D02*
G01X6414808Y-4052608D01*
G01X6414808Y-3835400D01*
G01X6821208Y-3525212D02*
G01X6795808Y-3499812D01*
G01X6541808Y-3499812D01*
G01X6516408Y-3474412D01*
G01X6465608Y-3474412D01*
G01X6414808Y-3525212D01*
G01X6375400Y-3657600D02*
G01X6375400Y-3635313D01*
G01X6450154Y-3560558D01*
G01X6858000Y-4241800D02*
G01X6891919Y-4241800D01*
G01X7018919Y-4114800D01*
G01X7018919Y-3810000D01*
G01X6754041Y-3545122D01*
G01X6536319Y-3545122D01*
G01X6485519Y-3595922D01*
G01X6400800Y-4191000D02*
G01X6350000Y-4140200D01*
G01X6350000Y-3802134D01*
G01X6520865Y-3631269D01*
G01X7975600Y-5105400D02*
G01X7975600Y-4755804D01*
G01X7334596Y-4114800D01*
G01X7105996Y-3886200D02*
G01X7105996Y-3810000D01*
G01X6978996Y-3683000D01*
G01X6792163Y-3666633D02*
G01X6741363Y-3615833D01*
G01X6607029Y-3615833D01*
G01X6556229Y-3666633D01*
G01X8229600Y-5359400D02*
G01X8229600Y-5492404D01*
G01X8153400Y-5568604D01*
G01X8001000Y-5568604D01*
G01X7848600Y-5416204D01*
G01X7848600Y-5314604D01*
G01X7772400Y-5238404D01*
G01X7670800Y-5238404D01*
G01X7594600Y-5162204D01*
G01X7594600Y-5060604D01*
G01X7086600Y-4552604D01*
G01X7061200Y-4552604D01*
G01X6807200Y-4171604D02*
G01X6781800Y-4197004D01*
G01X6705600Y-4197004D01*
G01X6489976Y-3981379D01*
G01X6489976Y-3803579D01*
G01X6591576Y-3701979D01*
G01X6556744Y-3832940D02*
G01X6556744Y-3807540D01*
G01X6626940Y-3737344D01*
G01X5486400Y-2133600D02*
G01X6197600Y-2844800D01*
G01X6575846Y-2844800D01*
G01X6663956Y-2932910D01*
G01X6704810Y-3051544D02*
G01X6704810Y-3044456D01*
G01X6628610Y-2968256D01*
G01X4412615Y-4739641D02*
G01X4361815Y-4790441D01*
G01X4387215Y-4815841D01*
G01X4387215Y-5406085D01*
G01X4259707Y-5533593D01*
G01X3828415Y-4257041D02*
G01X3596641Y-4257041D01*
G01X3479800Y-4140200D01*
G01X4133215Y-4561841D02*
G01X4133215Y-4536441D01*
G01X4209415Y-4460241D01*
G01X7292043Y-3377269D02*
G01X7317443Y-3351869D01*
G01X7520643Y-3351869D01*
G01X7774643Y-3605869D02*
G01X7698443Y-3682069D01*
G01X7625265Y-3682069D01*
G01X7574465Y-3631269D01*
G01X6911452Y-2685414D02*
G01X6962252Y-2736214D01*
G01X6962252Y-2914014D01*
G01X6479652Y-3396614D01*
G01X6403452Y-3396614D01*
G01X6124052Y-3676014D01*
G01X6124052Y-4040240D01*
G01X6073252Y-4091040D01*
G01X5819252Y-4268840D02*
G01X5819252Y-4345040D01*
G01X5792089Y-4372204D01*
G01X5243065Y-3921597D02*
G01X5572100Y-4250632D01*
G01X5572100Y-4372204D01*
G01X5572100Y-4250632D02*
G01X5597500Y-4225232D01*
G01X7426300Y-3488632D02*
G01X7451700Y-3463232D01*
G01X7618541Y-3463232D01*
G01X7680521Y-3525212D01*
G01X5244699Y-3685428D02*
G01X5397099Y-3533028D01*
G01X5651099Y-3533028D01*
G01X5752699Y-3634628D01*
G01X5752699Y-3761628D01*
G01X5778099Y-3787028D01*
G01X5955899Y-3787028D01*
G01X6012104Y-3843233D02*
G01X6012104Y-4372204D01*
G01X5981299Y-3812428D02*
G01X6057499Y-3736228D01*
G01X6649318Y-3439048D02*
G01X6928718Y-3439048D01*
G01X7360518Y-3439048D02*
G01X7385918Y-3413648D01*
G01X7639686Y-3413648D01*
G01X7715886Y-3489848D01*
G01X6110522Y-3135078D02*
G01X6135922Y-3135078D01*
G01X6313722Y-3312878D01*
G01X6436389Y-3312878D01*
G01X6537989Y-3211278D01*
G01X6537989Y-3160478D01*
G01X6487189Y-3109678D01*
G01X6331586Y-4553586D02*
G01X6382386Y-4604386D01*
G01X6814186Y-4604386D01*
G01X7042786Y-4375786D01*
G01X7042786Y-4162948D01*
G01X7185548Y-4020186D01*
G01X5421918Y-3595082D02*
G01X5421918Y-3976082D01*
G01X5498118Y-4052282D01*
G01X5574318Y-4052282D01*
G01X6564918Y-3417282D02*
G01X6768118Y-3214082D01*
G01X6945918Y-3214082D01*
G01X7174518Y-3214082D02*
G01X7250718Y-3290282D01*
G01X7580918Y-3290282D01*
G01X7606318Y-3264882D01*
G01X7665086Y-3264882D02*
G01X7715886Y-3214082D01*
G01X7657118Y-3264882D02*
G01X7657118Y-3315682D01*
G01X7885718Y-3544282D01*
G01X7911118Y-3544282D01*
G01X8546118Y-4179282D02*
G01X8546118Y-4236242D01*
G01X8734288Y-4424412D01*
G01X3691903Y-2413394D02*
G01X3768103Y-2413394D01*
G01X3793503Y-2438794D01*
G01X3793503Y-2489594D01*
G01X3768103Y-2514994D01*
G01X3693503Y-2514994D01*
G01X3691903Y-2513393D01*
G01X3691903Y-2363406D02*
G01X3615703Y-2363406D01*
G01X3590303Y-2388806D01*
G01X3590303Y-2439606D01*
G01X3615703Y-2465006D01*
G01X3690303Y-2465006D01*
G01X3691903Y-2463406D01*
G01X7177787Y-3312702D02*
G01X7126987Y-3261902D01*
G01X7076187Y-3211102D01*
G01X5780787Y-3490502D02*
G01X5374387Y-3490502D01*
G01X5239625Y-3490502D01*
G01X4379773Y-3105114D02*
G01X4506773Y-3105114D01*
G01X4778893Y-3105114D01*
G01X4062517Y-2179259D02*
G01X4062517Y-2128459D01*
G01X4062517Y-1899859D01*
G01X4062517Y-1893618D01*
G01X4443517Y-2915859D02*
G01X4316517Y-2915859D01*
G01X4187228Y-2915859D01*
G01X4731131Y-4739641D02*
G01X4858131Y-4866641D01*
G01X4909693Y-4918203D01*
G01X5757494Y-4486811D02*
G01X6265494Y-4486811D01*
G01X6727701Y-4486811D01*
G01X7332705Y-1823659D02*
G01X7332705Y-1874459D01*
G01X7332705Y-1950659D01*
G01X7307305Y-1976059D01*
G01X7281905Y-2001459D01*
G01X7863568Y-4141206D02*
G01X7914368Y-4141206D01*
G01X8032181Y-4141206D01*
G01X8477697Y-4310667D02*
G01X8477697Y-4056667D01*
G01X8477697Y-3963896D01*
G01X8477067Y-3070098D02*
G01X8477067Y-2511298D01*
G01X8477067Y-2313539D01*
G01X8528497Y-4107467D02*
G01X9265097Y-4107467D01*
G01X9312007Y-4107467D01*
G01X4361815Y-4790441D02*
G01X4133215Y-4561841D01*
G01X3828415Y-4257041D01*
G01X5955899Y-3787028D02*
G01X5981299Y-3812428D01*
G01X6012104Y-3843233D01*
G01X7606318Y-3264882D02*
G01X7657118Y-3264882D01*
G01X7665086Y-3264882D01*
G01X3886200Y-2400300D02*
G01X3805355Y-2400300D01*
G01X3698990Y-2370494D02*
G01X3691903Y-2363406D01*
G01X3805355Y-2400300D02*
G01X3775548Y-2370494D01*
G01X3698990Y-2370494D01*
G01X3886200Y-2540000D02*
G01X3843909Y-2540000D01*
G01X3793503Y-2489594D01*
G01X4660900Y-1828800D02*
G01X4660900Y-1704130D01*
G01X4663230Y-1701800D01*
G01X4572851Y-1701800D02*
G01X4663230Y-1701800D01*
G01X6578600Y-1701800D01*
G01X4660900Y-1562100D02*
G01X4660900Y-1642398D01*
G01X4664361Y-1645859D01*
G01X4316517Y-1645859D02*
G01X4664361Y-1645859D01*
G01X7154905Y-1645859D01*
G01X5041900Y-3327400D02*
G01X5114960Y-3327400D01*
G01X5177985Y-3264374D01*
G01X5374387Y-3460777D02*
G01X5177985Y-3264374D01*
G01X4783811Y-2870200D01*
G01X6210300Y-4195044D02*
G01X6210300Y-3658992D01*
G01X6379444Y-3489848D01*
G01X6122086Y-4372204D02*
G01X6122086Y-4283258D01*
G01X6210300Y-4195044D01*
G01X8539100Y-4745100D02*
G01X8564500Y-4745100D01*
G01X8856600Y-5037200D01*
G01X7866000Y-5545200D02*
G01X7739000Y-5545200D01*
G01X7586600Y-5392800D01*
G01X9034400Y-5494400D02*
G01X8970900Y-5494400D01*
G01X8869300Y-5596000D01*
G04 Track End*

M02*

