G04 Layer: DrillDrawingLayer*
G04 EasyEDA Pro v3.2.148, 2026-07-30 20:47:14*
G04 Gerber Generator version 0.3*
G04 Scale: 100 percent, Rotated: No, Reflected: No*
G04 Dimensions in millimeters*
G04 Leading zeros omitted, absolute positions, 4 integers and 5 decimals*
G04 Generated by one-click*
G04 Object Configs: Pad,Via,Track,Text,Image,Dimension,BoardOutline,BoardCutout,CopperFilled,SolidRegion,FPCStiffener,Line,PlaneZone,ComponentProperty,ComponentSilkscreen,TearDrop*
G04 Layer Configs: 1,2,3,4,5,6,7,8,9,10,11,13,14,56*
G04 Copper Areas: 0*
%FSLAX45Y45*%
%MOMM*%
%AMIconRect*4,1,4,0.28,-0.28,-0.28,-0.28,-0.28,0.28,0.28,0.28,0.28,-0.28,0*4,0,4,0.233333,-0.233333,0.233333,0.233333,-0.233333,0.233333,-0.233333,-0.233333,0.233333,-0.233333,0*%
%AMIconTriangle*4,1,3,-0.339593,0.240473,0.339593,0.240473,0,-0.37884,-0.339593,0.240473,0*4,0,3,-0.265673,0.19404,0,-0.27342,0.266233,0.19404,-0.265673,0.19404,0*%
%AMIconStar6*4,1,12,0.12068,0.20888,0.298527,0.172713,0.241313,0,0.298527,-0.17206,0.12068,-0.208227,0,-0.344073,-0.120073,-0.208227,-0.298573,-0.17206,-0.240707,0,-0.298573,0.17206,-0.120073,0.20888,0,0.344073,0.12068,0.20888,0*4,0,12,-0.000467,0.273467,-0.090067,0.171733,-0.237533,0.136733,-0.193667,-0.007467,-0.237533,-0.1372,-0.090067,-0.171733,-0.000467,-0.273933,0.090067,-0.171733,0.237533,-0.1372,0.194133,0.007,0.237533,0.1372,0.090067,0.171267,-0.000467,0.273467,0*%
%AMIconStar4*4,1,8,-0.311733,0.311733,0,0.202533,0.311733,0.311733,0.202533,0,0.311733,-0.311733,0,-0.202533,-0.304407,-0.311733,-0.202533,0,-0.311733,0.311733,0*4,0,8,0.233333,-0.233333,0.1512,0,0.233333,0.233333,0,0.1512,-0.233333,0.233333,-0.1512,0,-0.233333,-0.233333,0,-0.1512,0.233333,-0.233333,0*%
%AMIconPlus*4,1,12,0.1736,-0.28,-0.1736,-0.28,-0.1736,-0.1736,-0.28,-0.1736,-0.28,0.1736,-0.1736,0.1736,-0.1736,0.28,0.1736,0.28,0.1736,0.1736,0.28,0.1736,0.28,-0.1736,0.1736,-0.1736,0.1736,-0.28,0*4,0,12,0.126933,-0.233333,0.126933,-0.126933,0.233333,-0.126933,0.233333,0.126933,0.126933,0.126933,0.126933,0.233333,-0.126933,0.233333,-0.126933,0.126933,-0.233333,0.126933,-0.233333,-0.126933,-0.126933,-0.126933,-0.126933,-0.233333,0.126933,-0.233333,0*%
%AMIconX*4,1,16,0.28,-0.28,0.076347,-0.28,0,-0.203653,-0.076347,-0.28,-0.28,-0.28,-0.28,-0.076347,-0.203653,0,-0.28,0.076347,-0.28,0.28,-0.076347,0.28,0,0.203653,0.076347,0.28,0.28,0.28,0.28,0.076347,0.203653,0,0.28,-0.076347,0.28,-0.28,0*4,0,16,0.23352,-0.23296,0.23352,-0.095853,0.137107,0.000093,0.23352,0.095853,0.23352,0.2331,0.095853,0.2331,0,0.137107,-0.095853,0.2331,-0.23352,0.2331,-0.23352,0.095853,-0.137107,0.000093,-0.23352,-0.095853,-0.23352,-0.23296,-0.095853,-0.23296,0,-0.137107,0.095853,-0.23296,0.23352,-0.23296,0*%
%ADD10IconRect*%
%ADD11C,0.616X0.522667*%
%ADD12IconTriangle*%
%ADD13IconStar6*%
%ADD14IconStar4*%
%ADD15IconPlus*%
%ADD16IconX*%
%ADD17C,0.2032*%
%ADD18C,0.254*%
G75*


G04 Drill Drawing Start*
G54D10*
G01X3636902Y-2870909D03*
G01X3636904Y-2005907D03*
G54D11*
G01X3216897Y-2870898D03*
G01X3216897Y-2005901D03*
G54D12*
G01X5512105Y-5482209D03*
G01X6312103Y-5482209D03*
G54D13*
G01X3584893Y-2727414D03*
G01X3584893Y-2149411D03*
G54D14*
G01X3479800Y-4140200D03*
G01X3479800Y-3886200D03*
G01X3733800Y-4140200D03*
G01X3733800Y-3886200D03*
G01X3987800Y-4140200D03*
G01X3987800Y-3886200D03*
G01X4241800Y-4140200D03*
G01X4241800Y-3886200D03*
G01X4495800Y-4140200D03*
G01X4495800Y-3886200D03*
G54D15*
G01X4259699Y-5533601D03*
G01X4259699Y-5083599D03*
G01X4909701Y-5533601D03*
G01X4909701Y-5083599D03*
G01X4978400Y-2133600D03*
G01X4978400Y-1879600D03*
G01X5232400Y-2133600D03*
G01X5232400Y-1879600D03*
G01X5486400Y-2133600D03*
G01X5486400Y-1879600D03*
G01X5740400Y-2133600D03*
G01X5740400Y-1879600D03*
G01X5994400Y-2133600D03*
G01X5994400Y-1879600D03*
G01X6248400Y-2133600D03*
G01X6248400Y-1879600D03*
G01X6502400Y-2133600D03*
G01X6502400Y-1879600D03*
G01X6756400Y-2133600D03*
G01X6756400Y-1879600D03*
G01X7467600Y-5359400D03*
G01X7467600Y-5105400D03*
G01X7721600Y-5359400D03*
G01X7721600Y-5105400D03*
G01X7975600Y-5359400D03*
G01X7975600Y-5105400D03*
G01X8229600Y-5359400D03*
G01X8229600Y-5105400D03*
G01X8483600Y-5359400D03*
G01X8483600Y-5105400D03*
G01X8737600Y-5359400D03*
G01X8737600Y-5105400D03*
G01X8991600Y-5359400D03*
G01X8991600Y-5105400D03*
G01X9105900Y-3530600D03*
G01X9105900Y-3276600D03*
G01X9105900Y-3022600D03*
G01X9105900Y-2768600D03*
G01X9105900Y-2514600D03*
G01X9105900Y-2260600D03*
G01X9105900Y-2006600D03*
G01X9105900Y-1752600D03*
G01X9245600Y-5359400D03*
G01X9245600Y-5105400D03*
G01X9359900Y-3530600D03*
G01X9359900Y-3276600D03*
G01X9359900Y-3022600D03*
G01X9359900Y-2768600D03*
G01X9359900Y-2514600D03*
G01X9359900Y-2260600D03*
G01X9359900Y-2006600D03*
G01X9359900Y-1752600D03*
G54D16*
G01X3930084Y-2198408D03*
G01X4209415Y-4460241D03*
G01X4209484Y-2198408D03*
G01X4379773Y-2978297D03*
G01X4495800Y-3022600D03*
G01X5105400Y-3048000D03*
G01X5421918Y-3595082D03*
G01X5574318Y-4052282D03*
G01X5597500Y-4225232D03*
G01X5682544Y-3690346D03*
G01X5819252Y-4268840D03*
G01X5926200Y-1998600D03*
G01X6057499Y-3736228D03*
G01X6070600Y-3200400D03*
G01X6073252Y-4091040D03*
G01X6110522Y-3135078D03*
G01X6187187Y-3287302D03*
G01X6248400Y-3073400D03*
G01X6324600Y-3088509D03*
G01X6331586Y-4553586D03*
G01X6375400Y-3657600D03*
G01X6400800Y-4191000D03*
G01X6400800Y-2641600D03*
G01X6414808Y-3835400D03*
G01X6446335Y-2997200D03*
G01X6522535Y-2565400D03*
G01X6556744Y-3832940D03*
G01X6564918Y-3417282D03*
G01X6599667Y-3175000D03*
G01X6604000Y-2743200D03*
G01X6621450Y-3886200D03*
G01X6649318Y-3439048D03*
G01X6704810Y-3051544D03*
G01X6705600Y-4343400D03*
G01X6705600Y-2565400D03*
G01X6731000Y-3993804D03*
G01X6732997Y-4132797D03*
G01X6792163Y-3666633D03*
G01X6807200Y-4171604D03*
G01X6821208Y-3525212D03*
G01X6846090Y-3721890D03*
G01X6850565Y-3802565D03*
G01X6858000Y-4241800D03*
G01X6880889Y-2867689D03*
G01X6883400Y-4165600D03*
G01X6896100Y-2540000D03*
G01X6900850Y-4622800D03*
G01X6915271Y-3873275D03*
G01X6928718Y-3439048D03*
G01X6945918Y-3214082D03*
G01X6959600Y-4070004D03*
G01X6972300Y-2641600D03*
G01X6977000Y-4529200D03*
G01X6978996Y-3683000D03*
G01X7061200Y-4552604D03*
G01X7061200Y-3670075D03*
G01X7101587Y-3287302D03*
G01X7105996Y-3886200D03*
G01X7112000Y-4343400D03*
G01X7160148Y-2632944D03*
G01X7162800Y-3746275D03*
G01X7174518Y-3214082D03*
G01X7256505Y-3754059D03*
G01X7292043Y-3377269D03*
G01X7321479Y-2971800D03*
G01X7334596Y-4114800D03*
G01X7353300Y-2641600D03*
G01X7360518Y-3439048D03*
G01X7392190Y-3042786D03*
G01X7422581Y-3608296D03*
G01X7426300Y-3488632D03*
G01X7493000Y-3530600D03*
G01X7520643Y-3351869D03*
G01X7568975Y-3219571D03*
G01X7586705Y-3804859D03*
G01X7713705Y-3991344D03*
G01X7734300Y-3057207D03*
G01X7774643Y-3605869D03*
G01X7819888Y-3090151D03*
G01X7861300Y-3352800D03*
G01X7866000Y-5545200D03*
G01X7879781Y-3786096D03*
G01X7881780Y-3450953D03*
G01X7911118Y-3544282D03*
G01X7958150Y-2976550D03*
G01X7988300Y-3048000D03*
G01X8026400Y-5486400D03*
G01X8059580Y-3984353D03*
G01X8064500Y-2870200D03*
G01X8288180Y-2445466D03*
G01X8305800Y-4572000D03*
G01X8483600Y-4495800D03*
G01X8539100Y-4745100D03*
G01X8546118Y-4179282D03*
G01X8556488Y-3254918D03*
G01X8869300Y-5596000D03*
G04 Drill Drawing End*

G04 Text Start*
G54D17*
G01X12181046Y-1453606D02*
G01X12181046Y-1573748D01*
G01X12181046Y-1453606D02*
G01X12226766Y-1573748D01*
G01X12272486Y-1453606D02*
G01X12226766Y-1573748D01*
G01X12272486Y-1453606D02*
G01X12272486Y-1573748D01*
G01X12388818Y-1493738D02*
G01X12388818Y-1573748D01*
G01X12388818Y-1510756D02*
G01X12377388Y-1499326D01*
G01X12365958Y-1493738D01*
G01X12348940Y-1493738D01*
G01X12337510Y-1499326D01*
G01X12326080Y-1510756D01*
G01X12320238Y-1528028D01*
G01X12320238Y-1539458D01*
G01X12326080Y-1556476D01*
G01X12337510Y-1567906D01*
G01X12348940Y-1573748D01*
G01X12365958Y-1573748D01*
G01X12377388Y-1567906D01*
G01X12388818Y-1556476D01*
G01X12436570Y-1493738D02*
G01X12436570Y-1573748D01*
G01X12436570Y-1528028D02*
G01X12442412Y-1510756D01*
G01X12453842Y-1499326D01*
G01X12465272Y-1493738D01*
G01X12482290Y-1493738D01*
G01X12530042Y-1453606D02*
G01X12530042Y-1573748D01*
G01X12587192Y-1493738D02*
G01X12530042Y-1550888D01*
G01X12552902Y-1528028D02*
G01X12593034Y-1573748D01*
G01X13718326Y-1482308D02*
G01X13712484Y-1470878D01*
G01X13701054Y-1459448D01*
G01X13689624Y-1453606D01*
G01X13666764Y-1453606D01*
G01X13655334Y-1459448D01*
G01X13643904Y-1470878D01*
G01X13638316Y-1482308D01*
G01X13632474Y-1499326D01*
G01X13632474Y-1528028D01*
G01X13638316Y-1545046D01*
G01X13643904Y-1556476D01*
G01X13655334Y-1567906D01*
G01X13666764Y-1573748D01*
G01X13689624Y-1573748D01*
G01X13701054Y-1567906D01*
G01X13712484Y-1556476D01*
G01X13718326Y-1545046D01*
G01X13794780Y-1493738D02*
G01X13783350Y-1499326D01*
G01X13771920Y-1510756D01*
G01X13766078Y-1528028D01*
G01X13766078Y-1539458D01*
G01X13771920Y-1556476D01*
G01X13783350Y-1567906D01*
G01X13794780Y-1573748D01*
G01X13811798Y-1573748D01*
G01X13823228Y-1567906D01*
G01X13834658Y-1556476D01*
G01X13840500Y-1539458D01*
G01X13840500Y-1528028D01*
G01X13834658Y-1510756D01*
G01X13823228Y-1499326D01*
G01X13811798Y-1493738D01*
G01X13794780Y-1493738D01*
G01X13888252Y-1493738D02*
G01X13888252Y-1550888D01*
G01X13894094Y-1567906D01*
G01X13905524Y-1573748D01*
G01X13922542Y-1573748D01*
G01X13933972Y-1567906D01*
G01X13951244Y-1550888D01*
G01X13951244Y-1493738D02*
G01X13951244Y-1573748D01*
G01X13998996Y-1493738D02*
G01X13998996Y-1573748D01*
G01X13998996Y-1516598D02*
G01X14016268Y-1499326D01*
G01X14027698Y-1493738D01*
G01X14044716Y-1493738D01*
G01X14056146Y-1499326D01*
G01X14061988Y-1516598D01*
G01X14061988Y-1573748D01*
G01X14127012Y-1453606D02*
G01X14127012Y-1550888D01*
G01X14132600Y-1567906D01*
G01X14144030Y-1573748D01*
G01X14155460Y-1573748D01*
G01X14109740Y-1493738D02*
G01X14149872Y-1493738D01*
G01X15126647Y-1470878D02*
G01X15115217Y-1459448D01*
G01X15098199Y-1453606D01*
G01X15075339Y-1453606D01*
G01X15058067Y-1459448D01*
G01X15046637Y-1470878D01*
G01X15046637Y-1482308D01*
G01X15052479Y-1493738D01*
G01X15058067Y-1499326D01*
G01X15069497Y-1505168D01*
G01X15103787Y-1516598D01*
G01X15115217Y-1522186D01*
G01X15121059Y-1528028D01*
G01X15126647Y-1539458D01*
G01X15126647Y-1556476D01*
G01X15115217Y-1567906D01*
G01X15098199Y-1573748D01*
G01X15075339Y-1573748D01*
G01X15058067Y-1567906D01*
G01X15046637Y-1556476D01*
G01X15174399Y-1453606D02*
G01X15180241Y-1459448D01*
G01X15185829Y-1453606D01*
G01X15180241Y-1448018D01*
G01X15174399Y-1453606D01*
G01X15180241Y-1493738D02*
G01X15180241Y-1573748D01*
G01X15296573Y-1493738D02*
G01X15233581Y-1573748D01*
G01X15233581Y-1493738D02*
G01X15296573Y-1493738D01*
G01X15233581Y-1573748D02*
G01X15296573Y-1573748D01*
G01X15344325Y-1528028D02*
G01X15412905Y-1528028D01*
G01X15412905Y-1516598D01*
G01X15407317Y-1505168D01*
G01X15401475Y-1499326D01*
G01X15390045Y-1493738D01*
G01X15373027Y-1493738D01*
G01X15361597Y-1499326D01*
G01X15350167Y-1510756D01*
G01X15344325Y-1528028D01*
G01X15344325Y-1539458D01*
G01X15350167Y-1556476D01*
G01X15361597Y-1567906D01*
G01X15373027Y-1573748D01*
G01X15390045Y-1573748D01*
G01X15401475Y-1567906D01*
G01X15412905Y-1556476D01*
G01X18883453Y-1453606D02*
G01X18883453Y-1573748D01*
G01X18883453Y-1453606D02*
G01X18935015Y-1453606D01*
G01X18952033Y-1459448D01*
G01X18957875Y-1465036D01*
G01X18963463Y-1476466D01*
G01X18963463Y-1493738D01*
G01X18957875Y-1505168D01*
G01X18952033Y-1510756D01*
G01X18935015Y-1516598D01*
G01X18883453Y-1516598D01*
G01X19011215Y-1453606D02*
G01X19011215Y-1573748D01*
G01X19127547Y-1493738D02*
G01X19127547Y-1573748D01*
G01X19127547Y-1510756D02*
G01X19116117Y-1499326D01*
G01X19104687Y-1493738D01*
G01X19087669Y-1493738D01*
G01X19076239Y-1499326D01*
G01X19064809Y-1510756D01*
G01X19058967Y-1528028D01*
G01X19058967Y-1539458D01*
G01X19064809Y-1556476D01*
G01X19076239Y-1567906D01*
G01X19087669Y-1573748D01*
G01X19104687Y-1573748D01*
G01X19116117Y-1567906D01*
G01X19127547Y-1556476D01*
G01X19192571Y-1453606D02*
G01X19192571Y-1550888D01*
G01X19198159Y-1567906D01*
G01X19209589Y-1573748D01*
G01X19221019Y-1573748D01*
G01X19175299Y-1493738D02*
G01X19215431Y-1493738D01*
G01X19268771Y-1528028D02*
G01X19337351Y-1528028D01*
G01X19337351Y-1516598D01*
G01X19331763Y-1505168D01*
G01X19325921Y-1499326D01*
G01X19314491Y-1493738D01*
G01X19297473Y-1493738D01*
G01X19286043Y-1499326D01*
G01X19274613Y-1510756D01*
G01X19268771Y-1528028D01*
G01X19268771Y-1539458D01*
G01X19274613Y-1556476D01*
G01X19286043Y-1567906D01*
G01X19297473Y-1573748D01*
G01X19314491Y-1573748D01*
G01X19325921Y-1567906D01*
G01X19337351Y-1556476D01*
G01X19453683Y-1453606D02*
G01X19453683Y-1573748D01*
G01X19453683Y-1510756D02*
G01X19442253Y-1499326D01*
G01X19430823Y-1493738D01*
G01X19413805Y-1493738D01*
G01X19402375Y-1499326D01*
G01X19390945Y-1510756D01*
G01X19385103Y-1528028D01*
G01X19385103Y-1539458D01*
G01X19390945Y-1556476D01*
G01X19402375Y-1567906D01*
G01X19413805Y-1573748D01*
G01X19430823Y-1573748D01*
G01X19442253Y-1567906D01*
G01X19453683Y-1556476D01*
G01X20424870Y-1470878D02*
G01X20413440Y-1459448D01*
G01X20396422Y-1453606D01*
G01X20373562Y-1453606D01*
G01X20356290Y-1459448D01*
G01X20344860Y-1470878D01*
G01X20344860Y-1482308D01*
G01X20350702Y-1493738D01*
G01X20356290Y-1499326D01*
G01X20367720Y-1505168D01*
G01X20402010Y-1516598D01*
G01X20413440Y-1522186D01*
G01X20419282Y-1528028D01*
G01X20424870Y-1539458D01*
G01X20424870Y-1556476D01*
G01X20413440Y-1567906D01*
G01X20396422Y-1573748D01*
G01X20373562Y-1573748D01*
G01X20356290Y-1567906D01*
G01X20344860Y-1556476D01*
G01X20472622Y-1453606D02*
G01X20472622Y-1573748D01*
G01X20472622Y-1516598D02*
G01X20489894Y-1499326D01*
G01X20501324Y-1493738D01*
G01X20518342Y-1493738D01*
G01X20529772Y-1499326D01*
G01X20535614Y-1516598D01*
G01X20535614Y-1573748D01*
G01X20651946Y-1493738D02*
G01X20651946Y-1573748D01*
G01X20651946Y-1510756D02*
G01X20640516Y-1499326D01*
G01X20629086Y-1493738D01*
G01X20612068Y-1493738D01*
G01X20600638Y-1499326D01*
G01X20589208Y-1510756D01*
G01X20583366Y-1528028D01*
G01X20583366Y-1539458D01*
G01X20589208Y-1556476D01*
G01X20600638Y-1567906D01*
G01X20612068Y-1573748D01*
G01X20629086Y-1573748D01*
G01X20640516Y-1567906D01*
G01X20651946Y-1556476D01*
G01X20699698Y-1493738D02*
G01X20699698Y-1613626D01*
G01X20699698Y-1510756D02*
G01X20711128Y-1499326D01*
G01X20722558Y-1493738D01*
G01X20739830Y-1493738D01*
G01X20751260Y-1499326D01*
G01X20762690Y-1510756D01*
G01X20768278Y-1528028D01*
G01X20768278Y-1539458D01*
G01X20762690Y-1556476D01*
G01X20751260Y-1567906D01*
G01X20739830Y-1573748D01*
G01X20722558Y-1573748D01*
G01X20711128Y-1567906D01*
G01X20699698Y-1556476D01*
G01X20816030Y-1528028D02*
G01X20884610Y-1528028D01*
G01X20884610Y-1516598D01*
G01X20879022Y-1505168D01*
G01X20873180Y-1499326D01*
G01X20861750Y-1493738D01*
G01X20844732Y-1493738D01*
G01X20833302Y-1499326D01*
G01X20821872Y-1510756D01*
G01X20816030Y-1528028D01*
G01X20816030Y-1539458D01*
G01X20821872Y-1556476D01*
G01X20833302Y-1567906D01*
G01X20844732Y-1573748D01*
G01X20861750Y-1573748D01*
G01X20873180Y-1567906D01*
G01X20884610Y-1556476D01*
G01X21776041Y-1453606D02*
G01X21821761Y-1573748D01*
G01X21867481Y-1453606D02*
G01X21821761Y-1573748D01*
G01X21915233Y-1453606D02*
G01X21921075Y-1459448D01*
G01X21926663Y-1453606D01*
G01X21921075Y-1448018D01*
G01X21915233Y-1453606D01*
G01X21921075Y-1493738D02*
G01X21921075Y-1573748D01*
G01X22042995Y-1493738D02*
G01X22042995Y-1573748D01*
G01X22042995Y-1510756D02*
G01X22031565Y-1499326D01*
G01X22020135Y-1493738D01*
G01X22003117Y-1493738D01*
G01X21991687Y-1499326D01*
G01X21980257Y-1510756D01*
G01X21974415Y-1528028D01*
G01X21974415Y-1539458D01*
G01X21980257Y-1556476D01*
G01X21991687Y-1567906D01*
G01X22003117Y-1573748D01*
G01X22020135Y-1573748D01*
G01X22031565Y-1567906D01*
G01X22042995Y-1556476D01*
G01X22193617Y-1430746D02*
G01X22090747Y-1613626D01*
G01X22241369Y-1453606D02*
G01X22241369Y-1573748D01*
G01X22241369Y-1453606D02*
G01X22292931Y-1453606D01*
G01X22309949Y-1459448D01*
G01X22315791Y-1465036D01*
G01X22321379Y-1476466D01*
G01X22321379Y-1493738D01*
G01X22315791Y-1505168D01*
G01X22309949Y-1510756D01*
G01X22292931Y-1516598D01*
G01X22241369Y-1516598D01*
G01X22437711Y-1493738D02*
G01X22437711Y-1573748D01*
G01X22437711Y-1510756D02*
G01X22426281Y-1499326D01*
G01X22414851Y-1493738D01*
G01X22397833Y-1493738D01*
G01X22386403Y-1499326D01*
G01X22374973Y-1510756D01*
G01X22369131Y-1528028D01*
G01X22369131Y-1539458D01*
G01X22374973Y-1556476D01*
G01X22386403Y-1567906D01*
G01X22397833Y-1573748D01*
G01X22414851Y-1573748D01*
G01X22426281Y-1567906D01*
G01X22437711Y-1556476D01*
G01X22554043Y-1453606D02*
G01X22554043Y-1573748D01*
G01X22554043Y-1510756D02*
G01X22542613Y-1499326D01*
G01X22531183Y-1493738D01*
G01X22514165Y-1493738D01*
G01X22502735Y-1499326D01*
G01X22491305Y-1510756D01*
G01X22485463Y-1528028D01*
G01X22485463Y-1539458D01*
G01X22491305Y-1556476D01*
G01X22502735Y-1567906D01*
G01X22514165Y-1573748D01*
G01X22531183Y-1573748D01*
G01X22542613Y-1567906D01*
G01X22554043Y-1556476D01*
G01X23445220Y-1453606D02*
G01X23445220Y-1573748D01*
G01X23445220Y-1453606D02*
G01X23496782Y-1453606D01*
G01X23513800Y-1459448D01*
G01X23519642Y-1465036D01*
G01X23525230Y-1476466D01*
G01X23525230Y-1493738D01*
G01X23519642Y-1505168D01*
G01X23513800Y-1510756D01*
G01X23496782Y-1516598D01*
G01X23445220Y-1516598D01*
G01X23641562Y-1493738D02*
G01X23641562Y-1573748D01*
G01X23641562Y-1510756D02*
G01X23630132Y-1499326D01*
G01X23618702Y-1493738D01*
G01X23601684Y-1493738D01*
G01X23590254Y-1499326D01*
G01X23578824Y-1510756D01*
G01X23572982Y-1528028D01*
G01X23572982Y-1539458D01*
G01X23578824Y-1556476D01*
G01X23590254Y-1567906D01*
G01X23601684Y-1573748D01*
G01X23618702Y-1573748D01*
G01X23630132Y-1567906D01*
G01X23641562Y-1556476D01*
G01X23757894Y-1453606D02*
G01X23757894Y-1573748D01*
G01X23757894Y-1510756D02*
G01X23746464Y-1499326D01*
G01X23735034Y-1493738D01*
G01X23718016Y-1493738D01*
G01X23706586Y-1499326D01*
G01X23695156Y-1510756D01*
G01X23689314Y-1528028D01*
G01X23689314Y-1539458D01*
G01X23695156Y-1556476D01*
G01X23706586Y-1567906D01*
G01X23718016Y-1573748D01*
G01X23735034Y-1573748D01*
G01X23746464Y-1567906D01*
G01X23757894Y-1556476D01*
G01X24013672Y-1470878D02*
G01X24002242Y-1459448D01*
G01X23985224Y-1453606D01*
G01X23962364Y-1453606D01*
G01X23945092Y-1459448D01*
G01X23933662Y-1470878D01*
G01X23933662Y-1482308D01*
G01X23939504Y-1493738D01*
G01X23945092Y-1499326D01*
G01X23956522Y-1505168D01*
G01X23990812Y-1516598D01*
G01X24002242Y-1522186D01*
G01X24008084Y-1528028D01*
G01X24013672Y-1539458D01*
G01X24013672Y-1556476D01*
G01X24002242Y-1567906D01*
G01X23985224Y-1573748D01*
G01X23962364Y-1573748D01*
G01X23945092Y-1567906D01*
G01X23933662Y-1556476D01*
G01X24061424Y-1453606D02*
G01X24061424Y-1573748D01*
G01X24061424Y-1516598D02*
G01X24078696Y-1499326D01*
G01X24090126Y-1493738D01*
G01X24107144Y-1493738D01*
G01X24118574Y-1499326D01*
G01X24124416Y-1516598D01*
G01X24124416Y-1573748D01*
G01X24240748Y-1493738D02*
G01X24240748Y-1573748D01*
G01X24240748Y-1510756D02*
G01X24229318Y-1499326D01*
G01X24217888Y-1493738D01*
G01X24200870Y-1493738D01*
G01X24189440Y-1499326D01*
G01X24178010Y-1510756D01*
G01X24172168Y-1528028D01*
G01X24172168Y-1539458D01*
G01X24178010Y-1556476D01*
G01X24189440Y-1567906D01*
G01X24200870Y-1573748D01*
G01X24217888Y-1573748D01*
G01X24229318Y-1567906D01*
G01X24240748Y-1556476D01*
G01X24288500Y-1493738D02*
G01X24288500Y-1613626D01*
G01X24288500Y-1510756D02*
G01X24299930Y-1499326D01*
G01X24311360Y-1493738D01*
G01X24328632Y-1493738D01*
G01X24340062Y-1499326D01*
G01X24351492Y-1510756D01*
G01X24357080Y-1528028D01*
G01X24357080Y-1539458D01*
G01X24351492Y-1556476D01*
G01X24340062Y-1567906D01*
G01X24328632Y-1573748D01*
G01X24311360Y-1573748D01*
G01X24299930Y-1567906D01*
G01X24288500Y-1556476D01*
G01X24404832Y-1528028D02*
G01X24473412Y-1528028D01*
G01X24473412Y-1516598D01*
G01X24467824Y-1505168D01*
G01X24461982Y-1499326D01*
G01X24450552Y-1493738D01*
G01X24433534Y-1493738D01*
G01X24422104Y-1499326D01*
G01X24410674Y-1510756D01*
G01X24404832Y-1528028D01*
G01X24404832Y-1539458D01*
G01X24410674Y-1556476D01*
G01X24422104Y-1567906D01*
G01X24433534Y-1573748D01*
G01X24450552Y-1573748D01*
G01X24461982Y-1567906D01*
G01X24473412Y-1556476D01*
G01X25364589Y-1453606D02*
G01X25364589Y-1573748D01*
G01X25364589Y-1573748D02*
G01X25433169Y-1573748D01*
G01X25549501Y-1493738D02*
G01X25549501Y-1573748D01*
G01X25549501Y-1510756D02*
G01X25538071Y-1499326D01*
G01X25526641Y-1493738D01*
G01X25509623Y-1493738D01*
G01X25498193Y-1499326D01*
G01X25486763Y-1510756D01*
G01X25480921Y-1528028D01*
G01X25480921Y-1539458D01*
G01X25486763Y-1556476D01*
G01X25498193Y-1567906D01*
G01X25509623Y-1573748D01*
G01X25526641Y-1573748D01*
G01X25538071Y-1567906D01*
G01X25549501Y-1556476D01*
G01X25603095Y-1493738D02*
G01X25637385Y-1573748D01*
G01X25671675Y-1493738D02*
G01X25637385Y-1573748D01*
G01X25625955Y-1596608D01*
G01X25614525Y-1608038D01*
G01X25603095Y-1613626D01*
G01X25597253Y-1613626D01*
G01X25719427Y-1528028D02*
G01X25788007Y-1528028D01*
G01X25788007Y-1516598D01*
G01X25782419Y-1505168D01*
G01X25776577Y-1499326D01*
G01X25765147Y-1493738D01*
G01X25748129Y-1493738D01*
G01X25736699Y-1499326D01*
G01X25725269Y-1510756D01*
G01X25719427Y-1528028D01*
G01X25719427Y-1539458D01*
G01X25725269Y-1556476D01*
G01X25736699Y-1567906D01*
G01X25748129Y-1573748D01*
G01X25765147Y-1573748D01*
G01X25776577Y-1567906D01*
G01X25788007Y-1556476D01*
G01X25835759Y-1493738D02*
G01X25835759Y-1573748D01*
G01X25835759Y-1528028D02*
G01X25841601Y-1510756D01*
G01X25853031Y-1499326D01*
G01X25864461Y-1493738D01*
G01X25881479Y-1493738D01*
G01X26057247Y-1453606D02*
G01X26057247Y-1573748D01*
G01X26057247Y-1453606D02*
G01X26108809Y-1453606D01*
G01X26125827Y-1459448D01*
G01X26131669Y-1465036D01*
G01X26137257Y-1476466D01*
G01X26137257Y-1493738D01*
G01X26131669Y-1505168D01*
G01X26125827Y-1510756D01*
G01X26108809Y-1516598D01*
G01X26057247Y-1516598D01*
G01X26253589Y-1493738D02*
G01X26253589Y-1573748D01*
G01X26253589Y-1510756D02*
G01X26242159Y-1499326D01*
G01X26230729Y-1493738D01*
G01X26213711Y-1493738D01*
G01X26202281Y-1499326D01*
G01X26190851Y-1510756D01*
G01X26185009Y-1528028D01*
G01X26185009Y-1539458D01*
G01X26190851Y-1556476D01*
G01X26202281Y-1567906D01*
G01X26213711Y-1573748D01*
G01X26230729Y-1573748D01*
G01X26242159Y-1567906D01*
G01X26253589Y-1556476D01*
G01X26301341Y-1453606D02*
G01X26307183Y-1459448D01*
G01X26312771Y-1453606D01*
G01X26307183Y-1448018D01*
G01X26301341Y-1453606D01*
G01X26307183Y-1493738D02*
G01X26307183Y-1573748D01*
G01X26360523Y-1493738D02*
G01X26360523Y-1573748D01*
G01X26360523Y-1528028D02*
G01X26366365Y-1510756D01*
G01X26377795Y-1499326D01*
G01X26389225Y-1493738D01*
G01X26406243Y-1493738D01*
G01X13638316Y-2062879D02*
G01X13638316Y-2057037D01*
G01X13643904Y-2045607D01*
G01X13649746Y-2040019D01*
G01X13661176Y-2034177D01*
G01X13684036Y-2034177D01*
G01X13695466Y-2040019D01*
G01X13701054Y-2045607D01*
G01X13706896Y-2057037D01*
G01X13706896Y-2068467D01*
G01X13701054Y-2079897D01*
G01X13689624Y-2097169D01*
G01X13632474Y-2154319D01*
G01X13712484Y-2154319D01*
G01X15052479Y-2062879D02*
G01X15052479Y-2057037D01*
G01X15058067Y-2045607D01*
G01X15063909Y-2040019D01*
G01X15075339Y-2034177D01*
G01X15098199Y-2034177D01*
G01X15109629Y-2040019D01*
G01X15115217Y-2045607D01*
G01X15121059Y-2057037D01*
G01X15121059Y-2068467D01*
G01X15115217Y-2079897D01*
G01X15103787Y-2097169D01*
G01X15046637Y-2154319D01*
G01X15126647Y-2154319D01*
G01X15185829Y-2034177D02*
G01X15248821Y-2034177D01*
G01X15214531Y-2079897D01*
G01X15231549Y-2079897D01*
G01X15242979Y-2085739D01*
G01X15248821Y-2091327D01*
G01X15254409Y-2108599D01*
G01X15254409Y-2120029D01*
G01X15248821Y-2137047D01*
G01X15237391Y-2148477D01*
G01X15220119Y-2154319D01*
G01X15203101Y-2154319D01*
G01X15185829Y-2148477D01*
G01X15180241Y-2142889D01*
G01X15174399Y-2131459D01*
G01X15308003Y-2125617D02*
G01X15302161Y-2131459D01*
G01X15308003Y-2137047D01*
G01X15313591Y-2131459D01*
G01X15308003Y-2125617D01*
G01X15429923Y-2051449D02*
G01X15424335Y-2040019D01*
G01X15407063Y-2034177D01*
G01X15395633Y-2034177D01*
G01X15378615Y-2040019D01*
G01X15367185Y-2057037D01*
G01X15361343Y-2085739D01*
G01X15361343Y-2114187D01*
G01X15367185Y-2137047D01*
G01X15378615Y-2148477D01*
G01X15395633Y-2154319D01*
G01X15401475Y-2154319D01*
G01X15418493Y-2148477D01*
G01X15429923Y-2137047D01*
G01X15435765Y-2120029D01*
G01X15435765Y-2114187D01*
G01X15429923Y-2097169D01*
G01X15418493Y-2085739D01*
G01X15401475Y-2079897D01*
G01X15395633Y-2079897D01*
G01X15378615Y-2085739D01*
G01X15367185Y-2097169D01*
G01X15361343Y-2114187D01*
G01X15483517Y-2074309D02*
G01X15546509Y-2154319D01*
G01X15546509Y-2074309D02*
G01X15483517Y-2154319D01*
G01X15662841Y-2034177D02*
G01X15605691Y-2034177D01*
G01X15600103Y-2085739D01*
G01X15605691Y-2079897D01*
G01X15622963Y-2074309D01*
G01X15639981Y-2074309D01*
G01X15657253Y-2079897D01*
G01X15668683Y-2091327D01*
G01X15674271Y-2108599D01*
G01X15674271Y-2120029D01*
G01X15668683Y-2137047D01*
G01X15657253Y-2148477D01*
G01X15639981Y-2154319D01*
G01X15622963Y-2154319D01*
G01X15605691Y-2148477D01*
G01X15600103Y-2142889D01*
G01X15594261Y-2131459D01*
G01X15796445Y-2074309D02*
G01X15790603Y-2091327D01*
G01X15779173Y-2102757D01*
G01X15762155Y-2108599D01*
G01X15756313Y-2108599D01*
G01X15739295Y-2102757D01*
G01X15727865Y-2091327D01*
G01X15722023Y-2074309D01*
G01X15722023Y-2068467D01*
G01X15727865Y-2051449D01*
G01X15739295Y-2040019D01*
G01X15756313Y-2034177D01*
G01X15762155Y-2034177D01*
G01X15779173Y-2040019D01*
G01X15790603Y-2051449D01*
G01X15796445Y-2074309D01*
G01X15796445Y-2102757D01*
G01X15790603Y-2131459D01*
G01X15779173Y-2148477D01*
G01X15762155Y-2154319D01*
G01X15750725Y-2154319D01*
G01X15733453Y-2148477D01*
G01X15727865Y-2137047D01*
G01X15850039Y-2125617D02*
G01X15844197Y-2131459D01*
G01X15850039Y-2137047D01*
G01X15855627Y-2131459D01*
G01X15850039Y-2125617D01*
G01X15903379Y-2057037D02*
G01X15914809Y-2051449D01*
G01X15932081Y-2034177D01*
G01X15932081Y-2154319D01*
G01X15979833Y-2074309D02*
G01X15979833Y-2154319D01*
G01X15979833Y-2097169D02*
G01X15997105Y-2079897D01*
G01X16008535Y-2074309D01*
G01X16025553Y-2074309D01*
G01X16036983Y-2079897D01*
G01X16042825Y-2097169D01*
G01X16042825Y-2154319D01*
G01X16042825Y-2097169D02*
G01X16059843Y-2079897D01*
G01X16071273Y-2074309D01*
G01X16088545Y-2074309D01*
G01X16099975Y-2079897D01*
G01X16105563Y-2097169D01*
G01X16105563Y-2154319D01*
G01X16153315Y-2034177D02*
G01X16159157Y-2040019D01*
G01X16164745Y-2034177D01*
G01X16159157Y-2028589D01*
G01X16153315Y-2034177D01*
G01X16159157Y-2074309D02*
G01X16159157Y-2154319D01*
G01X16212497Y-2034177D02*
G01X16212497Y-2154319D01*
G01X16300381Y-2011317D02*
G01X16288951Y-2022747D01*
G01X16277521Y-2040019D01*
G01X16266091Y-2062879D01*
G01X16260249Y-2091327D01*
G01X16260249Y-2114187D01*
G01X16266091Y-2142889D01*
G01X16277521Y-2165749D01*
G01X16288951Y-2182767D01*
G01X16300381Y-2194197D01*
G01X16382423Y-2034177D02*
G01X16365405Y-2040019D01*
G01X16353975Y-2057037D01*
G01X16348133Y-2085739D01*
G01X16348133Y-2102757D01*
G01X16353975Y-2131459D01*
G01X16365405Y-2148477D01*
G01X16382423Y-2154319D01*
G01X16393853Y-2154319D01*
G01X16411125Y-2148477D01*
G01X16422555Y-2131459D01*
G01X16428143Y-2102757D01*
G01X16428143Y-2085739D01*
G01X16422555Y-2057037D01*
G01X16411125Y-2040019D01*
G01X16393853Y-2034177D01*
G01X16382423Y-2034177D01*
G01X16481737Y-2125617D02*
G01X16475895Y-2131459D01*
G01X16481737Y-2137047D01*
G01X16487325Y-2131459D01*
G01X16481737Y-2125617D01*
G01X16603657Y-2051449D02*
G01X16598069Y-2040019D01*
G01X16580797Y-2034177D01*
G01X16569367Y-2034177D01*
G01X16552349Y-2040019D01*
G01X16540919Y-2057037D01*
G01X16535077Y-2085739D01*
G01X16535077Y-2114187D01*
G01X16540919Y-2137047D01*
G01X16552349Y-2148477D01*
G01X16569367Y-2154319D01*
G01X16575209Y-2154319D01*
G01X16592227Y-2148477D01*
G01X16603657Y-2137047D01*
G01X16609499Y-2120029D01*
G01X16609499Y-2114187D01*
G01X16603657Y-2097169D01*
G01X16592227Y-2085739D01*
G01X16575209Y-2079897D01*
G01X16569367Y-2079897D01*
G01X16552349Y-2085739D01*
G01X16540919Y-2097169D01*
G01X16535077Y-2114187D01*
G01X16691541Y-2034177D02*
G01X16674523Y-2040019D01*
G01X16663093Y-2057037D01*
G01X16657251Y-2085739D01*
G01X16657251Y-2102757D01*
G01X16663093Y-2131459D01*
G01X16674523Y-2148477D01*
G01X16691541Y-2154319D01*
G01X16702971Y-2154319D01*
G01X16720243Y-2148477D01*
G01X16731673Y-2131459D01*
G01X16737261Y-2102757D01*
G01X16737261Y-2085739D01*
G01X16731673Y-2057037D01*
G01X16720243Y-2040019D01*
G01X16702971Y-2034177D01*
G01X16691541Y-2034177D01*
G01X16819303Y-2034177D02*
G01X16802285Y-2040019D01*
G01X16790855Y-2057037D01*
G01X16785013Y-2085739D01*
G01X16785013Y-2102757D01*
G01X16790855Y-2131459D01*
G01X16802285Y-2148477D01*
G01X16819303Y-2154319D01*
G01X16830733Y-2154319D01*
G01X16848005Y-2148477D01*
G01X16859435Y-2131459D01*
G01X16865023Y-2102757D01*
G01X16865023Y-2085739D01*
G01X16859435Y-2057037D01*
G01X16848005Y-2040019D01*
G01X16830733Y-2034177D01*
G01X16819303Y-2034177D01*
G01X16912775Y-2074309D02*
G01X16975767Y-2154319D01*
G01X16975767Y-2074309D02*
G01X16912775Y-2154319D01*
G01X17023519Y-2057037D02*
G01X17034949Y-2051449D01*
G01X17052221Y-2034177D01*
G01X17052221Y-2154319D01*
G01X17105815Y-2125617D02*
G01X17099973Y-2131459D01*
G01X17105815Y-2137047D01*
G01X17111403Y-2131459D01*
G01X17105815Y-2125617D01*
G01X17227735Y-2034177D02*
G01X17170585Y-2034177D01*
G01X17164997Y-2085739D01*
G01X17170585Y-2079897D01*
G01X17187857Y-2074309D01*
G01X17204875Y-2074309D01*
G01X17222147Y-2079897D01*
G01X17233577Y-2091327D01*
G01X17239165Y-2108599D01*
G01X17239165Y-2120029D01*
G01X17233577Y-2137047D01*
G01X17222147Y-2148477D01*
G01X17204875Y-2154319D01*
G01X17187857Y-2154319D01*
G01X17170585Y-2148477D01*
G01X17164997Y-2142889D01*
G01X17159155Y-2131459D01*
G01X17321207Y-2034177D02*
G01X17304189Y-2040019D01*
G01X17292759Y-2057037D01*
G01X17286917Y-2085739D01*
G01X17286917Y-2102757D01*
G01X17292759Y-2131459D01*
G01X17304189Y-2148477D01*
G01X17321207Y-2154319D01*
G01X17332637Y-2154319D01*
G01X17349909Y-2148477D01*
G01X17361339Y-2131459D01*
G01X17366927Y-2102757D01*
G01X17366927Y-2085739D01*
G01X17361339Y-2057037D01*
G01X17349909Y-2040019D01*
G01X17332637Y-2034177D01*
G01X17321207Y-2034177D01*
G01X17448969Y-2034177D02*
G01X17431951Y-2040019D01*
G01X17420521Y-2057037D01*
G01X17414679Y-2085739D01*
G01X17414679Y-2102757D01*
G01X17420521Y-2131459D01*
G01X17431951Y-2148477D01*
G01X17448969Y-2154319D01*
G01X17460399Y-2154319D01*
G01X17477671Y-2148477D01*
G01X17489101Y-2131459D01*
G01X17494689Y-2102757D01*
G01X17494689Y-2085739D01*
G01X17489101Y-2057037D01*
G01X17477671Y-2040019D01*
G01X17460399Y-2034177D01*
G01X17448969Y-2034177D01*
G01X17542441Y-2074309D02*
G01X17542441Y-2154319D01*
G01X17542441Y-2097169D02*
G01X17559713Y-2079897D01*
G01X17571143Y-2074309D01*
G01X17588161Y-2074309D01*
G01X17599591Y-2079897D01*
G01X17605433Y-2097169D01*
G01X17605433Y-2154319D01*
G01X17605433Y-2097169D02*
G01X17622451Y-2079897D01*
G01X17633881Y-2074309D01*
G01X17651153Y-2074309D01*
G01X17662583Y-2079897D01*
G01X17668171Y-2097169D01*
G01X17668171Y-2154319D01*
G01X17715923Y-2074309D02*
G01X17715923Y-2154319D01*
G01X17715923Y-2097169D02*
G01X17733195Y-2079897D01*
G01X17744625Y-2074309D01*
G01X17761643Y-2074309D01*
G01X17773073Y-2079897D01*
G01X17778915Y-2097169D01*
G01X17778915Y-2154319D01*
G01X17778915Y-2097169D02*
G01X17795933Y-2079897D01*
G01X17807363Y-2074309D01*
G01X17824635Y-2074309D01*
G01X17836065Y-2079897D01*
G01X17841653Y-2097169D01*
G01X17841653Y-2154319D01*
G01X17889405Y-2011317D02*
G01X17900835Y-2022747D01*
G01X17912265Y-2040019D01*
G01X17923695Y-2062879D01*
G01X17929537Y-2091327D01*
G01X17929537Y-2114187D01*
G01X17923695Y-2142889D01*
G01X17912265Y-2165749D01*
G01X17900835Y-2182767D01*
G01X17889405Y-2194197D01*
G01X18883453Y-2034177D02*
G01X18883453Y-2154319D01*
G01X18883453Y-2034177D02*
G01X18935015Y-2034177D01*
G01X18952033Y-2040019D01*
G01X18957875Y-2045607D01*
G01X18963463Y-2057037D01*
G01X18963463Y-2074309D01*
G01X18957875Y-2085739D01*
G01X18952033Y-2091327D01*
G01X18935015Y-2097169D01*
G01X18883453Y-2097169D01*
G01X19051347Y-2034177D02*
G01X19051347Y-2154319D01*
G01X19011215Y-2034177D02*
G01X19091225Y-2034177D01*
G01X19138977Y-2034177D02*
G01X19138977Y-2154319D01*
G01X19218987Y-2034177D02*
G01X19218987Y-2154319D01*
G01X19138977Y-2091327D02*
G01X19218987Y-2091327D01*
G01X20424870Y-2051449D02*
G01X20413440Y-2040019D01*
G01X20396422Y-2034177D01*
G01X20373562Y-2034177D01*
G01X20356290Y-2040019D01*
G01X20344860Y-2051449D01*
G01X20344860Y-2062879D01*
G01X20350702Y-2074309D01*
G01X20356290Y-2079897D01*
G01X20367720Y-2085739D01*
G01X20402010Y-2097169D01*
G01X20413440Y-2102757D01*
G01X20419282Y-2108599D01*
G01X20424870Y-2120029D01*
G01X20424870Y-2137047D01*
G01X20413440Y-2148477D01*
G01X20396422Y-2154319D01*
G01X20373562Y-2154319D01*
G01X20356290Y-2148477D01*
G01X20344860Y-2137047D01*
G01X20472622Y-2034177D02*
G01X20472622Y-2154319D01*
G01X20549076Y-2074309D02*
G01X20537646Y-2079897D01*
G01X20526216Y-2091327D01*
G01X20520374Y-2108599D01*
G01X20520374Y-2120029D01*
G01X20526216Y-2137047D01*
G01X20537646Y-2148477D01*
G01X20549076Y-2154319D01*
G01X20566094Y-2154319D01*
G01X20577524Y-2148477D01*
G01X20588954Y-2137047D01*
G01X20594796Y-2120029D01*
G01X20594796Y-2108599D01*
G01X20588954Y-2091327D01*
G01X20577524Y-2079897D01*
G01X20566094Y-2074309D01*
G01X20549076Y-2074309D01*
G01X20659820Y-2034177D02*
G01X20659820Y-2131459D01*
G01X20665408Y-2148477D01*
G01X20676838Y-2154319D01*
G01X20688268Y-2154319D01*
G01X20642548Y-2074309D02*
G01X20682680Y-2074309D01*
G01X21776041Y-2034177D02*
G01X21776041Y-2154319D01*
G01X21776041Y-2034177D02*
G01X21827603Y-2034177D01*
G01X21844621Y-2040019D01*
G01X21850463Y-2045607D01*
G01X21856051Y-2057037D01*
G01X21856051Y-2074309D01*
G01X21850463Y-2085739D01*
G01X21844621Y-2091327D01*
G01X21827603Y-2097169D01*
G01X21776041Y-2097169D01*
G01X21972383Y-2074309D02*
G01X21972383Y-2154319D01*
G01X21972383Y-2091327D02*
G01X21960953Y-2079897D01*
G01X21949523Y-2074309D01*
G01X21932505Y-2074309D01*
G01X21921075Y-2079897D01*
G01X21909645Y-2091327D01*
G01X21903803Y-2108599D01*
G01X21903803Y-2120029D01*
G01X21909645Y-2137047D01*
G01X21921075Y-2148477D01*
G01X21932505Y-2154319D01*
G01X21949523Y-2154319D01*
G01X21960953Y-2148477D01*
G01X21972383Y-2137047D01*
G01X22088715Y-2034177D02*
G01X22088715Y-2154319D01*
G01X22088715Y-2091327D02*
G01X22077285Y-2079897D01*
G01X22065855Y-2074309D01*
G01X22048837Y-2074309D01*
G01X22037407Y-2079897D01*
G01X22025977Y-2091327D01*
G01X22020135Y-2108599D01*
G01X22020135Y-2120029D01*
G01X22025977Y-2137047D01*
G01X22037407Y-2148477D01*
G01X22048837Y-2154319D01*
G01X22065855Y-2154319D01*
G01X22077285Y-2148477D01*
G01X22088715Y-2137047D01*
G01X23479510Y-2034177D02*
G01X23468080Y-2040019D01*
G01X23456650Y-2051449D01*
G01X23451062Y-2062879D01*
G01X23445220Y-2079897D01*
G01X23445220Y-2108599D01*
G01X23451062Y-2125617D01*
G01X23456650Y-2137047D01*
G01X23468080Y-2148477D01*
G01X23479510Y-2154319D01*
G01X23502370Y-2154319D01*
G01X23513800Y-2148477D01*
G01X23525230Y-2137047D01*
G01X23531072Y-2125617D01*
G01X23536660Y-2108599D01*
G01X23536660Y-2079897D01*
G01X23531072Y-2062879D01*
G01X23525230Y-2051449D01*
G01X23513800Y-2040019D01*
G01X23502370Y-2034177D01*
G01X23479510Y-2034177D01*
G01X23584412Y-2074309D02*
G01X23618702Y-2154319D01*
G01X23652992Y-2074309D02*
G01X23618702Y-2154319D01*
G01X23769324Y-2074309D02*
G01X23769324Y-2154319D01*
G01X23769324Y-2091327D02*
G01X23757894Y-2079897D01*
G01X23746464Y-2074309D01*
G01X23729446Y-2074309D01*
G01X23718016Y-2079897D01*
G01X23706586Y-2091327D01*
G01X23700744Y-2108599D01*
G01X23700744Y-2120029D01*
G01X23706586Y-2137047D01*
G01X23718016Y-2148477D01*
G01X23729446Y-2154319D01*
G01X23746464Y-2154319D01*
G01X23757894Y-2148477D01*
G01X23769324Y-2137047D01*
G01X23817076Y-2034177D02*
G01X23817076Y-2154319D01*
G01X25404721Y-2034177D02*
G01X25404721Y-2154319D01*
G01X25364589Y-2034177D02*
G01X25444599Y-2034177D01*
G01X25521053Y-2074309D02*
G01X25509623Y-2079897D01*
G01X25498193Y-2091327D01*
G01X25492351Y-2108599D01*
G01X25492351Y-2120029D01*
G01X25498193Y-2137047D01*
G01X25509623Y-2148477D01*
G01X25521053Y-2154319D01*
G01X25538071Y-2154319D01*
G01X25549501Y-2148477D01*
G01X25560931Y-2137047D01*
G01X25566773Y-2120029D01*
G01X25566773Y-2108599D01*
G01X25560931Y-2091327D01*
G01X25549501Y-2079897D01*
G01X25538071Y-2074309D01*
G01X25521053Y-2074309D01*
G01X25614525Y-2074309D02*
G01X25614525Y-2194197D01*
G01X25614525Y-2091327D02*
G01X25625955Y-2079897D01*
G01X25637385Y-2074309D01*
G01X25654657Y-2074309D01*
G01X25666087Y-2079897D01*
G01X25677517Y-2091327D01*
G01X25683105Y-2108599D01*
G01X25683105Y-2120029D01*
G01X25677517Y-2137047D01*
G01X25666087Y-2148477D01*
G01X25654657Y-2154319D01*
G01X25637385Y-2154319D01*
G01X25625955Y-2148477D01*
G01X25614525Y-2137047D01*
G01X25858873Y-2034177D02*
G01X25858873Y-2154319D01*
G01X25858873Y-2154319D02*
G01X25927453Y-2154319D01*
G01X26043785Y-2074309D02*
G01X26043785Y-2154319D01*
G01X26043785Y-2091327D02*
G01X26032355Y-2079897D01*
G01X26020925Y-2074309D01*
G01X26003907Y-2074309D01*
G01X25992477Y-2079897D01*
G01X25981047Y-2091327D01*
G01X25975205Y-2108599D01*
G01X25975205Y-2120029D01*
G01X25981047Y-2137047D01*
G01X25992477Y-2148477D01*
G01X26003907Y-2154319D01*
G01X26020925Y-2154319D01*
G01X26032355Y-2148477D01*
G01X26043785Y-2137047D01*
G01X26097379Y-2074309D02*
G01X26131669Y-2154319D01*
G01X26165959Y-2074309D02*
G01X26131669Y-2154319D01*
G01X26120239Y-2177179D01*
G01X26108809Y-2188609D01*
G01X26097379Y-2194197D01*
G01X26091537Y-2194197D01*
G01X26213711Y-2108599D02*
G01X26282291Y-2108599D01*
G01X26282291Y-2097169D01*
G01X26276703Y-2085739D01*
G01X26270861Y-2079897D01*
G01X26259431Y-2074309D01*
G01X26242413Y-2074309D01*
G01X26230983Y-2079897D01*
G01X26219553Y-2091327D01*
G01X26213711Y-2108599D01*
G01X26213711Y-2120029D01*
G01X26219553Y-2137047D01*
G01X26230983Y-2148477D01*
G01X26242413Y-2154319D01*
G01X26259431Y-2154319D01*
G01X26270861Y-2148477D01*
G01X26282291Y-2137047D01*
G01X26330043Y-2074309D02*
G01X26330043Y-2154319D01*
G01X26330043Y-2108599D02*
G01X26335885Y-2091327D01*
G01X26347315Y-2079897D01*
G01X26358745Y-2074309D01*
G01X26375763Y-2074309D01*
G01X26423515Y-2102757D02*
G01X26526385Y-2102757D01*
G01X26574137Y-2034177D02*
G01X26574137Y-2154319D01*
G01X26574137Y-2034177D02*
G01X26625699Y-2034177D01*
G01X26642717Y-2040019D01*
G01X26648559Y-2045607D01*
G01X26654147Y-2057037D01*
G01X26654147Y-2068467D01*
G01X26648559Y-2079897D01*
G01X26642717Y-2085739D01*
G01X26625699Y-2091327D01*
G01X26574137Y-2091327D02*
G01X26625699Y-2091327D01*
G01X26642717Y-2097169D01*
G01X26648559Y-2102757D01*
G01X26654147Y-2114187D01*
G01X26654147Y-2131459D01*
G01X26648559Y-2142889D01*
G01X26642717Y-2148477D01*
G01X26625699Y-2154319D01*
G01X26574137Y-2154319D01*
G01X26730601Y-2074309D02*
G01X26719171Y-2079897D01*
G01X26707741Y-2091327D01*
G01X26701899Y-2108599D01*
G01X26701899Y-2120029D01*
G01X26707741Y-2137047D01*
G01X26719171Y-2148477D01*
G01X26730601Y-2154319D01*
G01X26747619Y-2154319D01*
G01X26759049Y-2148477D01*
G01X26770479Y-2137047D01*
G01X26776321Y-2120029D01*
G01X26776321Y-2108599D01*
G01X26770479Y-2091327D01*
G01X26759049Y-2079897D01*
G01X26747619Y-2074309D01*
G01X26730601Y-2074309D01*
G01X26841345Y-2034177D02*
G01X26841345Y-2131459D01*
G01X26846933Y-2148477D01*
G01X26858363Y-2154319D01*
G01X26869793Y-2154319D01*
G01X26824073Y-2074309D02*
G01X26864205Y-2074309D01*
G01X26934817Y-2034177D02*
G01X26934817Y-2131459D01*
G01X26940405Y-2148477D01*
G01X26951835Y-2154319D01*
G01X26963265Y-2154319D01*
G01X26917545Y-2074309D02*
G01X26957677Y-2074309D01*
G01X27039719Y-2074309D02*
G01X27028289Y-2079897D01*
G01X27016859Y-2091327D01*
G01X27011017Y-2108599D01*
G01X27011017Y-2120029D01*
G01X27016859Y-2137047D01*
G01X27028289Y-2148477D01*
G01X27039719Y-2154319D01*
G01X27056737Y-2154319D01*
G01X27068167Y-2148477D01*
G01X27079597Y-2137047D01*
G01X27085439Y-2120029D01*
G01X27085439Y-2108599D01*
G01X27079597Y-2091327D01*
G01X27068167Y-2079897D01*
G01X27056737Y-2074309D01*
G01X27039719Y-2074309D01*
G01X27133191Y-2074309D02*
G01X27133191Y-2154319D01*
G01X27133191Y-2097169D02*
G01X27150463Y-2079897D01*
G01X27161893Y-2074309D01*
G01X27178911Y-2074309D01*
G01X27190341Y-2079897D01*
G01X27196183Y-2097169D01*
G01X27196183Y-2154319D01*
G01X27196183Y-2097169D02*
G01X27213201Y-2079897D01*
G01X27224631Y-2074309D01*
G01X27241903Y-2074309D01*
G01X27253333Y-2079897D01*
G01X27258921Y-2097169D01*
G01X27258921Y-2154319D01*
G01X27434689Y-2034177D02*
G01X27434689Y-2154319D01*
G01X27434689Y-2154319D02*
G01X27503269Y-2154319D01*
G01X27619601Y-2074309D02*
G01X27619601Y-2154319D01*
G01X27619601Y-2091327D02*
G01X27608171Y-2079897D01*
G01X27596741Y-2074309D01*
G01X27579723Y-2074309D01*
G01X27568293Y-2079897D01*
G01X27556863Y-2091327D01*
G01X27551021Y-2108599D01*
G01X27551021Y-2120029D01*
G01X27556863Y-2137047D01*
G01X27568293Y-2148477D01*
G01X27579723Y-2154319D01*
G01X27596741Y-2154319D01*
G01X27608171Y-2148477D01*
G01X27619601Y-2137047D01*
G01X27673195Y-2074309D02*
G01X27707485Y-2154319D01*
G01X27741775Y-2074309D02*
G01X27707485Y-2154319D01*
G01X27696055Y-2177179D01*
G01X27684625Y-2188609D01*
G01X27673195Y-2194197D01*
G01X27667353Y-2194197D01*
G01X27789527Y-2108599D02*
G01X27858107Y-2108599D01*
G01X27858107Y-2097169D01*
G01X27852519Y-2085739D01*
G01X27846677Y-2079897D01*
G01X27835247Y-2074309D01*
G01X27818229Y-2074309D01*
G01X27806799Y-2079897D01*
G01X27795369Y-2091327D01*
G01X27789527Y-2108599D01*
G01X27789527Y-2120029D01*
G01X27795369Y-2137047D01*
G01X27806799Y-2148477D01*
G01X27818229Y-2154319D01*
G01X27835247Y-2154319D01*
G01X27846677Y-2148477D01*
G01X27858107Y-2137047D01*
G01X27905859Y-2074309D02*
G01X27905859Y-2154319D01*
G01X27905859Y-2108599D02*
G01X27911701Y-2091327D01*
G01X27923131Y-2079897D01*
G01X27934561Y-2074309D01*
G01X27951579Y-2074309D01*
G01X13638316Y-2643451D02*
G01X13638316Y-2637609D01*
G01X13643904Y-2626179D01*
G01X13649746Y-2620591D01*
G01X13661176Y-2614749D01*
G01X13684036Y-2614749D01*
G01X13695466Y-2620591D01*
G01X13701054Y-2626179D01*
G01X13706896Y-2637609D01*
G01X13706896Y-2649039D01*
G01X13701054Y-2660469D01*
G01X13689624Y-2677741D01*
G01X13632474Y-2734891D01*
G01X13712484Y-2734891D01*
G01X15052479Y-2643451D02*
G01X15052479Y-2637609D01*
G01X15058067Y-2626179D01*
G01X15063909Y-2620591D01*
G01X15075339Y-2614749D01*
G01X15098199Y-2614749D01*
G01X15109629Y-2620591D01*
G01X15115217Y-2626179D01*
G01X15121059Y-2637609D01*
G01X15121059Y-2649039D01*
G01X15115217Y-2660469D01*
G01X15103787Y-2677741D01*
G01X15046637Y-2734891D01*
G01X15126647Y-2734891D01*
G01X15185829Y-2614749D02*
G01X15248821Y-2614749D01*
G01X15214531Y-2660469D01*
G01X15231549Y-2660469D01*
G01X15242979Y-2666311D01*
G01X15248821Y-2671899D01*
G01X15254409Y-2689171D01*
G01X15254409Y-2700601D01*
G01X15248821Y-2717619D01*
G01X15237391Y-2729049D01*
G01X15220119Y-2734891D01*
G01X15203101Y-2734891D01*
G01X15185829Y-2729049D01*
G01X15180241Y-2723461D01*
G01X15174399Y-2712031D01*
G01X15308003Y-2706189D02*
G01X15302161Y-2712031D01*
G01X15308003Y-2717619D01*
G01X15313591Y-2712031D01*
G01X15308003Y-2706189D01*
G01X15429923Y-2632021D02*
G01X15424335Y-2620591D01*
G01X15407063Y-2614749D01*
G01X15395633Y-2614749D01*
G01X15378615Y-2620591D01*
G01X15367185Y-2637609D01*
G01X15361343Y-2666311D01*
G01X15361343Y-2694759D01*
G01X15367185Y-2717619D01*
G01X15378615Y-2729049D01*
G01X15395633Y-2734891D01*
G01X15401475Y-2734891D01*
G01X15418493Y-2729049D01*
G01X15429923Y-2717619D01*
G01X15435765Y-2700601D01*
G01X15435765Y-2694759D01*
G01X15429923Y-2677741D01*
G01X15418493Y-2666311D01*
G01X15401475Y-2660469D01*
G01X15395633Y-2660469D01*
G01X15378615Y-2666311D01*
G01X15367185Y-2677741D01*
G01X15361343Y-2694759D01*
G01X15483517Y-2654881D02*
G01X15546509Y-2734891D01*
G01X15546509Y-2654881D02*
G01X15483517Y-2734891D01*
G01X15651411Y-2614749D02*
G01X15594261Y-2694759D01*
G01X15680113Y-2694759D01*
G01X15651411Y-2614749D02*
G01X15651411Y-2734891D01*
G01X15807875Y-2614749D02*
G01X15750725Y-2734891D01*
G01X15727865Y-2614749D02*
G01X15807875Y-2614749D01*
G01X15861469Y-2706189D02*
G01X15855627Y-2712031D01*
G01X15861469Y-2717619D01*
G01X15867057Y-2712031D01*
G01X15861469Y-2706189D01*
G01X15920651Y-2643451D02*
G01X15920651Y-2637609D01*
G01X15926239Y-2626179D01*
G01X15932081Y-2620591D01*
G01X15943511Y-2614749D01*
G01X15966371Y-2614749D01*
G01X15977801Y-2620591D01*
G01X15983389Y-2626179D01*
G01X15989231Y-2637609D01*
G01X15989231Y-2649039D01*
G01X15983389Y-2660469D01*
G01X15971959Y-2677741D01*
G01X15914809Y-2734891D01*
G01X15994819Y-2734891D01*
G01X16042571Y-2654881D02*
G01X16042571Y-2734891D01*
G01X16042571Y-2677741D02*
G01X16059843Y-2660469D01*
G01X16071273Y-2654881D01*
G01X16088291Y-2654881D01*
G01X16099721Y-2660469D01*
G01X16105563Y-2677741D01*
G01X16105563Y-2734891D01*
G01X16105563Y-2677741D02*
G01X16122581Y-2660469D01*
G01X16134011Y-2654881D01*
G01X16151283Y-2654881D01*
G01X16162713Y-2660469D01*
G01X16168301Y-2677741D01*
G01X16168301Y-2734891D01*
G01X16216053Y-2614749D02*
G01X16221895Y-2620591D01*
G01X16227483Y-2614749D01*
G01X16221895Y-2609161D01*
G01X16216053Y-2614749D01*
G01X16221895Y-2654881D02*
G01X16221895Y-2734891D01*
G01X16275235Y-2614749D02*
G01X16275235Y-2734891D01*
G01X16363119Y-2591889D02*
G01X16351689Y-2603319D01*
G01X16340259Y-2620591D01*
G01X16328829Y-2643451D01*
G01X16322987Y-2671899D01*
G01X16322987Y-2694759D01*
G01X16328829Y-2723461D01*
G01X16340259Y-2746321D01*
G01X16351689Y-2763339D01*
G01X16363119Y-2774769D01*
G01X16445161Y-2614749D02*
G01X16428143Y-2620591D01*
G01X16416713Y-2637609D01*
G01X16410871Y-2666311D01*
G01X16410871Y-2683329D01*
G01X16416713Y-2712031D01*
G01X16428143Y-2729049D01*
G01X16445161Y-2734891D01*
G01X16456591Y-2734891D01*
G01X16473863Y-2729049D01*
G01X16485293Y-2712031D01*
G01X16490881Y-2683329D01*
G01X16490881Y-2666311D01*
G01X16485293Y-2637609D01*
G01X16473863Y-2620591D01*
G01X16456591Y-2614749D01*
G01X16445161Y-2614749D01*
G01X16544475Y-2706189D02*
G01X16538633Y-2712031D01*
G01X16544475Y-2717619D01*
G01X16550063Y-2712031D01*
G01X16544475Y-2706189D01*
G01X16666395Y-2632021D02*
G01X16660807Y-2620591D01*
G01X16643535Y-2614749D01*
G01X16632105Y-2614749D01*
G01X16615087Y-2620591D01*
G01X16603657Y-2637609D01*
G01X16597815Y-2666311D01*
G01X16597815Y-2694759D01*
G01X16603657Y-2717619D01*
G01X16615087Y-2729049D01*
G01X16632105Y-2734891D01*
G01X16637947Y-2734891D01*
G01X16654965Y-2729049D01*
G01X16666395Y-2717619D01*
G01X16672237Y-2700601D01*
G01X16672237Y-2694759D01*
G01X16666395Y-2677741D01*
G01X16654965Y-2666311D01*
G01X16637947Y-2660469D01*
G01X16632105Y-2660469D01*
G01X16615087Y-2666311D01*
G01X16603657Y-2677741D01*
G01X16597815Y-2694759D01*
G01X16754279Y-2614749D02*
G01X16737261Y-2620591D01*
G01X16725831Y-2637609D01*
G01X16719989Y-2666311D01*
G01X16719989Y-2683329D01*
G01X16725831Y-2712031D01*
G01X16737261Y-2729049D01*
G01X16754279Y-2734891D01*
G01X16765709Y-2734891D01*
G01X16782981Y-2729049D01*
G01X16794411Y-2712031D01*
G01X16799999Y-2683329D01*
G01X16799999Y-2666311D01*
G01X16794411Y-2637609D01*
G01X16782981Y-2620591D01*
G01X16765709Y-2614749D01*
G01X16754279Y-2614749D01*
G01X16882041Y-2614749D02*
G01X16865023Y-2620591D01*
G01X16853593Y-2637609D01*
G01X16847751Y-2666311D01*
G01X16847751Y-2683329D01*
G01X16853593Y-2712031D01*
G01X16865023Y-2729049D01*
G01X16882041Y-2734891D01*
G01X16893471Y-2734891D01*
G01X16910743Y-2729049D01*
G01X16922173Y-2712031D01*
G01X16927761Y-2683329D01*
G01X16927761Y-2666311D01*
G01X16922173Y-2637609D01*
G01X16910743Y-2620591D01*
G01X16893471Y-2614749D01*
G01X16882041Y-2614749D01*
G01X16975513Y-2654881D02*
G01X17038505Y-2734891D01*
G01X17038505Y-2654881D02*
G01X16975513Y-2734891D01*
G01X17086257Y-2637609D02*
G01X17097687Y-2632021D01*
G01X17114959Y-2614749D01*
G01X17114959Y-2734891D01*
G01X17168553Y-2706189D02*
G01X17162711Y-2712031D01*
G01X17168553Y-2717619D01*
G01X17174141Y-2712031D01*
G01X17168553Y-2706189D01*
G01X17227735Y-2643451D02*
G01X17227735Y-2637609D01*
G01X17233323Y-2626179D01*
G01X17239165Y-2620591D01*
G01X17250595Y-2614749D01*
G01X17273455Y-2614749D01*
G01X17284885Y-2620591D01*
G01X17290473Y-2626179D01*
G01X17296315Y-2637609D01*
G01X17296315Y-2649039D01*
G01X17290473Y-2660469D01*
G01X17279043Y-2677741D01*
G01X17221893Y-2734891D01*
G01X17301903Y-2734891D01*
G01X17383945Y-2614749D02*
G01X17366927Y-2620591D01*
G01X17355497Y-2637609D01*
G01X17349655Y-2666311D01*
G01X17349655Y-2683329D01*
G01X17355497Y-2712031D01*
G01X17366927Y-2729049D01*
G01X17383945Y-2734891D01*
G01X17395375Y-2734891D01*
G01X17412647Y-2729049D01*
G01X17424077Y-2712031D01*
G01X17429665Y-2683329D01*
G01X17429665Y-2666311D01*
G01X17424077Y-2637609D01*
G01X17412647Y-2620591D01*
G01X17395375Y-2614749D01*
G01X17383945Y-2614749D01*
G01X17511707Y-2614749D02*
G01X17494689Y-2620591D01*
G01X17483259Y-2637609D01*
G01X17477417Y-2666311D01*
G01X17477417Y-2683329D01*
G01X17483259Y-2712031D01*
G01X17494689Y-2729049D01*
G01X17511707Y-2734891D01*
G01X17523137Y-2734891D01*
G01X17540409Y-2729049D01*
G01X17551839Y-2712031D01*
G01X17557427Y-2683329D01*
G01X17557427Y-2666311D01*
G01X17551839Y-2637609D01*
G01X17540409Y-2620591D01*
G01X17523137Y-2614749D01*
G01X17511707Y-2614749D01*
G01X17605179Y-2654881D02*
G01X17605179Y-2734891D01*
G01X17605179Y-2677741D02*
G01X17622451Y-2660469D01*
G01X17633881Y-2654881D01*
G01X17650899Y-2654881D01*
G01X17662329Y-2660469D01*
G01X17668171Y-2677741D01*
G01X17668171Y-2734891D01*
G01X17668171Y-2677741D02*
G01X17685189Y-2660469D01*
G01X17696619Y-2654881D01*
G01X17713891Y-2654881D01*
G01X17725321Y-2660469D01*
G01X17730909Y-2677741D01*
G01X17730909Y-2734891D01*
G01X17778661Y-2654881D02*
G01X17778661Y-2734891D01*
G01X17778661Y-2677741D02*
G01X17795933Y-2660469D01*
G01X17807363Y-2654881D01*
G01X17824381Y-2654881D01*
G01X17835811Y-2660469D01*
G01X17841653Y-2677741D01*
G01X17841653Y-2734891D01*
G01X17841653Y-2677741D02*
G01X17858671Y-2660469D01*
G01X17870101Y-2654881D01*
G01X17887373Y-2654881D01*
G01X17898803Y-2660469D01*
G01X17904391Y-2677741D01*
G01X17904391Y-2734891D01*
G01X17952143Y-2591889D02*
G01X17963573Y-2603319D01*
G01X17975003Y-2620591D01*
G01X17986433Y-2643451D01*
G01X17992275Y-2671899D01*
G01X17992275Y-2694759D01*
G01X17986433Y-2723461D01*
G01X17975003Y-2746321D01*
G01X17963573Y-2763339D01*
G01X17952143Y-2774769D01*
G01X18883453Y-2614749D02*
G01X18883453Y-2734891D01*
G01X18883453Y-2614749D02*
G01X18935015Y-2614749D01*
G01X18952033Y-2620591D01*
G01X18957875Y-2626179D01*
G01X18963463Y-2637609D01*
G01X18963463Y-2654881D01*
G01X18957875Y-2666311D01*
G01X18952033Y-2671899D01*
G01X18935015Y-2677741D01*
G01X18883453Y-2677741D01*
G01X19051347Y-2614749D02*
G01X19051347Y-2734891D01*
G01X19011215Y-2614749D02*
G01X19091225Y-2614749D01*
G01X19138977Y-2614749D02*
G01X19138977Y-2734891D01*
G01X19218987Y-2614749D02*
G01X19218987Y-2734891D01*
G01X19138977Y-2671899D02*
G01X19218987Y-2671899D01*
G01X20424870Y-2632021D02*
G01X20413440Y-2620591D01*
G01X20396422Y-2614749D01*
G01X20373562Y-2614749D01*
G01X20356290Y-2620591D01*
G01X20344860Y-2632021D01*
G01X20344860Y-2643451D01*
G01X20350702Y-2654881D01*
G01X20356290Y-2660469D01*
G01X20367720Y-2666311D01*
G01X20402010Y-2677741D01*
G01X20413440Y-2683329D01*
G01X20419282Y-2689171D01*
G01X20424870Y-2700601D01*
G01X20424870Y-2717619D01*
G01X20413440Y-2729049D01*
G01X20396422Y-2734891D01*
G01X20373562Y-2734891D01*
G01X20356290Y-2729049D01*
G01X20344860Y-2717619D01*
G01X20472622Y-2614749D02*
G01X20472622Y-2734891D01*
G01X20549076Y-2654881D02*
G01X20537646Y-2660469D01*
G01X20526216Y-2671899D01*
G01X20520374Y-2689171D01*
G01X20520374Y-2700601D01*
G01X20526216Y-2717619D01*
G01X20537646Y-2729049D01*
G01X20549076Y-2734891D01*
G01X20566094Y-2734891D01*
G01X20577524Y-2729049D01*
G01X20588954Y-2717619D01*
G01X20594796Y-2700601D01*
G01X20594796Y-2689171D01*
G01X20588954Y-2671899D01*
G01X20577524Y-2660469D01*
G01X20566094Y-2654881D01*
G01X20549076Y-2654881D01*
G01X20659820Y-2614749D02*
G01X20659820Y-2712031D01*
G01X20665408Y-2729049D01*
G01X20676838Y-2734891D01*
G01X20688268Y-2734891D01*
G01X20642548Y-2654881D02*
G01X20682680Y-2654881D01*
G01X21776041Y-2614749D02*
G01X21776041Y-2734891D01*
G01X21776041Y-2614749D02*
G01X21827603Y-2614749D01*
G01X21844621Y-2620591D01*
G01X21850463Y-2626179D01*
G01X21856051Y-2637609D01*
G01X21856051Y-2654881D01*
G01X21850463Y-2666311D01*
G01X21844621Y-2671899D01*
G01X21827603Y-2677741D01*
G01X21776041Y-2677741D01*
G01X21972383Y-2654881D02*
G01X21972383Y-2734891D01*
G01X21972383Y-2671899D02*
G01X21960953Y-2660469D01*
G01X21949523Y-2654881D01*
G01X21932505Y-2654881D01*
G01X21921075Y-2660469D01*
G01X21909645Y-2671899D01*
G01X21903803Y-2689171D01*
G01X21903803Y-2700601D01*
G01X21909645Y-2717619D01*
G01X21921075Y-2729049D01*
G01X21932505Y-2734891D01*
G01X21949523Y-2734891D01*
G01X21960953Y-2729049D01*
G01X21972383Y-2717619D01*
G01X22088715Y-2614749D02*
G01X22088715Y-2734891D01*
G01X22088715Y-2671899D02*
G01X22077285Y-2660469D01*
G01X22065855Y-2654881D01*
G01X22048837Y-2654881D01*
G01X22037407Y-2660469D01*
G01X22025977Y-2671899D01*
G01X22020135Y-2689171D01*
G01X22020135Y-2700601D01*
G01X22025977Y-2717619D01*
G01X22037407Y-2729049D01*
G01X22048837Y-2734891D01*
G01X22065855Y-2734891D01*
G01X22077285Y-2729049D01*
G01X22088715Y-2717619D01*
G01X23479510Y-2614749D02*
G01X23468080Y-2620591D01*
G01X23456650Y-2632021D01*
G01X23451062Y-2643451D01*
G01X23445220Y-2660469D01*
G01X23445220Y-2689171D01*
G01X23451062Y-2706189D01*
G01X23456650Y-2717619D01*
G01X23468080Y-2729049D01*
G01X23479510Y-2734891D01*
G01X23502370Y-2734891D01*
G01X23513800Y-2729049D01*
G01X23525230Y-2717619D01*
G01X23531072Y-2706189D01*
G01X23536660Y-2689171D01*
G01X23536660Y-2660469D01*
G01X23531072Y-2643451D01*
G01X23525230Y-2632021D01*
G01X23513800Y-2620591D01*
G01X23502370Y-2614749D01*
G01X23479510Y-2614749D01*
G01X23584412Y-2654881D02*
G01X23618702Y-2734891D01*
G01X23652992Y-2654881D02*
G01X23618702Y-2734891D01*
G01X23769324Y-2654881D02*
G01X23769324Y-2734891D01*
G01X23769324Y-2671899D02*
G01X23757894Y-2660469D01*
G01X23746464Y-2654881D01*
G01X23729446Y-2654881D01*
G01X23718016Y-2660469D01*
G01X23706586Y-2671899D01*
G01X23700744Y-2689171D01*
G01X23700744Y-2700601D01*
G01X23706586Y-2717619D01*
G01X23718016Y-2729049D01*
G01X23729446Y-2734891D01*
G01X23746464Y-2734891D01*
G01X23757894Y-2729049D01*
G01X23769324Y-2717619D01*
G01X23817076Y-2614749D02*
G01X23817076Y-2734891D01*
G01X25404721Y-2614749D02*
G01X25404721Y-2734891D01*
G01X25364589Y-2614749D02*
G01X25444599Y-2614749D01*
G01X25521053Y-2654881D02*
G01X25509623Y-2660469D01*
G01X25498193Y-2671899D01*
G01X25492351Y-2689171D01*
G01X25492351Y-2700601D01*
G01X25498193Y-2717619D01*
G01X25509623Y-2729049D01*
G01X25521053Y-2734891D01*
G01X25538071Y-2734891D01*
G01X25549501Y-2729049D01*
G01X25560931Y-2717619D01*
G01X25566773Y-2700601D01*
G01X25566773Y-2689171D01*
G01X25560931Y-2671899D01*
G01X25549501Y-2660469D01*
G01X25538071Y-2654881D01*
G01X25521053Y-2654881D01*
G01X25614525Y-2654881D02*
G01X25614525Y-2774769D01*
G01X25614525Y-2671899D02*
G01X25625955Y-2660469D01*
G01X25637385Y-2654881D01*
G01X25654657Y-2654881D01*
G01X25666087Y-2660469D01*
G01X25677517Y-2671899D01*
G01X25683105Y-2689171D01*
G01X25683105Y-2700601D01*
G01X25677517Y-2717619D01*
G01X25666087Y-2729049D01*
G01X25654657Y-2734891D01*
G01X25637385Y-2734891D01*
G01X25625955Y-2729049D01*
G01X25614525Y-2717619D01*
G01X25858873Y-2614749D02*
G01X25858873Y-2734891D01*
G01X25858873Y-2734891D02*
G01X25927453Y-2734891D01*
G01X26043785Y-2654881D02*
G01X26043785Y-2734891D01*
G01X26043785Y-2671899D02*
G01X26032355Y-2660469D01*
G01X26020925Y-2654881D01*
G01X26003907Y-2654881D01*
G01X25992477Y-2660469D01*
G01X25981047Y-2671899D01*
G01X25975205Y-2689171D01*
G01X25975205Y-2700601D01*
G01X25981047Y-2717619D01*
G01X25992477Y-2729049D01*
G01X26003907Y-2734891D01*
G01X26020925Y-2734891D01*
G01X26032355Y-2729049D01*
G01X26043785Y-2717619D01*
G01X26097379Y-2654881D02*
G01X26131669Y-2734891D01*
G01X26165959Y-2654881D02*
G01X26131669Y-2734891D01*
G01X26120239Y-2757751D01*
G01X26108809Y-2769181D01*
G01X26097379Y-2774769D01*
G01X26091537Y-2774769D01*
G01X26213711Y-2689171D02*
G01X26282291Y-2689171D01*
G01X26282291Y-2677741D01*
G01X26276703Y-2666311D01*
G01X26270861Y-2660469D01*
G01X26259431Y-2654881D01*
G01X26242413Y-2654881D01*
G01X26230983Y-2660469D01*
G01X26219553Y-2671899D01*
G01X26213711Y-2689171D01*
G01X26213711Y-2700601D01*
G01X26219553Y-2717619D01*
G01X26230983Y-2729049D01*
G01X26242413Y-2734891D01*
G01X26259431Y-2734891D01*
G01X26270861Y-2729049D01*
G01X26282291Y-2717619D01*
G01X26330043Y-2654881D02*
G01X26330043Y-2734891D01*
G01X26330043Y-2689171D02*
G01X26335885Y-2671899D01*
G01X26347315Y-2660469D01*
G01X26358745Y-2654881D01*
G01X26375763Y-2654881D01*
G01X26423515Y-2683329D02*
G01X26526385Y-2683329D01*
G01X26574137Y-2614749D02*
G01X26574137Y-2734891D01*
G01X26574137Y-2614749D02*
G01X26625699Y-2614749D01*
G01X26642717Y-2620591D01*
G01X26648559Y-2626179D01*
G01X26654147Y-2637609D01*
G01X26654147Y-2649039D01*
G01X26648559Y-2660469D01*
G01X26642717Y-2666311D01*
G01X26625699Y-2671899D01*
G01X26574137Y-2671899D02*
G01X26625699Y-2671899D01*
G01X26642717Y-2677741D01*
G01X26648559Y-2683329D01*
G01X26654147Y-2694759D01*
G01X26654147Y-2712031D01*
G01X26648559Y-2723461D01*
G01X26642717Y-2729049D01*
G01X26625699Y-2734891D01*
G01X26574137Y-2734891D01*
G01X26730601Y-2654881D02*
G01X26719171Y-2660469D01*
G01X26707741Y-2671899D01*
G01X26701899Y-2689171D01*
G01X26701899Y-2700601D01*
G01X26707741Y-2717619D01*
G01X26719171Y-2729049D01*
G01X26730601Y-2734891D01*
G01X26747619Y-2734891D01*
G01X26759049Y-2729049D01*
G01X26770479Y-2717619D01*
G01X26776321Y-2700601D01*
G01X26776321Y-2689171D01*
G01X26770479Y-2671899D01*
G01X26759049Y-2660469D01*
G01X26747619Y-2654881D01*
G01X26730601Y-2654881D01*
G01X26841345Y-2614749D02*
G01X26841345Y-2712031D01*
G01X26846933Y-2729049D01*
G01X26858363Y-2734891D01*
G01X26869793Y-2734891D01*
G01X26824073Y-2654881D02*
G01X26864205Y-2654881D01*
G01X26934817Y-2614749D02*
G01X26934817Y-2712031D01*
G01X26940405Y-2729049D01*
G01X26951835Y-2734891D01*
G01X26963265Y-2734891D01*
G01X26917545Y-2654881D02*
G01X26957677Y-2654881D01*
G01X27039719Y-2654881D02*
G01X27028289Y-2660469D01*
G01X27016859Y-2671899D01*
G01X27011017Y-2689171D01*
G01X27011017Y-2700601D01*
G01X27016859Y-2717619D01*
G01X27028289Y-2729049D01*
G01X27039719Y-2734891D01*
G01X27056737Y-2734891D01*
G01X27068167Y-2729049D01*
G01X27079597Y-2717619D01*
G01X27085439Y-2700601D01*
G01X27085439Y-2689171D01*
G01X27079597Y-2671899D01*
G01X27068167Y-2660469D01*
G01X27056737Y-2654881D01*
G01X27039719Y-2654881D01*
G01X27133191Y-2654881D02*
G01X27133191Y-2734891D01*
G01X27133191Y-2677741D02*
G01X27150463Y-2660469D01*
G01X27161893Y-2654881D01*
G01X27178911Y-2654881D01*
G01X27190341Y-2660469D01*
G01X27196183Y-2677741D01*
G01X27196183Y-2734891D01*
G01X27196183Y-2677741D02*
G01X27213201Y-2660469D01*
G01X27224631Y-2654881D01*
G01X27241903Y-2654881D01*
G01X27253333Y-2660469D01*
G01X27258921Y-2677741D01*
G01X27258921Y-2734891D01*
G01X27434689Y-2614749D02*
G01X27434689Y-2734891D01*
G01X27434689Y-2734891D02*
G01X27503269Y-2734891D01*
G01X27619601Y-2654881D02*
G01X27619601Y-2734891D01*
G01X27619601Y-2671899D02*
G01X27608171Y-2660469D01*
G01X27596741Y-2654881D01*
G01X27579723Y-2654881D01*
G01X27568293Y-2660469D01*
G01X27556863Y-2671899D01*
G01X27551021Y-2689171D01*
G01X27551021Y-2700601D01*
G01X27556863Y-2717619D01*
G01X27568293Y-2729049D01*
G01X27579723Y-2734891D01*
G01X27596741Y-2734891D01*
G01X27608171Y-2729049D01*
G01X27619601Y-2717619D01*
G01X27673195Y-2654881D02*
G01X27707485Y-2734891D01*
G01X27741775Y-2654881D02*
G01X27707485Y-2734891D01*
G01X27696055Y-2757751D01*
G01X27684625Y-2769181D01*
G01X27673195Y-2774769D01*
G01X27667353Y-2774769D01*
G01X27789527Y-2689171D02*
G01X27858107Y-2689171D01*
G01X27858107Y-2677741D01*
G01X27852519Y-2666311D01*
G01X27846677Y-2660469D01*
G01X27835247Y-2654881D01*
G01X27818229Y-2654881D01*
G01X27806799Y-2660469D01*
G01X27795369Y-2671899D01*
G01X27789527Y-2689171D01*
G01X27789527Y-2700601D01*
G01X27795369Y-2717619D01*
G01X27806799Y-2729049D01*
G01X27818229Y-2734891D01*
G01X27835247Y-2734891D01*
G01X27846677Y-2729049D01*
G01X27858107Y-2717619D01*
G01X27905859Y-2654881D02*
G01X27905859Y-2734891D01*
G01X27905859Y-2689171D02*
G01X27911701Y-2671899D01*
G01X27923131Y-2660469D01*
G01X27934561Y-2654881D01*
G01X27951579Y-2654881D01*
G01X13638316Y-3224022D02*
G01X13638316Y-3218180D01*
G01X13643904Y-3206750D01*
G01X13649746Y-3201162D01*
G01X13661176Y-3195320D01*
G01X13684036Y-3195320D01*
G01X13695466Y-3201162D01*
G01X13701054Y-3206750D01*
G01X13706896Y-3218180D01*
G01X13706896Y-3229610D01*
G01X13701054Y-3241040D01*
G01X13689624Y-3258312D01*
G01X13632474Y-3315462D01*
G01X13712484Y-3315462D01*
G01X15058067Y-3195320D02*
G01X15121059Y-3195320D01*
G01X15086769Y-3241040D01*
G01X15103787Y-3241040D01*
G01X15115217Y-3246882D01*
G01X15121059Y-3252470D01*
G01X15126647Y-3269742D01*
G01X15126647Y-3281172D01*
G01X15121059Y-3298190D01*
G01X15109629Y-3309620D01*
G01X15092357Y-3315462D01*
G01X15075339Y-3315462D01*
G01X15058067Y-3309620D01*
G01X15052479Y-3304032D01*
G01X15046637Y-3292602D01*
G01X15248821Y-3235452D02*
G01X15242979Y-3252470D01*
G01X15231549Y-3263900D01*
G01X15214531Y-3269742D01*
G01X15208689Y-3269742D01*
G01X15191671Y-3263900D01*
G01X15180241Y-3252470D01*
G01X15174399Y-3235452D01*
G01X15174399Y-3229610D01*
G01X15180241Y-3212592D01*
G01X15191671Y-3201162D01*
G01X15208689Y-3195320D01*
G01X15214531Y-3195320D01*
G01X15231549Y-3201162D01*
G01X15242979Y-3212592D01*
G01X15248821Y-3235452D01*
G01X15248821Y-3263900D01*
G01X15242979Y-3292602D01*
G01X15231549Y-3309620D01*
G01X15214531Y-3315462D01*
G01X15203101Y-3315462D01*
G01X15185829Y-3309620D01*
G01X15180241Y-3298190D01*
G01X15302415Y-3286760D02*
G01X15296573Y-3292602D01*
G01X15302415Y-3298190D01*
G01X15308003Y-3292602D01*
G01X15302415Y-3286760D01*
G01X15412905Y-3195320D02*
G01X15355755Y-3275330D01*
G01X15441607Y-3275330D01*
G01X15412905Y-3195320D02*
G01X15412905Y-3315462D01*
G01X15489359Y-3235452D02*
G01X15489359Y-3315462D01*
G01X15489359Y-3258312D02*
G01X15506631Y-3241040D01*
G01X15518061Y-3235452D01*
G01X15535079Y-3235452D01*
G01X15546509Y-3241040D01*
G01X15552351Y-3258312D01*
G01X15552351Y-3315462D01*
G01X15552351Y-3258312D02*
G01X15569369Y-3241040D01*
G01X15580799Y-3235452D01*
G01X15598071Y-3235452D01*
G01X15609501Y-3241040D01*
G01X15615089Y-3258312D01*
G01X15615089Y-3315462D01*
G01X15662841Y-3195320D02*
G01X15668683Y-3201162D01*
G01X15674271Y-3195320D01*
G01X15668683Y-3189732D01*
G01X15662841Y-3195320D01*
G01X15668683Y-3235452D02*
G01X15668683Y-3315462D01*
G01X15722023Y-3195320D02*
G01X15722023Y-3315462D01*
G01X15809907Y-3172460D02*
G01X15798477Y-3183890D01*
G01X15787047Y-3201162D01*
G01X15775617Y-3224022D01*
G01X15769775Y-3252470D01*
G01X15769775Y-3275330D01*
G01X15775617Y-3304032D01*
G01X15787047Y-3326892D01*
G01X15798477Y-3343910D01*
G01X15809907Y-3355340D01*
G01X15857659Y-3218180D02*
G01X15869089Y-3212592D01*
G01X15886361Y-3195320D01*
G01X15886361Y-3315462D01*
G01X15939955Y-3286760D02*
G01X15934113Y-3292602D01*
G01X15939955Y-3298190D01*
G01X15945543Y-3292602D01*
G01X15939955Y-3286760D01*
G01X16027585Y-3195320D02*
G01X16010567Y-3201162D01*
G01X15999137Y-3218180D01*
G01X15993295Y-3246882D01*
G01X15993295Y-3263900D01*
G01X15999137Y-3292602D01*
G01X16010567Y-3309620D01*
G01X16027585Y-3315462D01*
G01X16039015Y-3315462D01*
G01X16056287Y-3309620D01*
G01X16067717Y-3292602D01*
G01X16073305Y-3263900D01*
G01X16073305Y-3246882D01*
G01X16067717Y-3218180D01*
G01X16056287Y-3201162D01*
G01X16039015Y-3195320D01*
G01X16027585Y-3195320D01*
G01X16155347Y-3195320D02*
G01X16138329Y-3201162D01*
G01X16126899Y-3218180D01*
G01X16121057Y-3246882D01*
G01X16121057Y-3263900D01*
G01X16126899Y-3292602D01*
G01X16138329Y-3309620D01*
G01X16155347Y-3315462D01*
G01X16166777Y-3315462D01*
G01X16184049Y-3309620D01*
G01X16195479Y-3292602D01*
G01X16201067Y-3263900D01*
G01X16201067Y-3246882D01*
G01X16195479Y-3218180D01*
G01X16184049Y-3201162D01*
G01X16166777Y-3195320D01*
G01X16155347Y-3195320D01*
G01X16283109Y-3195320D02*
G01X16266091Y-3201162D01*
G01X16254661Y-3218180D01*
G01X16248819Y-3246882D01*
G01X16248819Y-3263900D01*
G01X16254661Y-3292602D01*
G01X16266091Y-3309620D01*
G01X16283109Y-3315462D01*
G01X16294539Y-3315462D01*
G01X16311811Y-3309620D01*
G01X16323241Y-3292602D01*
G01X16328829Y-3263900D01*
G01X16328829Y-3246882D01*
G01X16323241Y-3218180D01*
G01X16311811Y-3201162D01*
G01X16294539Y-3195320D01*
G01X16283109Y-3195320D01*
G01X16376581Y-3235452D02*
G01X16376581Y-3315462D01*
G01X16376581Y-3258312D02*
G01X16393853Y-3241040D01*
G01X16405283Y-3235452D01*
G01X16422301Y-3235452D01*
G01X16433731Y-3241040D01*
G01X16439573Y-3258312D01*
G01X16439573Y-3315462D01*
G01X16439573Y-3258312D02*
G01X16456591Y-3241040D01*
G01X16468021Y-3235452D01*
G01X16485293Y-3235452D01*
G01X16496723Y-3241040D01*
G01X16502311Y-3258312D01*
G01X16502311Y-3315462D01*
G01X16550063Y-3235452D02*
G01X16550063Y-3315462D01*
G01X16550063Y-3258312D02*
G01X16567335Y-3241040D01*
G01X16578765Y-3235452D01*
G01X16595783Y-3235452D01*
G01X16607213Y-3241040D01*
G01X16613055Y-3258312D01*
G01X16613055Y-3315462D01*
G01X16613055Y-3258312D02*
G01X16630073Y-3241040D01*
G01X16641503Y-3235452D01*
G01X16658775Y-3235452D01*
G01X16670205Y-3241040D01*
G01X16675793Y-3258312D01*
G01X16675793Y-3315462D01*
G01X16723545Y-3172460D02*
G01X16734975Y-3183890D01*
G01X16746405Y-3201162D01*
G01X16757835Y-3224022D01*
G01X16763677Y-3252470D01*
G01X16763677Y-3275330D01*
G01X16757835Y-3304032D01*
G01X16746405Y-3326892D01*
G01X16734975Y-3343910D01*
G01X16723545Y-3355340D01*
G01X18883453Y-3195320D02*
G01X18883453Y-3315462D01*
G01X18883453Y-3195320D02*
G01X18963463Y-3315462D01*
G01X18963463Y-3195320D02*
G01X18963463Y-3315462D01*
G01X19011215Y-3195320D02*
G01X19011215Y-3315462D01*
G01X19011215Y-3195320D02*
G01X19062777Y-3195320D01*
G01X19079795Y-3201162D01*
G01X19085637Y-3206750D01*
G01X19091225Y-3218180D01*
G01X19091225Y-3235452D01*
G01X19085637Y-3246882D01*
G01X19079795Y-3252470D01*
G01X19062777Y-3258312D01*
G01X19011215Y-3258312D01*
G01X19179109Y-3195320D02*
G01X19179109Y-3315462D01*
G01X19138977Y-3195320D02*
G01X19218987Y-3195320D01*
G01X19266739Y-3195320D02*
G01X19266739Y-3315462D01*
G01X19346749Y-3195320D02*
G01X19346749Y-3315462D01*
G01X19266739Y-3252470D02*
G01X19346749Y-3252470D01*
G01X20344860Y-3195320D02*
G01X20344860Y-3315462D01*
G01X20344860Y-3195320D02*
G01X20396422Y-3195320D01*
G01X20413440Y-3201162D01*
G01X20419282Y-3206750D01*
G01X20424870Y-3218180D01*
G01X20424870Y-3229610D01*
G01X20419282Y-3241040D01*
G01X20413440Y-3246882D01*
G01X20396422Y-3252470D01*
G01X20344860Y-3252470D01*
G01X20384992Y-3252470D02*
G01X20424870Y-3315462D01*
G01X20501324Y-3235452D02*
G01X20489894Y-3241040D01*
G01X20478464Y-3252470D01*
G01X20472622Y-3269742D01*
G01X20472622Y-3281172D01*
G01X20478464Y-3298190D01*
G01X20489894Y-3309620D01*
G01X20501324Y-3315462D01*
G01X20518342Y-3315462D01*
G01X20529772Y-3309620D01*
G01X20541202Y-3298190D01*
G01X20547044Y-3281172D01*
G01X20547044Y-3269742D01*
G01X20541202Y-3252470D01*
G01X20529772Y-3241040D01*
G01X20518342Y-3235452D01*
G01X20501324Y-3235452D01*
G01X20594796Y-3235452D02*
G01X20594796Y-3292602D01*
G01X20600638Y-3309620D01*
G01X20612068Y-3315462D01*
G01X20629086Y-3315462D01*
G01X20640516Y-3309620D01*
G01X20657788Y-3292602D01*
G01X20657788Y-3235452D02*
G01X20657788Y-3315462D01*
G01X20705540Y-3235452D02*
G01X20705540Y-3315462D01*
G01X20705540Y-3258312D02*
G01X20722812Y-3241040D01*
G01X20734242Y-3235452D01*
G01X20751260Y-3235452D01*
G01X20762690Y-3241040D01*
G01X20768532Y-3258312D01*
G01X20768532Y-3315462D01*
G01X20884864Y-3195320D02*
G01X20884864Y-3315462D01*
G01X20884864Y-3252470D02*
G01X20873434Y-3241040D01*
G01X20862004Y-3235452D01*
G01X20844986Y-3235452D01*
G01X20833556Y-3241040D01*
G01X20822126Y-3252470D01*
G01X20816284Y-3269742D01*
G01X20816284Y-3281172D01*
G01X20822126Y-3298190D01*
G01X20833556Y-3309620D01*
G01X20844986Y-3315462D01*
G01X20862004Y-3315462D01*
G01X20873434Y-3309620D01*
G01X20884864Y-3298190D01*
G01X21776041Y-3195320D02*
G01X21821761Y-3315462D01*
G01X21867481Y-3195320D02*
G01X21821761Y-3315462D01*
G01X21915233Y-3195320D02*
G01X21921075Y-3201162D01*
G01X21926663Y-3195320D01*
G01X21921075Y-3189732D01*
G01X21915233Y-3195320D01*
G01X21921075Y-3235452D02*
G01X21921075Y-3315462D01*
G01X22042995Y-3235452D02*
G01X22042995Y-3315462D01*
G01X22042995Y-3252470D02*
G01X22031565Y-3241040D01*
G01X22020135Y-3235452D01*
G01X22003117Y-3235452D01*
G01X21991687Y-3241040D01*
G01X21980257Y-3252470D01*
G01X21974415Y-3269742D01*
G01X21974415Y-3281172D01*
G01X21980257Y-3298190D01*
G01X21991687Y-3309620D01*
G01X22003117Y-3315462D01*
G01X22020135Y-3315462D01*
G01X22031565Y-3309620D01*
G01X22042995Y-3298190D01*
G01X25404721Y-3195320D02*
G01X25404721Y-3315462D01*
G01X25364589Y-3195320D02*
G01X25444599Y-3195320D01*
G01X25521053Y-3235452D02*
G01X25509623Y-3241040D01*
G01X25498193Y-3252470D01*
G01X25492351Y-3269742D01*
G01X25492351Y-3281172D01*
G01X25498193Y-3298190D01*
G01X25509623Y-3309620D01*
G01X25521053Y-3315462D01*
G01X25538071Y-3315462D01*
G01X25549501Y-3309620D01*
G01X25560931Y-3298190D01*
G01X25566773Y-3281172D01*
G01X25566773Y-3269742D01*
G01X25560931Y-3252470D01*
G01X25549501Y-3241040D01*
G01X25538071Y-3235452D01*
G01X25521053Y-3235452D01*
G01X25614525Y-3235452D02*
G01X25614525Y-3355340D01*
G01X25614525Y-3252470D02*
G01X25625955Y-3241040D01*
G01X25637385Y-3235452D01*
G01X25654657Y-3235452D01*
G01X25666087Y-3241040D01*
G01X25677517Y-3252470D01*
G01X25683105Y-3269742D01*
G01X25683105Y-3281172D01*
G01X25677517Y-3298190D01*
G01X25666087Y-3309620D01*
G01X25654657Y-3315462D01*
G01X25637385Y-3315462D01*
G01X25625955Y-3309620D01*
G01X25614525Y-3298190D01*
G01X25858873Y-3195320D02*
G01X25858873Y-3315462D01*
G01X25858873Y-3315462D02*
G01X25927453Y-3315462D01*
G01X26043785Y-3235452D02*
G01X26043785Y-3315462D01*
G01X26043785Y-3252470D02*
G01X26032355Y-3241040D01*
G01X26020925Y-3235452D01*
G01X26003907Y-3235452D01*
G01X25992477Y-3241040D01*
G01X25981047Y-3252470D01*
G01X25975205Y-3269742D01*
G01X25975205Y-3281172D01*
G01X25981047Y-3298190D01*
G01X25992477Y-3309620D01*
G01X26003907Y-3315462D01*
G01X26020925Y-3315462D01*
G01X26032355Y-3309620D01*
G01X26043785Y-3298190D01*
G01X26097379Y-3235452D02*
G01X26131669Y-3315462D01*
G01X26165959Y-3235452D02*
G01X26131669Y-3315462D01*
G01X26120239Y-3338322D01*
G01X26108809Y-3349752D01*
G01X26097379Y-3355340D01*
G01X26091537Y-3355340D01*
G01X26213711Y-3269742D02*
G01X26282291Y-3269742D01*
G01X26282291Y-3258312D01*
G01X26276703Y-3246882D01*
G01X26270861Y-3241040D01*
G01X26259431Y-3235452D01*
G01X26242413Y-3235452D01*
G01X26230983Y-3241040D01*
G01X26219553Y-3252470D01*
G01X26213711Y-3269742D01*
G01X26213711Y-3281172D01*
G01X26219553Y-3298190D01*
G01X26230983Y-3309620D01*
G01X26242413Y-3315462D01*
G01X26259431Y-3315462D01*
G01X26270861Y-3309620D01*
G01X26282291Y-3298190D01*
G01X26330043Y-3235452D02*
G01X26330043Y-3315462D01*
G01X26330043Y-3269742D02*
G01X26335885Y-3252470D01*
G01X26347315Y-3241040D01*
G01X26358745Y-3235452D01*
G01X26375763Y-3235452D01*
G01X26423515Y-3263900D02*
G01X26526385Y-3263900D01*
G01X26574137Y-3195320D02*
G01X26574137Y-3315462D01*
G01X26574137Y-3195320D02*
G01X26625699Y-3195320D01*
G01X26642717Y-3201162D01*
G01X26648559Y-3206750D01*
G01X26654147Y-3218180D01*
G01X26654147Y-3229610D01*
G01X26648559Y-3241040D01*
G01X26642717Y-3246882D01*
G01X26625699Y-3252470D01*
G01X26574137Y-3252470D02*
G01X26625699Y-3252470D01*
G01X26642717Y-3258312D01*
G01X26648559Y-3263900D01*
G01X26654147Y-3275330D01*
G01X26654147Y-3292602D01*
G01X26648559Y-3304032D01*
G01X26642717Y-3309620D01*
G01X26625699Y-3315462D01*
G01X26574137Y-3315462D01*
G01X26730601Y-3235452D02*
G01X26719171Y-3241040D01*
G01X26707741Y-3252470D01*
G01X26701899Y-3269742D01*
G01X26701899Y-3281172D01*
G01X26707741Y-3298190D01*
G01X26719171Y-3309620D01*
G01X26730601Y-3315462D01*
G01X26747619Y-3315462D01*
G01X26759049Y-3309620D01*
G01X26770479Y-3298190D01*
G01X26776321Y-3281172D01*
G01X26776321Y-3269742D01*
G01X26770479Y-3252470D01*
G01X26759049Y-3241040D01*
G01X26747619Y-3235452D01*
G01X26730601Y-3235452D01*
G01X26841345Y-3195320D02*
G01X26841345Y-3292602D01*
G01X26846933Y-3309620D01*
G01X26858363Y-3315462D01*
G01X26869793Y-3315462D01*
G01X26824073Y-3235452D02*
G01X26864205Y-3235452D01*
G01X26934817Y-3195320D02*
G01X26934817Y-3292602D01*
G01X26940405Y-3309620D01*
G01X26951835Y-3315462D01*
G01X26963265Y-3315462D01*
G01X26917545Y-3235452D02*
G01X26957677Y-3235452D01*
G01X27039719Y-3235452D02*
G01X27028289Y-3241040D01*
G01X27016859Y-3252470D01*
G01X27011017Y-3269742D01*
G01X27011017Y-3281172D01*
G01X27016859Y-3298190D01*
G01X27028289Y-3309620D01*
G01X27039719Y-3315462D01*
G01X27056737Y-3315462D01*
G01X27068167Y-3309620D01*
G01X27079597Y-3298190D01*
G01X27085439Y-3281172D01*
G01X27085439Y-3269742D01*
G01X27079597Y-3252470D01*
G01X27068167Y-3241040D01*
G01X27056737Y-3235452D01*
G01X27039719Y-3235452D01*
G01X27133191Y-3235452D02*
G01X27133191Y-3315462D01*
G01X27133191Y-3258312D02*
G01X27150463Y-3241040D01*
G01X27161893Y-3235452D01*
G01X27178911Y-3235452D01*
G01X27190341Y-3241040D01*
G01X27196183Y-3258312D01*
G01X27196183Y-3315462D01*
G01X27196183Y-3258312D02*
G01X27213201Y-3241040D01*
G01X27224631Y-3235452D01*
G01X27241903Y-3235452D01*
G01X27253333Y-3241040D01*
G01X27258921Y-3258312D01*
G01X27258921Y-3315462D01*
G01X27434689Y-3195320D02*
G01X27434689Y-3315462D01*
G01X27434689Y-3315462D02*
G01X27503269Y-3315462D01*
G01X27619601Y-3235452D02*
G01X27619601Y-3315462D01*
G01X27619601Y-3252470D02*
G01X27608171Y-3241040D01*
G01X27596741Y-3235452D01*
G01X27579723Y-3235452D01*
G01X27568293Y-3241040D01*
G01X27556863Y-3252470D01*
G01X27551021Y-3269742D01*
G01X27551021Y-3281172D01*
G01X27556863Y-3298190D01*
G01X27568293Y-3309620D01*
G01X27579723Y-3315462D01*
G01X27596741Y-3315462D01*
G01X27608171Y-3309620D01*
G01X27619601Y-3298190D01*
G01X27673195Y-3235452D02*
G01X27707485Y-3315462D01*
G01X27741775Y-3235452D02*
G01X27707485Y-3315462D01*
G01X27696055Y-3338322D01*
G01X27684625Y-3349752D01*
G01X27673195Y-3355340D01*
G01X27667353Y-3355340D01*
G01X27789527Y-3269742D02*
G01X27858107Y-3269742D01*
G01X27858107Y-3258312D01*
G01X27852519Y-3246882D01*
G01X27846677Y-3241040D01*
G01X27835247Y-3235452D01*
G01X27818229Y-3235452D01*
G01X27806799Y-3241040D01*
G01X27795369Y-3252470D01*
G01X27789527Y-3269742D01*
G01X27789527Y-3281172D01*
G01X27795369Y-3298190D01*
G01X27806799Y-3309620D01*
G01X27818229Y-3315462D01*
G01X27835247Y-3315462D01*
G01X27846677Y-3309620D01*
G01X27858107Y-3298190D01*
G01X27905859Y-3235452D02*
G01X27905859Y-3315462D01*
G01X27905859Y-3269742D02*
G01X27911701Y-3252470D01*
G01X27923131Y-3241040D01*
G01X27934561Y-3235452D01*
G01X27951579Y-3235452D01*
G01X13638316Y-3804593D02*
G01X13638316Y-3798751D01*
G01X13643904Y-3787321D01*
G01X13649746Y-3781733D01*
G01X13661176Y-3775891D01*
G01X13684036Y-3775891D01*
G01X13695466Y-3781733D01*
G01X13701054Y-3787321D01*
G01X13706896Y-3798751D01*
G01X13706896Y-3810181D01*
G01X13701054Y-3821611D01*
G01X13689624Y-3838883D01*
G01X13632474Y-3896033D01*
G01X13712484Y-3896033D01*
G01X15052479Y-3804593D02*
G01X15052479Y-3798751D01*
G01X15058067Y-3787321D01*
G01X15063909Y-3781733D01*
G01X15075339Y-3775891D01*
G01X15098199Y-3775891D01*
G01X15109629Y-3781733D01*
G01X15115217Y-3787321D01*
G01X15121059Y-3798751D01*
G01X15121059Y-3810181D01*
G01X15115217Y-3821611D01*
G01X15103787Y-3838883D01*
G01X15046637Y-3896033D01*
G01X15126647Y-3896033D01*
G01X15254409Y-3775891D02*
G01X15197259Y-3896033D01*
G01X15174399Y-3775891D02*
G01X15254409Y-3775891D01*
G01X15308003Y-3867331D02*
G01X15302161Y-3873173D01*
G01X15308003Y-3878761D01*
G01X15313591Y-3873173D01*
G01X15308003Y-3867331D01*
G01X15429923Y-3793163D02*
G01X15424335Y-3781733D01*
G01X15407063Y-3775891D01*
G01X15395633Y-3775891D01*
G01X15378615Y-3781733D01*
G01X15367185Y-3798751D01*
G01X15361343Y-3827453D01*
G01X15361343Y-3855901D01*
G01X15367185Y-3878761D01*
G01X15378615Y-3890191D01*
G01X15395633Y-3896033D01*
G01X15401475Y-3896033D01*
G01X15418493Y-3890191D01*
G01X15429923Y-3878761D01*
G01X15435765Y-3861743D01*
G01X15435765Y-3855901D01*
G01X15429923Y-3838883D01*
G01X15418493Y-3827453D01*
G01X15401475Y-3821611D01*
G01X15395633Y-3821611D01*
G01X15378615Y-3827453D01*
G01X15367185Y-3838883D01*
G01X15361343Y-3855901D01*
G01X15483517Y-3816023D02*
G01X15483517Y-3896033D01*
G01X15483517Y-3838883D02*
G01X15500789Y-3821611D01*
G01X15512219Y-3816023D01*
G01X15529237Y-3816023D01*
G01X15540667Y-3821611D01*
G01X15546509Y-3838883D01*
G01X15546509Y-3896033D01*
G01X15546509Y-3838883D02*
G01X15563527Y-3821611D01*
G01X15574957Y-3816023D01*
G01X15592229Y-3816023D01*
G01X15603659Y-3821611D01*
G01X15609247Y-3838883D01*
G01X15609247Y-3896033D01*
G01X15656999Y-3775891D02*
G01X15662841Y-3781733D01*
G01X15668429Y-3775891D01*
G01X15662841Y-3770303D01*
G01X15656999Y-3775891D01*
G01X15662841Y-3816023D02*
G01X15662841Y-3896033D01*
G01X15716181Y-3775891D02*
G01X15716181Y-3896033D01*
G01X15804065Y-3753031D02*
G01X15792635Y-3764461D01*
G01X15781205Y-3781733D01*
G01X15769775Y-3804593D01*
G01X15763933Y-3833041D01*
G01X15763933Y-3855901D01*
G01X15769775Y-3884603D01*
G01X15781205Y-3907463D01*
G01X15792635Y-3924481D01*
G01X15804065Y-3935911D01*
G01X15886107Y-3775891D02*
G01X15869089Y-3781733D01*
G01X15857659Y-3798751D01*
G01X15851817Y-3827453D01*
G01X15851817Y-3844471D01*
G01X15857659Y-3873173D01*
G01X15869089Y-3890191D01*
G01X15886107Y-3896033D01*
G01X15897537Y-3896033D01*
G01X15914809Y-3890191D01*
G01X15926239Y-3873173D01*
G01X15931827Y-3844471D01*
G01X15931827Y-3827453D01*
G01X15926239Y-3798751D01*
G01X15914809Y-3781733D01*
G01X15897537Y-3775891D01*
G01X15886107Y-3775891D01*
G01X15985421Y-3867331D02*
G01X15979579Y-3873173D01*
G01X15985421Y-3878761D01*
G01X15991009Y-3873173D01*
G01X15985421Y-3867331D01*
G01X16118771Y-3775891D02*
G01X16061621Y-3896033D01*
G01X16038761Y-3775891D02*
G01X16118771Y-3775891D01*
G01X16200813Y-3775891D02*
G01X16183795Y-3781733D01*
G01X16172365Y-3798751D01*
G01X16166523Y-3827453D01*
G01X16166523Y-3844471D01*
G01X16172365Y-3873173D01*
G01X16183795Y-3890191D01*
G01X16200813Y-3896033D01*
G01X16212243Y-3896033D01*
G01X16229515Y-3890191D01*
G01X16240945Y-3873173D01*
G01X16246533Y-3844471D01*
G01X16246533Y-3827453D01*
G01X16240945Y-3798751D01*
G01X16229515Y-3781733D01*
G01X16212243Y-3775891D01*
G01X16200813Y-3775891D01*
G01X16328575Y-3775891D02*
G01X16311557Y-3781733D01*
G01X16300127Y-3798751D01*
G01X16294285Y-3827453D01*
G01X16294285Y-3844471D01*
G01X16300127Y-3873173D01*
G01X16311557Y-3890191D01*
G01X16328575Y-3896033D01*
G01X16340005Y-3896033D01*
G01X16357277Y-3890191D01*
G01X16368707Y-3873173D01*
G01X16374295Y-3844471D01*
G01X16374295Y-3827453D01*
G01X16368707Y-3798751D01*
G01X16357277Y-3781733D01*
G01X16340005Y-3775891D01*
G01X16328575Y-3775891D01*
G01X16422047Y-3816023D02*
G01X16422047Y-3896033D01*
G01X16422047Y-3838883D02*
G01X16439319Y-3821611D01*
G01X16450749Y-3816023D01*
G01X16467767Y-3816023D01*
G01X16479197Y-3821611D01*
G01X16485039Y-3838883D01*
G01X16485039Y-3896033D01*
G01X16485039Y-3838883D02*
G01X16502057Y-3821611D01*
G01X16513487Y-3816023D01*
G01X16530759Y-3816023D01*
G01X16542189Y-3821611D01*
G01X16547777Y-3838883D01*
G01X16547777Y-3896033D01*
G01X16595529Y-3816023D02*
G01X16595529Y-3896033D01*
G01X16595529Y-3838883D02*
G01X16612801Y-3821611D01*
G01X16624231Y-3816023D01*
G01X16641249Y-3816023D01*
G01X16652679Y-3821611D01*
G01X16658521Y-3838883D01*
G01X16658521Y-3896033D01*
G01X16658521Y-3838883D02*
G01X16675539Y-3821611D01*
G01X16686969Y-3816023D01*
G01X16704241Y-3816023D01*
G01X16715671Y-3821611D01*
G01X16721259Y-3838883D01*
G01X16721259Y-3896033D01*
G01X16769011Y-3753031D02*
G01X16780441Y-3764461D01*
G01X16791871Y-3781733D01*
G01X16803301Y-3804593D01*
G01X16809143Y-3833041D01*
G01X16809143Y-3855901D01*
G01X16803301Y-3884603D01*
G01X16791871Y-3907463D01*
G01X16780441Y-3924481D01*
G01X16769011Y-3935911D01*
G01X18883453Y-3775891D02*
G01X18883453Y-3896033D01*
G01X18883453Y-3775891D02*
G01X18963463Y-3896033D01*
G01X18963463Y-3775891D02*
G01X18963463Y-3896033D01*
G01X19011215Y-3775891D02*
G01X19011215Y-3896033D01*
G01X19011215Y-3775891D02*
G01X19062777Y-3775891D01*
G01X19079795Y-3781733D01*
G01X19085637Y-3787321D01*
G01X19091225Y-3798751D01*
G01X19091225Y-3816023D01*
G01X19085637Y-3827453D01*
G01X19079795Y-3833041D01*
G01X19062777Y-3838883D01*
G01X19011215Y-3838883D01*
G01X19179109Y-3775891D02*
G01X19179109Y-3896033D01*
G01X19138977Y-3775891D02*
G01X19218987Y-3775891D01*
G01X19266739Y-3775891D02*
G01X19266739Y-3896033D01*
G01X19346749Y-3775891D02*
G01X19346749Y-3896033D01*
G01X19266739Y-3833041D02*
G01X19346749Y-3833041D01*
G01X20344860Y-3775891D02*
G01X20344860Y-3896033D01*
G01X20344860Y-3775891D02*
G01X20396422Y-3775891D01*
G01X20413440Y-3781733D01*
G01X20419282Y-3787321D01*
G01X20424870Y-3798751D01*
G01X20424870Y-3810181D01*
G01X20419282Y-3821611D01*
G01X20413440Y-3827453D01*
G01X20396422Y-3833041D01*
G01X20344860Y-3833041D01*
G01X20384992Y-3833041D02*
G01X20424870Y-3896033D01*
G01X20501324Y-3816023D02*
G01X20489894Y-3821611D01*
G01X20478464Y-3833041D01*
G01X20472622Y-3850313D01*
G01X20472622Y-3861743D01*
G01X20478464Y-3878761D01*
G01X20489894Y-3890191D01*
G01X20501324Y-3896033D01*
G01X20518342Y-3896033D01*
G01X20529772Y-3890191D01*
G01X20541202Y-3878761D01*
G01X20547044Y-3861743D01*
G01X20547044Y-3850313D01*
G01X20541202Y-3833041D01*
G01X20529772Y-3821611D01*
G01X20518342Y-3816023D01*
G01X20501324Y-3816023D01*
G01X20594796Y-3816023D02*
G01X20594796Y-3873173D01*
G01X20600638Y-3890191D01*
G01X20612068Y-3896033D01*
G01X20629086Y-3896033D01*
G01X20640516Y-3890191D01*
G01X20657788Y-3873173D01*
G01X20657788Y-3816023D02*
G01X20657788Y-3896033D01*
G01X20705540Y-3816023D02*
G01X20705540Y-3896033D01*
G01X20705540Y-3838883D02*
G01X20722812Y-3821611D01*
G01X20734242Y-3816023D01*
G01X20751260Y-3816023D01*
G01X20762690Y-3821611D01*
G01X20768532Y-3838883D01*
G01X20768532Y-3896033D01*
G01X20884864Y-3775891D02*
G01X20884864Y-3896033D01*
G01X20884864Y-3833041D02*
G01X20873434Y-3821611D01*
G01X20862004Y-3816023D01*
G01X20844986Y-3816023D01*
G01X20833556Y-3821611D01*
G01X20822126Y-3833041D01*
G01X20816284Y-3850313D01*
G01X20816284Y-3861743D01*
G01X20822126Y-3878761D01*
G01X20833556Y-3890191D01*
G01X20844986Y-3896033D01*
G01X20862004Y-3896033D01*
G01X20873434Y-3890191D01*
G01X20884864Y-3878761D01*
G01X21776041Y-3775891D02*
G01X21821761Y-3896033D01*
G01X21867481Y-3775891D02*
G01X21821761Y-3896033D01*
G01X21915233Y-3775891D02*
G01X21921075Y-3781733D01*
G01X21926663Y-3775891D01*
G01X21921075Y-3770303D01*
G01X21915233Y-3775891D01*
G01X21921075Y-3816023D02*
G01X21921075Y-3896033D01*
G01X22042995Y-3816023D02*
G01X22042995Y-3896033D01*
G01X22042995Y-3833041D02*
G01X22031565Y-3821611D01*
G01X22020135Y-3816023D01*
G01X22003117Y-3816023D01*
G01X21991687Y-3821611D01*
G01X21980257Y-3833041D01*
G01X21974415Y-3850313D01*
G01X21974415Y-3861743D01*
G01X21980257Y-3878761D01*
G01X21991687Y-3890191D01*
G01X22003117Y-3896033D01*
G01X22020135Y-3896033D01*
G01X22031565Y-3890191D01*
G01X22042995Y-3878761D01*
G01X25404721Y-3775891D02*
G01X25404721Y-3896033D01*
G01X25364589Y-3775891D02*
G01X25444599Y-3775891D01*
G01X25521053Y-3816023D02*
G01X25509623Y-3821611D01*
G01X25498193Y-3833041D01*
G01X25492351Y-3850313D01*
G01X25492351Y-3861743D01*
G01X25498193Y-3878761D01*
G01X25509623Y-3890191D01*
G01X25521053Y-3896033D01*
G01X25538071Y-3896033D01*
G01X25549501Y-3890191D01*
G01X25560931Y-3878761D01*
G01X25566773Y-3861743D01*
G01X25566773Y-3850313D01*
G01X25560931Y-3833041D01*
G01X25549501Y-3821611D01*
G01X25538071Y-3816023D01*
G01X25521053Y-3816023D01*
G01X25614525Y-3816023D02*
G01X25614525Y-3935911D01*
G01X25614525Y-3833041D02*
G01X25625955Y-3821611D01*
G01X25637385Y-3816023D01*
G01X25654657Y-3816023D01*
G01X25666087Y-3821611D01*
G01X25677517Y-3833041D01*
G01X25683105Y-3850313D01*
G01X25683105Y-3861743D01*
G01X25677517Y-3878761D01*
G01X25666087Y-3890191D01*
G01X25654657Y-3896033D01*
G01X25637385Y-3896033D01*
G01X25625955Y-3890191D01*
G01X25614525Y-3878761D01*
G01X25858873Y-3775891D02*
G01X25858873Y-3896033D01*
G01X25858873Y-3896033D02*
G01X25927453Y-3896033D01*
G01X26043785Y-3816023D02*
G01X26043785Y-3896033D01*
G01X26043785Y-3833041D02*
G01X26032355Y-3821611D01*
G01X26020925Y-3816023D01*
G01X26003907Y-3816023D01*
G01X25992477Y-3821611D01*
G01X25981047Y-3833041D01*
G01X25975205Y-3850313D01*
G01X25975205Y-3861743D01*
G01X25981047Y-3878761D01*
G01X25992477Y-3890191D01*
G01X26003907Y-3896033D01*
G01X26020925Y-3896033D01*
G01X26032355Y-3890191D01*
G01X26043785Y-3878761D01*
G01X26097379Y-3816023D02*
G01X26131669Y-3896033D01*
G01X26165959Y-3816023D02*
G01X26131669Y-3896033D01*
G01X26120239Y-3918893D01*
G01X26108809Y-3930323D01*
G01X26097379Y-3935911D01*
G01X26091537Y-3935911D01*
G01X26213711Y-3850313D02*
G01X26282291Y-3850313D01*
G01X26282291Y-3838883D01*
G01X26276703Y-3827453D01*
G01X26270861Y-3821611D01*
G01X26259431Y-3816023D01*
G01X26242413Y-3816023D01*
G01X26230983Y-3821611D01*
G01X26219553Y-3833041D01*
G01X26213711Y-3850313D01*
G01X26213711Y-3861743D01*
G01X26219553Y-3878761D01*
G01X26230983Y-3890191D01*
G01X26242413Y-3896033D01*
G01X26259431Y-3896033D01*
G01X26270861Y-3890191D01*
G01X26282291Y-3878761D01*
G01X26330043Y-3816023D02*
G01X26330043Y-3896033D01*
G01X26330043Y-3850313D02*
G01X26335885Y-3833041D01*
G01X26347315Y-3821611D01*
G01X26358745Y-3816023D01*
G01X26375763Y-3816023D01*
G01X26423515Y-3844471D02*
G01X26526385Y-3844471D01*
G01X26574137Y-3775891D02*
G01X26574137Y-3896033D01*
G01X26574137Y-3775891D02*
G01X26625699Y-3775891D01*
G01X26642717Y-3781733D01*
G01X26648559Y-3787321D01*
G01X26654147Y-3798751D01*
G01X26654147Y-3810181D01*
G01X26648559Y-3821611D01*
G01X26642717Y-3827453D01*
G01X26625699Y-3833041D01*
G01X26574137Y-3833041D02*
G01X26625699Y-3833041D01*
G01X26642717Y-3838883D01*
G01X26648559Y-3844471D01*
G01X26654147Y-3855901D01*
G01X26654147Y-3873173D01*
G01X26648559Y-3884603D01*
G01X26642717Y-3890191D01*
G01X26625699Y-3896033D01*
G01X26574137Y-3896033D01*
G01X26730601Y-3816023D02*
G01X26719171Y-3821611D01*
G01X26707741Y-3833041D01*
G01X26701899Y-3850313D01*
G01X26701899Y-3861743D01*
G01X26707741Y-3878761D01*
G01X26719171Y-3890191D01*
G01X26730601Y-3896033D01*
G01X26747619Y-3896033D01*
G01X26759049Y-3890191D01*
G01X26770479Y-3878761D01*
G01X26776321Y-3861743D01*
G01X26776321Y-3850313D01*
G01X26770479Y-3833041D01*
G01X26759049Y-3821611D01*
G01X26747619Y-3816023D01*
G01X26730601Y-3816023D01*
G01X26841345Y-3775891D02*
G01X26841345Y-3873173D01*
G01X26846933Y-3890191D01*
G01X26858363Y-3896033D01*
G01X26869793Y-3896033D01*
G01X26824073Y-3816023D02*
G01X26864205Y-3816023D01*
G01X26934817Y-3775891D02*
G01X26934817Y-3873173D01*
G01X26940405Y-3890191D01*
G01X26951835Y-3896033D01*
G01X26963265Y-3896033D01*
G01X26917545Y-3816023D02*
G01X26957677Y-3816023D01*
G01X27039719Y-3816023D02*
G01X27028289Y-3821611D01*
G01X27016859Y-3833041D01*
G01X27011017Y-3850313D01*
G01X27011017Y-3861743D01*
G01X27016859Y-3878761D01*
G01X27028289Y-3890191D01*
G01X27039719Y-3896033D01*
G01X27056737Y-3896033D01*
G01X27068167Y-3890191D01*
G01X27079597Y-3878761D01*
G01X27085439Y-3861743D01*
G01X27085439Y-3850313D01*
G01X27079597Y-3833041D01*
G01X27068167Y-3821611D01*
G01X27056737Y-3816023D01*
G01X27039719Y-3816023D01*
G01X27133191Y-3816023D02*
G01X27133191Y-3896033D01*
G01X27133191Y-3838883D02*
G01X27150463Y-3821611D01*
G01X27161893Y-3816023D01*
G01X27178911Y-3816023D01*
G01X27190341Y-3821611D01*
G01X27196183Y-3838883D01*
G01X27196183Y-3896033D01*
G01X27196183Y-3838883D02*
G01X27213201Y-3821611D01*
G01X27224631Y-3816023D01*
G01X27241903Y-3816023D01*
G01X27253333Y-3821611D01*
G01X27258921Y-3838883D01*
G01X27258921Y-3896033D01*
G01X27434689Y-3775891D02*
G01X27434689Y-3896033D01*
G01X27434689Y-3896033D02*
G01X27503269Y-3896033D01*
G01X27619601Y-3816023D02*
G01X27619601Y-3896033D01*
G01X27619601Y-3833041D02*
G01X27608171Y-3821611D01*
G01X27596741Y-3816023D01*
G01X27579723Y-3816023D01*
G01X27568293Y-3821611D01*
G01X27556863Y-3833041D01*
G01X27551021Y-3850313D01*
G01X27551021Y-3861743D01*
G01X27556863Y-3878761D01*
G01X27568293Y-3890191D01*
G01X27579723Y-3896033D01*
G01X27596741Y-3896033D01*
G01X27608171Y-3890191D01*
G01X27619601Y-3878761D01*
G01X27673195Y-3816023D02*
G01X27707485Y-3896033D01*
G01X27741775Y-3816023D02*
G01X27707485Y-3896033D01*
G01X27696055Y-3918893D01*
G01X27684625Y-3930323D01*
G01X27673195Y-3935911D01*
G01X27667353Y-3935911D01*
G01X27789527Y-3850313D02*
G01X27858107Y-3850313D01*
G01X27858107Y-3838883D01*
G01X27852519Y-3827453D01*
G01X27846677Y-3821611D01*
G01X27835247Y-3816023D01*
G01X27818229Y-3816023D01*
G01X27806799Y-3821611D01*
G01X27795369Y-3833041D01*
G01X27789527Y-3850313D01*
G01X27789527Y-3861743D01*
G01X27795369Y-3878761D01*
G01X27806799Y-3890191D01*
G01X27818229Y-3896033D01*
G01X27835247Y-3896033D01*
G01X27846677Y-3890191D01*
G01X27858107Y-3878761D01*
G01X27905859Y-3816023D02*
G01X27905859Y-3896033D01*
G01X27905859Y-3850313D02*
G01X27911701Y-3833041D01*
G01X27923131Y-3821611D01*
G01X27934561Y-3816023D01*
G01X27951579Y-3816023D01*
G01X13632474Y-4379323D02*
G01X13643904Y-4373735D01*
G01X13661176Y-4356463D01*
G01X13661176Y-4476605D01*
G01X13743218Y-4356463D02*
G01X13726200Y-4362305D01*
G01X13714770Y-4379323D01*
G01X13708928Y-4408025D01*
G01X13708928Y-4425043D01*
G01X13714770Y-4453745D01*
G01X13726200Y-4470763D01*
G01X13743218Y-4476605D01*
G01X13754648Y-4476605D01*
G01X13771920Y-4470763D01*
G01X13783350Y-4453745D01*
G01X13788938Y-4425043D01*
G01X13788938Y-4408025D01*
G01X13783350Y-4379323D01*
G01X13771920Y-4362305D01*
G01X13754648Y-4356463D01*
G01X13743218Y-4356463D01*
G01X15103787Y-4356463D02*
G01X15046637Y-4436473D01*
G01X15132489Y-4436473D01*
G01X15103787Y-4356463D02*
G01X15103787Y-4476605D01*
G01X15191671Y-4356463D02*
G01X15254663Y-4356463D01*
G01X15220373Y-4402183D01*
G01X15237391Y-4402183D01*
G01X15248821Y-4408025D01*
G01X15254663Y-4413613D01*
G01X15260251Y-4430885D01*
G01X15260251Y-4442315D01*
G01X15254663Y-4459333D01*
G01X15243233Y-4470763D01*
G01X15225961Y-4476605D01*
G01X15208943Y-4476605D01*
G01X15191671Y-4470763D01*
G01X15186083Y-4465175D01*
G01X15180241Y-4453745D01*
G01X15313845Y-4447903D02*
G01X15308003Y-4453745D01*
G01X15313845Y-4459333D01*
G01X15319433Y-4453745D01*
G01X15313845Y-4447903D01*
G01X15378615Y-4356463D02*
G01X15441607Y-4356463D01*
G01X15407317Y-4402183D01*
G01X15424335Y-4402183D01*
G01X15435765Y-4408025D01*
G01X15441607Y-4413613D01*
G01X15447195Y-4430885D01*
G01X15447195Y-4442315D01*
G01X15441607Y-4459333D01*
G01X15430177Y-4470763D01*
G01X15412905Y-4476605D01*
G01X15395887Y-4476605D01*
G01X15378615Y-4470763D01*
G01X15373027Y-4465175D01*
G01X15367185Y-4453745D01*
G01X15494947Y-4396595D02*
G01X15557939Y-4476605D01*
G01X15557939Y-4396595D02*
G01X15494947Y-4476605D01*
G01X15662841Y-4356463D02*
G01X15605691Y-4436473D01*
G01X15691543Y-4436473D01*
G01X15662841Y-4356463D02*
G01X15662841Y-4476605D01*
G01X15750725Y-4356463D02*
G01X15813717Y-4356463D01*
G01X15779427Y-4402183D01*
G01X15796445Y-4402183D01*
G01X15807875Y-4408025D01*
G01X15813717Y-4413613D01*
G01X15819305Y-4430885D01*
G01X15819305Y-4442315D01*
G01X15813717Y-4459333D01*
G01X15802287Y-4470763D01*
G01X15785015Y-4476605D01*
G01X15767997Y-4476605D01*
G01X15750725Y-4470763D01*
G01X15745137Y-4465175D01*
G01X15739295Y-4453745D01*
G01X15872899Y-4447903D02*
G01X15867057Y-4453745D01*
G01X15872899Y-4459333D01*
G01X15878487Y-4453745D01*
G01X15872899Y-4447903D01*
G01X15937669Y-4356463D02*
G01X16000661Y-4356463D01*
G01X15966371Y-4402183D01*
G01X15983389Y-4402183D01*
G01X15994819Y-4408025D01*
G01X16000661Y-4413613D01*
G01X16006249Y-4430885D01*
G01X16006249Y-4442315D01*
G01X16000661Y-4459333D01*
G01X15989231Y-4470763D01*
G01X15971959Y-4476605D01*
G01X15954941Y-4476605D01*
G01X15937669Y-4470763D01*
G01X15932081Y-4465175D01*
G01X15926239Y-4453745D01*
G01X16054001Y-4396595D02*
G01X16054001Y-4476605D01*
G01X16054001Y-4419455D02*
G01X16071273Y-4402183D01*
G01X16082703Y-4396595D01*
G01X16099721Y-4396595D01*
G01X16111151Y-4402183D01*
G01X16116993Y-4419455D01*
G01X16116993Y-4476605D01*
G01X16116993Y-4419455D02*
G01X16134011Y-4402183D01*
G01X16145441Y-4396595D01*
G01X16162713Y-4396595D01*
G01X16174143Y-4402183D01*
G01X16179731Y-4419455D01*
G01X16179731Y-4476605D01*
G01X16227483Y-4356463D02*
G01X16233325Y-4362305D01*
G01X16238913Y-4356463D01*
G01X16233325Y-4350875D01*
G01X16227483Y-4356463D01*
G01X16233325Y-4396595D02*
G01X16233325Y-4476605D01*
G01X16286665Y-4356463D02*
G01X16286665Y-4476605D01*
G01X16374549Y-4333603D02*
G01X16363119Y-4345033D01*
G01X16351689Y-4362305D01*
G01X16340259Y-4385165D01*
G01X16334417Y-4413613D01*
G01X16334417Y-4436473D01*
G01X16340259Y-4465175D01*
G01X16351689Y-4488035D01*
G01X16363119Y-4505053D01*
G01X16374549Y-4516483D01*
G01X16422301Y-4379323D02*
G01X16433731Y-4373735D01*
G01X16451003Y-4356463D01*
G01X16451003Y-4476605D01*
G01X16504597Y-4447903D02*
G01X16498755Y-4453745D01*
G01X16504597Y-4459333D01*
G01X16510185Y-4453745D01*
G01X16504597Y-4447903D01*
G01X16557937Y-4379323D02*
G01X16569367Y-4373735D01*
G01X16586639Y-4356463D01*
G01X16586639Y-4476605D01*
G01X16668681Y-4356463D02*
G01X16651663Y-4362305D01*
G01X16640233Y-4379323D01*
G01X16634391Y-4408025D01*
G01X16634391Y-4425043D01*
G01X16640233Y-4453745D01*
G01X16651663Y-4470763D01*
G01X16668681Y-4476605D01*
G01X16680111Y-4476605D01*
G01X16697383Y-4470763D01*
G01X16708813Y-4453745D01*
G01X16714401Y-4425043D01*
G01X16714401Y-4408025D01*
G01X16708813Y-4379323D01*
G01X16697383Y-4362305D01*
G01X16680111Y-4356463D01*
G01X16668681Y-4356463D01*
G01X16796443Y-4356463D02*
G01X16779425Y-4362305D01*
G01X16767995Y-4379323D01*
G01X16762153Y-4408025D01*
G01X16762153Y-4425043D01*
G01X16767995Y-4453745D01*
G01X16779425Y-4470763D01*
G01X16796443Y-4476605D01*
G01X16807873Y-4476605D01*
G01X16825145Y-4470763D01*
G01X16836575Y-4453745D01*
G01X16842163Y-4425043D01*
G01X16842163Y-4408025D01*
G01X16836575Y-4379323D01*
G01X16825145Y-4362305D01*
G01X16807873Y-4356463D01*
G01X16796443Y-4356463D01*
G01X16889915Y-4396595D02*
G01X16952907Y-4476605D01*
G01X16952907Y-4396595D02*
G01X16889915Y-4476605D01*
G01X17000659Y-4379323D02*
G01X17012089Y-4373735D01*
G01X17029361Y-4356463D01*
G01X17029361Y-4476605D01*
G01X17082955Y-4447903D02*
G01X17077113Y-4453745D01*
G01X17082955Y-4459333D01*
G01X17088543Y-4453745D01*
G01X17082955Y-4447903D01*
G01X17136295Y-4379323D02*
G01X17147725Y-4373735D01*
G01X17164997Y-4356463D01*
G01X17164997Y-4476605D01*
G01X17247039Y-4356463D02*
G01X17230021Y-4362305D01*
G01X17218591Y-4379323D01*
G01X17212749Y-4408025D01*
G01X17212749Y-4425043D01*
G01X17218591Y-4453745D01*
G01X17230021Y-4470763D01*
G01X17247039Y-4476605D01*
G01X17258469Y-4476605D01*
G01X17275741Y-4470763D01*
G01X17287171Y-4453745D01*
G01X17292759Y-4425043D01*
G01X17292759Y-4408025D01*
G01X17287171Y-4379323D01*
G01X17275741Y-4362305D01*
G01X17258469Y-4356463D01*
G01X17247039Y-4356463D01*
G01X17374801Y-4356463D02*
G01X17357783Y-4362305D01*
G01X17346353Y-4379323D01*
G01X17340511Y-4408025D01*
G01X17340511Y-4425043D01*
G01X17346353Y-4453745D01*
G01X17357783Y-4470763D01*
G01X17374801Y-4476605D01*
G01X17386231Y-4476605D01*
G01X17403503Y-4470763D01*
G01X17414933Y-4453745D01*
G01X17420521Y-4425043D01*
G01X17420521Y-4408025D01*
G01X17414933Y-4379323D01*
G01X17403503Y-4362305D01*
G01X17386231Y-4356463D01*
G01X17374801Y-4356463D01*
G01X17468273Y-4396595D02*
G01X17468273Y-4476605D01*
G01X17468273Y-4419455D02*
G01X17485545Y-4402183D01*
G01X17496975Y-4396595D01*
G01X17513993Y-4396595D01*
G01X17525423Y-4402183D01*
G01X17531265Y-4419455D01*
G01X17531265Y-4476605D01*
G01X17531265Y-4419455D02*
G01X17548283Y-4402183D01*
G01X17559713Y-4396595D01*
G01X17576985Y-4396595D01*
G01X17588415Y-4402183D01*
G01X17594003Y-4419455D01*
G01X17594003Y-4476605D01*
G01X17641755Y-4396595D02*
G01X17641755Y-4476605D01*
G01X17641755Y-4419455D02*
G01X17659027Y-4402183D01*
G01X17670457Y-4396595D01*
G01X17687475Y-4396595D01*
G01X17698905Y-4402183D01*
G01X17704747Y-4419455D01*
G01X17704747Y-4476605D01*
G01X17704747Y-4419455D02*
G01X17721765Y-4402183D01*
G01X17733195Y-4396595D01*
G01X17750467Y-4396595D01*
G01X17761897Y-4402183D01*
G01X17767485Y-4419455D01*
G01X17767485Y-4476605D01*
G01X17815237Y-4333603D02*
G01X17826667Y-4345033D01*
G01X17838097Y-4362305D01*
G01X17849527Y-4385165D01*
G01X17855369Y-4413613D01*
G01X17855369Y-4436473D01*
G01X17849527Y-4465175D01*
G01X17838097Y-4488035D01*
G01X17826667Y-4505053D01*
G01X17815237Y-4516483D01*
G01X18883453Y-4356463D02*
G01X18883453Y-4476605D01*
G01X18883453Y-4356463D02*
G01X18935015Y-4356463D01*
G01X18952033Y-4362305D01*
G01X18957875Y-4367893D01*
G01X18963463Y-4379323D01*
G01X18963463Y-4396595D01*
G01X18957875Y-4408025D01*
G01X18952033Y-4413613D01*
G01X18935015Y-4419455D01*
G01X18883453Y-4419455D01*
G01X19051347Y-4356463D02*
G01X19051347Y-4476605D01*
G01X19011215Y-4356463D02*
G01X19091225Y-4356463D01*
G01X19138977Y-4356463D02*
G01X19138977Y-4476605D01*
G01X19218987Y-4356463D02*
G01X19218987Y-4476605D01*
G01X19138977Y-4413613D02*
G01X19218987Y-4413613D01*
G01X20344860Y-4356463D02*
G01X20344860Y-4476605D01*
G01X20344860Y-4356463D02*
G01X20396422Y-4356463D01*
G01X20413440Y-4362305D01*
G01X20419282Y-4367893D01*
G01X20424870Y-4379323D01*
G01X20424870Y-4390753D01*
G01X20419282Y-4402183D01*
G01X20413440Y-4408025D01*
G01X20396422Y-4413613D01*
G01X20344860Y-4413613D01*
G01X20384992Y-4413613D02*
G01X20424870Y-4476605D01*
G01X20501324Y-4396595D02*
G01X20489894Y-4402183D01*
G01X20478464Y-4413613D01*
G01X20472622Y-4430885D01*
G01X20472622Y-4442315D01*
G01X20478464Y-4459333D01*
G01X20489894Y-4470763D01*
G01X20501324Y-4476605D01*
G01X20518342Y-4476605D01*
G01X20529772Y-4470763D01*
G01X20541202Y-4459333D01*
G01X20547044Y-4442315D01*
G01X20547044Y-4430885D01*
G01X20541202Y-4413613D01*
G01X20529772Y-4402183D01*
G01X20518342Y-4396595D01*
G01X20501324Y-4396595D01*
G01X20594796Y-4396595D02*
G01X20594796Y-4453745D01*
G01X20600638Y-4470763D01*
G01X20612068Y-4476605D01*
G01X20629086Y-4476605D01*
G01X20640516Y-4470763D01*
G01X20657788Y-4453745D01*
G01X20657788Y-4396595D02*
G01X20657788Y-4476605D01*
G01X20705540Y-4396595D02*
G01X20705540Y-4476605D01*
G01X20705540Y-4419455D02*
G01X20722812Y-4402183D01*
G01X20734242Y-4396595D01*
G01X20751260Y-4396595D01*
G01X20762690Y-4402183D01*
G01X20768532Y-4419455D01*
G01X20768532Y-4476605D01*
G01X20884864Y-4356463D02*
G01X20884864Y-4476605D01*
G01X20884864Y-4413613D02*
G01X20873434Y-4402183D01*
G01X20862004Y-4396595D01*
G01X20844986Y-4396595D01*
G01X20833556Y-4402183D01*
G01X20822126Y-4413613D01*
G01X20816284Y-4430885D01*
G01X20816284Y-4442315D01*
G01X20822126Y-4459333D01*
G01X20833556Y-4470763D01*
G01X20844986Y-4476605D01*
G01X20862004Y-4476605D01*
G01X20873434Y-4470763D01*
G01X20884864Y-4459333D01*
G01X21776041Y-4356463D02*
G01X21776041Y-4476605D01*
G01X21776041Y-4356463D02*
G01X21827603Y-4356463D01*
G01X21844621Y-4362305D01*
G01X21850463Y-4367893D01*
G01X21856051Y-4379323D01*
G01X21856051Y-4396595D01*
G01X21850463Y-4408025D01*
G01X21844621Y-4413613D01*
G01X21827603Y-4419455D01*
G01X21776041Y-4419455D01*
G01X21972383Y-4396595D02*
G01X21972383Y-4476605D01*
G01X21972383Y-4413613D02*
G01X21960953Y-4402183D01*
G01X21949523Y-4396595D01*
G01X21932505Y-4396595D01*
G01X21921075Y-4402183D01*
G01X21909645Y-4413613D01*
G01X21903803Y-4430885D01*
G01X21903803Y-4442315D01*
G01X21909645Y-4459333D01*
G01X21921075Y-4470763D01*
G01X21932505Y-4476605D01*
G01X21949523Y-4476605D01*
G01X21960953Y-4470763D01*
G01X21972383Y-4459333D01*
G01X22088715Y-4356463D02*
G01X22088715Y-4476605D01*
G01X22088715Y-4413613D02*
G01X22077285Y-4402183D01*
G01X22065855Y-4396595D01*
G01X22048837Y-4396595D01*
G01X22037407Y-4402183D01*
G01X22025977Y-4413613D01*
G01X22020135Y-4430885D01*
G01X22020135Y-4442315D01*
G01X22025977Y-4459333D01*
G01X22037407Y-4470763D01*
G01X22048837Y-4476605D01*
G01X22065855Y-4476605D01*
G01X22077285Y-4470763D01*
G01X22088715Y-4459333D01*
G01X23485352Y-4333603D02*
G01X23473922Y-4345033D01*
G01X23462492Y-4362305D01*
G01X23451062Y-4385165D01*
G01X23445220Y-4413613D01*
G01X23445220Y-4436473D01*
G01X23451062Y-4465175D01*
G01X23462492Y-4488035D01*
G01X23473922Y-4505053D01*
G01X23485352Y-4516483D01*
G01X23533104Y-4356463D02*
G01X23533104Y-4476605D01*
G01X23533104Y-4356463D02*
G01X23578824Y-4476605D01*
G01X23624544Y-4356463D02*
G01X23578824Y-4476605D01*
G01X23624544Y-4356463D02*
G01X23624544Y-4476605D01*
G01X23672296Y-4356463D02*
G01X23678138Y-4362305D01*
G01X23683726Y-4356463D01*
G01X23678138Y-4350875D01*
G01X23672296Y-4356463D01*
G01X23678138Y-4396595D02*
G01X23678138Y-4476605D01*
G01X23731478Y-4396595D02*
G01X23794470Y-4476605D01*
G01X23794470Y-4396595D02*
G01X23731478Y-4476605D01*
G01X23842222Y-4430885D02*
G01X23910802Y-4430885D01*
G01X23910802Y-4419455D01*
G01X23905214Y-4408025D01*
G01X23899372Y-4402183D01*
G01X23887942Y-4396595D01*
G01X23870924Y-4396595D01*
G01X23859494Y-4402183D01*
G01X23848064Y-4413613D01*
G01X23842222Y-4430885D01*
G01X23842222Y-4442315D01*
G01X23848064Y-4459333D01*
G01X23859494Y-4470763D01*
G01X23870924Y-4476605D01*
G01X23887942Y-4476605D01*
G01X23899372Y-4470763D01*
G01X23910802Y-4459333D01*
G01X24027134Y-4356463D02*
G01X24027134Y-4476605D01*
G01X24027134Y-4413613D02*
G01X24015704Y-4402183D01*
G01X24004274Y-4396595D01*
G01X23987256Y-4396595D01*
G01X23975826Y-4402183D01*
G01X23964396Y-4413613D01*
G01X23958554Y-4430885D01*
G01X23958554Y-4442315D01*
G01X23964396Y-4459333D01*
G01X23975826Y-4470763D01*
G01X23987256Y-4476605D01*
G01X24004274Y-4476605D01*
G01X24015704Y-4470763D01*
G01X24027134Y-4459333D01*
G01X24074886Y-4333603D02*
G01X24086316Y-4345033D01*
G01X24097746Y-4362305D01*
G01X24109176Y-4385165D01*
G01X24115018Y-4413613D01*
G01X24115018Y-4436473D01*
G01X24109176Y-4465175D01*
G01X24097746Y-4488035D01*
G01X24086316Y-4505053D01*
G01X24074886Y-4516483D01*
G01X25404721Y-4356463D02*
G01X25404721Y-4476605D01*
G01X25364589Y-4356463D02*
G01X25444599Y-4356463D01*
G01X25521053Y-4396595D02*
G01X25509623Y-4402183D01*
G01X25498193Y-4413613D01*
G01X25492351Y-4430885D01*
G01X25492351Y-4442315D01*
G01X25498193Y-4459333D01*
G01X25509623Y-4470763D01*
G01X25521053Y-4476605D01*
G01X25538071Y-4476605D01*
G01X25549501Y-4470763D01*
G01X25560931Y-4459333D01*
G01X25566773Y-4442315D01*
G01X25566773Y-4430885D01*
G01X25560931Y-4413613D01*
G01X25549501Y-4402183D01*
G01X25538071Y-4396595D01*
G01X25521053Y-4396595D01*
G01X25614525Y-4396595D02*
G01X25614525Y-4516483D01*
G01X25614525Y-4413613D02*
G01X25625955Y-4402183D01*
G01X25637385Y-4396595D01*
G01X25654657Y-4396595D01*
G01X25666087Y-4402183D01*
G01X25677517Y-4413613D01*
G01X25683105Y-4430885D01*
G01X25683105Y-4442315D01*
G01X25677517Y-4459333D01*
G01X25666087Y-4470763D01*
G01X25654657Y-4476605D01*
G01X25637385Y-4476605D01*
G01X25625955Y-4470763D01*
G01X25614525Y-4459333D01*
G01X25858873Y-4356463D02*
G01X25858873Y-4476605D01*
G01X25858873Y-4476605D02*
G01X25927453Y-4476605D01*
G01X26043785Y-4396595D02*
G01X26043785Y-4476605D01*
G01X26043785Y-4413613D02*
G01X26032355Y-4402183D01*
G01X26020925Y-4396595D01*
G01X26003907Y-4396595D01*
G01X25992477Y-4402183D01*
G01X25981047Y-4413613D01*
G01X25975205Y-4430885D01*
G01X25975205Y-4442315D01*
G01X25981047Y-4459333D01*
G01X25992477Y-4470763D01*
G01X26003907Y-4476605D01*
G01X26020925Y-4476605D01*
G01X26032355Y-4470763D01*
G01X26043785Y-4459333D01*
G01X26097379Y-4396595D02*
G01X26131669Y-4476605D01*
G01X26165959Y-4396595D02*
G01X26131669Y-4476605D01*
G01X26120239Y-4499465D01*
G01X26108809Y-4510895D01*
G01X26097379Y-4516483D01*
G01X26091537Y-4516483D01*
G01X26213711Y-4430885D02*
G01X26282291Y-4430885D01*
G01X26282291Y-4419455D01*
G01X26276703Y-4408025D01*
G01X26270861Y-4402183D01*
G01X26259431Y-4396595D01*
G01X26242413Y-4396595D01*
G01X26230983Y-4402183D01*
G01X26219553Y-4413613D01*
G01X26213711Y-4430885D01*
G01X26213711Y-4442315D01*
G01X26219553Y-4459333D01*
G01X26230983Y-4470763D01*
G01X26242413Y-4476605D01*
G01X26259431Y-4476605D01*
G01X26270861Y-4470763D01*
G01X26282291Y-4459333D01*
G01X26330043Y-4396595D02*
G01X26330043Y-4476605D01*
G01X26330043Y-4430885D02*
G01X26335885Y-4413613D01*
G01X26347315Y-4402183D01*
G01X26358745Y-4396595D01*
G01X26375763Y-4396595D01*
G01X26423515Y-4425043D02*
G01X26526385Y-4425043D01*
G01X26574137Y-4356463D02*
G01X26574137Y-4476605D01*
G01X26574137Y-4356463D02*
G01X26625699Y-4356463D01*
G01X26642717Y-4362305D01*
G01X26648559Y-4367893D01*
G01X26654147Y-4379323D01*
G01X26654147Y-4390753D01*
G01X26648559Y-4402183D01*
G01X26642717Y-4408025D01*
G01X26625699Y-4413613D01*
G01X26574137Y-4413613D02*
G01X26625699Y-4413613D01*
G01X26642717Y-4419455D01*
G01X26648559Y-4425043D01*
G01X26654147Y-4436473D01*
G01X26654147Y-4453745D01*
G01X26648559Y-4465175D01*
G01X26642717Y-4470763D01*
G01X26625699Y-4476605D01*
G01X26574137Y-4476605D01*
G01X26730601Y-4396595D02*
G01X26719171Y-4402183D01*
G01X26707741Y-4413613D01*
G01X26701899Y-4430885D01*
G01X26701899Y-4442315D01*
G01X26707741Y-4459333D01*
G01X26719171Y-4470763D01*
G01X26730601Y-4476605D01*
G01X26747619Y-4476605D01*
G01X26759049Y-4470763D01*
G01X26770479Y-4459333D01*
G01X26776321Y-4442315D01*
G01X26776321Y-4430885D01*
G01X26770479Y-4413613D01*
G01X26759049Y-4402183D01*
G01X26747619Y-4396595D01*
G01X26730601Y-4396595D01*
G01X26841345Y-4356463D02*
G01X26841345Y-4453745D01*
G01X26846933Y-4470763D01*
G01X26858363Y-4476605D01*
G01X26869793Y-4476605D01*
G01X26824073Y-4396595D02*
G01X26864205Y-4396595D01*
G01X26934817Y-4356463D02*
G01X26934817Y-4453745D01*
G01X26940405Y-4470763D01*
G01X26951835Y-4476605D01*
G01X26963265Y-4476605D01*
G01X26917545Y-4396595D02*
G01X26957677Y-4396595D01*
G01X27039719Y-4396595D02*
G01X27028289Y-4402183D01*
G01X27016859Y-4413613D01*
G01X27011017Y-4430885D01*
G01X27011017Y-4442315D01*
G01X27016859Y-4459333D01*
G01X27028289Y-4470763D01*
G01X27039719Y-4476605D01*
G01X27056737Y-4476605D01*
G01X27068167Y-4470763D01*
G01X27079597Y-4459333D01*
G01X27085439Y-4442315D01*
G01X27085439Y-4430885D01*
G01X27079597Y-4413613D01*
G01X27068167Y-4402183D01*
G01X27056737Y-4396595D01*
G01X27039719Y-4396595D01*
G01X27133191Y-4396595D02*
G01X27133191Y-4476605D01*
G01X27133191Y-4419455D02*
G01X27150463Y-4402183D01*
G01X27161893Y-4396595D01*
G01X27178911Y-4396595D01*
G01X27190341Y-4402183D01*
G01X27196183Y-4419455D01*
G01X27196183Y-4476605D01*
G01X27196183Y-4419455D02*
G01X27213201Y-4402183D01*
G01X27224631Y-4396595D01*
G01X27241903Y-4396595D01*
G01X27253333Y-4402183D01*
G01X27258921Y-4419455D01*
G01X27258921Y-4476605D01*
G01X27434689Y-4356463D02*
G01X27434689Y-4476605D01*
G01X27434689Y-4476605D02*
G01X27503269Y-4476605D01*
G01X27619601Y-4396595D02*
G01X27619601Y-4476605D01*
G01X27619601Y-4413613D02*
G01X27608171Y-4402183D01*
G01X27596741Y-4396595D01*
G01X27579723Y-4396595D01*
G01X27568293Y-4402183D01*
G01X27556863Y-4413613D01*
G01X27551021Y-4430885D01*
G01X27551021Y-4442315D01*
G01X27556863Y-4459333D01*
G01X27568293Y-4470763D01*
G01X27579723Y-4476605D01*
G01X27596741Y-4476605D01*
G01X27608171Y-4470763D01*
G01X27619601Y-4459333D01*
G01X27673195Y-4396595D02*
G01X27707485Y-4476605D01*
G01X27741775Y-4396595D02*
G01X27707485Y-4476605D01*
G01X27696055Y-4499465D01*
G01X27684625Y-4510895D01*
G01X27673195Y-4516483D01*
G01X27667353Y-4516483D01*
G01X27789527Y-4430885D02*
G01X27858107Y-4430885D01*
G01X27858107Y-4419455D01*
G01X27852519Y-4408025D01*
G01X27846677Y-4402183D01*
G01X27835247Y-4396595D01*
G01X27818229Y-4396595D01*
G01X27806799Y-4402183D01*
G01X27795369Y-4413613D01*
G01X27789527Y-4430885D01*
G01X27789527Y-4442315D01*
G01X27795369Y-4459333D01*
G01X27806799Y-4470763D01*
G01X27818229Y-4476605D01*
G01X27835247Y-4476605D01*
G01X27846677Y-4470763D01*
G01X27858107Y-4459333D01*
G01X27905859Y-4396595D02*
G01X27905859Y-4476605D01*
G01X27905859Y-4430885D02*
G01X27911701Y-4413613D01*
G01X27923131Y-4402183D01*
G01X27934561Y-4396595D01*
G01X27951579Y-4396595D01*
G01X13701054Y-4937034D02*
G01X13643904Y-4937034D01*
G01X13638316Y-4988596D01*
G01X13643904Y-4982754D01*
G01X13661176Y-4977166D01*
G01X13678194Y-4977166D01*
G01X13695466Y-4982754D01*
G01X13706896Y-4994184D01*
G01X13712484Y-5011456D01*
G01X13712484Y-5022886D01*
G01X13706896Y-5039904D01*
G01X13695466Y-5051334D01*
G01X13678194Y-5057176D01*
G01X13661176Y-5057176D01*
G01X13643904Y-5051334D01*
G01X13638316Y-5045746D01*
G01X13632474Y-5034316D01*
G01X13766078Y-4965736D02*
G01X13766078Y-4959894D01*
G01X13771666Y-4948464D01*
G01X13777508Y-4942876D01*
G01X13788938Y-4937034D01*
G01X13811798Y-4937034D01*
G01X13823228Y-4942876D01*
G01X13828816Y-4948464D01*
G01X13834658Y-4959894D01*
G01X13834658Y-4971324D01*
G01X13828816Y-4982754D01*
G01X13817386Y-5000026D01*
G01X13760236Y-5057176D01*
G01X13840246Y-5057176D01*
G01X15103787Y-4937034D02*
G01X15046637Y-5017044D01*
G01X15132489Y-5017044D01*
G01X15103787Y-4937034D02*
G01X15103787Y-5057176D01*
G01X15260251Y-4937034D02*
G01X15203101Y-5057176D01*
G01X15180241Y-4937034D02*
G01X15260251Y-4937034D01*
G01X15313845Y-5028474D02*
G01X15308003Y-5034316D01*
G01X15313845Y-5039904D01*
G01X15319433Y-5034316D01*
G01X15313845Y-5028474D01*
G01X15373027Y-4965736D02*
G01X15373027Y-4959894D01*
G01X15378615Y-4948464D01*
G01X15384457Y-4942876D01*
G01X15395887Y-4937034D01*
G01X15418747Y-4937034D01*
G01X15430177Y-4942876D01*
G01X15435765Y-4948464D01*
G01X15441607Y-4959894D01*
G01X15441607Y-4971324D01*
G01X15435765Y-4982754D01*
G01X15424335Y-5000026D01*
G01X15367185Y-5057176D01*
G01X15447195Y-5057176D01*
G01X15494947Y-4977166D02*
G01X15557939Y-5057176D01*
G01X15557939Y-4977166D02*
G01X15494947Y-5057176D01*
G01X15662841Y-4937034D02*
G01X15605691Y-5017044D01*
G01X15691543Y-5017044D01*
G01X15662841Y-4937034D02*
G01X15662841Y-5057176D01*
G01X15819305Y-4937034D02*
G01X15762155Y-5057176D01*
G01X15739295Y-4937034D02*
G01X15819305Y-4937034D01*
G01X15872899Y-5028474D02*
G01X15867057Y-5034316D01*
G01X15872899Y-5039904D01*
G01X15878487Y-5034316D01*
G01X15872899Y-5028474D01*
G01X15932081Y-4965736D02*
G01X15932081Y-4959894D01*
G01X15937669Y-4948464D01*
G01X15943511Y-4942876D01*
G01X15954941Y-4937034D01*
G01X15977801Y-4937034D01*
G01X15989231Y-4942876D01*
G01X15994819Y-4948464D01*
G01X16000661Y-4959894D01*
G01X16000661Y-4971324D01*
G01X15994819Y-4982754D01*
G01X15983389Y-5000026D01*
G01X15926239Y-5057176D01*
G01X16006249Y-5057176D01*
G01X16054001Y-4977166D02*
G01X16054001Y-5057176D01*
G01X16054001Y-5000026D02*
G01X16071273Y-4982754D01*
G01X16082703Y-4977166D01*
G01X16099721Y-4977166D01*
G01X16111151Y-4982754D01*
G01X16116993Y-5000026D01*
G01X16116993Y-5057176D01*
G01X16116993Y-5000026D02*
G01X16134011Y-4982754D01*
G01X16145441Y-4977166D01*
G01X16162713Y-4977166D01*
G01X16174143Y-4982754D01*
G01X16179731Y-5000026D01*
G01X16179731Y-5057176D01*
G01X16227483Y-4937034D02*
G01X16233325Y-4942876D01*
G01X16238913Y-4937034D01*
G01X16233325Y-4931446D01*
G01X16227483Y-4937034D01*
G01X16233325Y-4977166D02*
G01X16233325Y-5057176D01*
G01X16286665Y-4937034D02*
G01X16286665Y-5057176D01*
G01X16374549Y-4914174D02*
G01X16363119Y-4925604D01*
G01X16351689Y-4942876D01*
G01X16340259Y-4965736D01*
G01X16334417Y-4994184D01*
G01X16334417Y-5017044D01*
G01X16340259Y-5045746D01*
G01X16351689Y-5068606D01*
G01X16363119Y-5085624D01*
G01X16374549Y-5097054D01*
G01X16422301Y-4959894D02*
G01X16433731Y-4954306D01*
G01X16451003Y-4937034D01*
G01X16451003Y-5057176D01*
G01X16504597Y-5028474D02*
G01X16498755Y-5034316D01*
G01X16504597Y-5039904D01*
G01X16510185Y-5034316D01*
G01X16504597Y-5028474D01*
G01X16563779Y-4965736D02*
G01X16563779Y-4959894D01*
G01X16569367Y-4948464D01*
G01X16575209Y-4942876D01*
G01X16586639Y-4937034D01*
G01X16609499Y-4937034D01*
G01X16620929Y-4942876D01*
G01X16626517Y-4948464D01*
G01X16632359Y-4959894D01*
G01X16632359Y-4971324D01*
G01X16626517Y-4982754D01*
G01X16615087Y-5000026D01*
G01X16557937Y-5057176D01*
G01X16637947Y-5057176D01*
G01X16719989Y-4937034D02*
G01X16702971Y-4942876D01*
G01X16691541Y-4959894D01*
G01X16685699Y-4988596D01*
G01X16685699Y-5005614D01*
G01X16691541Y-5034316D01*
G01X16702971Y-5051334D01*
G01X16719989Y-5057176D01*
G01X16731419Y-5057176D01*
G01X16748691Y-5051334D01*
G01X16760121Y-5034316D01*
G01X16765709Y-5005614D01*
G01X16765709Y-4988596D01*
G01X16760121Y-4959894D01*
G01X16748691Y-4942876D01*
G01X16731419Y-4937034D01*
G01X16719989Y-4937034D01*
G01X16847751Y-4937034D02*
G01X16830733Y-4942876D01*
G01X16819303Y-4959894D01*
G01X16813461Y-4988596D01*
G01X16813461Y-5005614D01*
G01X16819303Y-5034316D01*
G01X16830733Y-5051334D01*
G01X16847751Y-5057176D01*
G01X16859181Y-5057176D01*
G01X16876453Y-5051334D01*
G01X16887883Y-5034316D01*
G01X16893471Y-5005614D01*
G01X16893471Y-4988596D01*
G01X16887883Y-4959894D01*
G01X16876453Y-4942876D01*
G01X16859181Y-4937034D01*
G01X16847751Y-4937034D01*
G01X16941223Y-4977166D02*
G01X17004215Y-5057176D01*
G01X17004215Y-4977166D02*
G01X16941223Y-5057176D01*
G01X17051967Y-4959894D02*
G01X17063397Y-4954306D01*
G01X17080669Y-4937034D01*
G01X17080669Y-5057176D01*
G01X17134263Y-5028474D02*
G01X17128421Y-5034316D01*
G01X17134263Y-5039904D01*
G01X17139851Y-5034316D01*
G01X17134263Y-5028474D01*
G01X17193445Y-4965736D02*
G01X17193445Y-4959894D01*
G01X17199033Y-4948464D01*
G01X17204875Y-4942876D01*
G01X17216305Y-4937034D01*
G01X17239165Y-4937034D01*
G01X17250595Y-4942876D01*
G01X17256183Y-4948464D01*
G01X17262025Y-4959894D01*
G01X17262025Y-4971324D01*
G01X17256183Y-4982754D01*
G01X17244753Y-5000026D01*
G01X17187603Y-5057176D01*
G01X17267613Y-5057176D01*
G01X17349655Y-4937034D02*
G01X17332637Y-4942876D01*
G01X17321207Y-4959894D01*
G01X17315365Y-4988596D01*
G01X17315365Y-5005614D01*
G01X17321207Y-5034316D01*
G01X17332637Y-5051334D01*
G01X17349655Y-5057176D01*
G01X17361085Y-5057176D01*
G01X17378357Y-5051334D01*
G01X17389787Y-5034316D01*
G01X17395375Y-5005614D01*
G01X17395375Y-4988596D01*
G01X17389787Y-4959894D01*
G01X17378357Y-4942876D01*
G01X17361085Y-4937034D01*
G01X17349655Y-4937034D01*
G01X17477417Y-4937034D02*
G01X17460399Y-4942876D01*
G01X17448969Y-4959894D01*
G01X17443127Y-4988596D01*
G01X17443127Y-5005614D01*
G01X17448969Y-5034316D01*
G01X17460399Y-5051334D01*
G01X17477417Y-5057176D01*
G01X17488847Y-5057176D01*
G01X17506119Y-5051334D01*
G01X17517549Y-5034316D01*
G01X17523137Y-5005614D01*
G01X17523137Y-4988596D01*
G01X17517549Y-4959894D01*
G01X17506119Y-4942876D01*
G01X17488847Y-4937034D01*
G01X17477417Y-4937034D01*
G01X17570889Y-4977166D02*
G01X17570889Y-5057176D01*
G01X17570889Y-5000026D02*
G01X17588161Y-4982754D01*
G01X17599591Y-4977166D01*
G01X17616609Y-4977166D01*
G01X17628039Y-4982754D01*
G01X17633881Y-5000026D01*
G01X17633881Y-5057176D01*
G01X17633881Y-5000026D02*
G01X17650899Y-4982754D01*
G01X17662329Y-4977166D01*
G01X17679601Y-4977166D01*
G01X17691031Y-4982754D01*
G01X17696619Y-5000026D01*
G01X17696619Y-5057176D01*
G01X17744371Y-4977166D02*
G01X17744371Y-5057176D01*
G01X17744371Y-5000026D02*
G01X17761643Y-4982754D01*
G01X17773073Y-4977166D01*
G01X17790091Y-4977166D01*
G01X17801521Y-4982754D01*
G01X17807363Y-5000026D01*
G01X17807363Y-5057176D01*
G01X17807363Y-5000026D02*
G01X17824381Y-4982754D01*
G01X17835811Y-4977166D01*
G01X17853083Y-4977166D01*
G01X17864513Y-4982754D01*
G01X17870101Y-5000026D01*
G01X17870101Y-5057176D01*
G01X17917853Y-4914174D02*
G01X17929283Y-4925604D01*
G01X17940713Y-4942876D01*
G01X17952143Y-4965736D01*
G01X17957985Y-4994184D01*
G01X17957985Y-5017044D01*
G01X17952143Y-5045746D01*
G01X17940713Y-5068606D01*
G01X17929283Y-5085624D01*
G01X17917853Y-5097054D01*
G01X18883453Y-4937034D02*
G01X18883453Y-5057176D01*
G01X18883453Y-4937034D02*
G01X18935015Y-4937034D01*
G01X18952033Y-4942876D01*
G01X18957875Y-4948464D01*
G01X18963463Y-4959894D01*
G01X18963463Y-4977166D01*
G01X18957875Y-4988596D01*
G01X18952033Y-4994184D01*
G01X18935015Y-5000026D01*
G01X18883453Y-5000026D01*
G01X19051347Y-4937034D02*
G01X19051347Y-5057176D01*
G01X19011215Y-4937034D02*
G01X19091225Y-4937034D01*
G01X19138977Y-4937034D02*
G01X19138977Y-5057176D01*
G01X19218987Y-4937034D02*
G01X19218987Y-5057176D01*
G01X19138977Y-4994184D02*
G01X19218987Y-4994184D01*
G01X20344860Y-4937034D02*
G01X20344860Y-5057176D01*
G01X20344860Y-4937034D02*
G01X20396422Y-4937034D01*
G01X20413440Y-4942876D01*
G01X20419282Y-4948464D01*
G01X20424870Y-4959894D01*
G01X20424870Y-4971324D01*
G01X20419282Y-4982754D01*
G01X20413440Y-4988596D01*
G01X20396422Y-4994184D01*
G01X20344860Y-4994184D01*
G01X20384992Y-4994184D02*
G01X20424870Y-5057176D01*
G01X20501324Y-4977166D02*
G01X20489894Y-4982754D01*
G01X20478464Y-4994184D01*
G01X20472622Y-5011456D01*
G01X20472622Y-5022886D01*
G01X20478464Y-5039904D01*
G01X20489894Y-5051334D01*
G01X20501324Y-5057176D01*
G01X20518342Y-5057176D01*
G01X20529772Y-5051334D01*
G01X20541202Y-5039904D01*
G01X20547044Y-5022886D01*
G01X20547044Y-5011456D01*
G01X20541202Y-4994184D01*
G01X20529772Y-4982754D01*
G01X20518342Y-4977166D01*
G01X20501324Y-4977166D01*
G01X20594796Y-4977166D02*
G01X20594796Y-5034316D01*
G01X20600638Y-5051334D01*
G01X20612068Y-5057176D01*
G01X20629086Y-5057176D01*
G01X20640516Y-5051334D01*
G01X20657788Y-5034316D01*
G01X20657788Y-4977166D02*
G01X20657788Y-5057176D01*
G01X20705540Y-4977166D02*
G01X20705540Y-5057176D01*
G01X20705540Y-5000026D02*
G01X20722812Y-4982754D01*
G01X20734242Y-4977166D01*
G01X20751260Y-4977166D01*
G01X20762690Y-4982754D01*
G01X20768532Y-5000026D01*
G01X20768532Y-5057176D01*
G01X20884864Y-4937034D02*
G01X20884864Y-5057176D01*
G01X20884864Y-4994184D02*
G01X20873434Y-4982754D01*
G01X20862004Y-4977166D01*
G01X20844986Y-4977166D01*
G01X20833556Y-4982754D01*
G01X20822126Y-4994184D01*
G01X20816284Y-5011456D01*
G01X20816284Y-5022886D01*
G01X20822126Y-5039904D01*
G01X20833556Y-5051334D01*
G01X20844986Y-5057176D01*
G01X20862004Y-5057176D01*
G01X20873434Y-5051334D01*
G01X20884864Y-5039904D01*
G01X21776041Y-4937034D02*
G01X21776041Y-5057176D01*
G01X21776041Y-4937034D02*
G01X21827603Y-4937034D01*
G01X21844621Y-4942876D01*
G01X21850463Y-4948464D01*
G01X21856051Y-4959894D01*
G01X21856051Y-4977166D01*
G01X21850463Y-4988596D01*
G01X21844621Y-4994184D01*
G01X21827603Y-5000026D01*
G01X21776041Y-5000026D01*
G01X21972383Y-4977166D02*
G01X21972383Y-5057176D01*
G01X21972383Y-4994184D02*
G01X21960953Y-4982754D01*
G01X21949523Y-4977166D01*
G01X21932505Y-4977166D01*
G01X21921075Y-4982754D01*
G01X21909645Y-4994184D01*
G01X21903803Y-5011456D01*
G01X21903803Y-5022886D01*
G01X21909645Y-5039904D01*
G01X21921075Y-5051334D01*
G01X21932505Y-5057176D01*
G01X21949523Y-5057176D01*
G01X21960953Y-5051334D01*
G01X21972383Y-5039904D01*
G01X22088715Y-4937034D02*
G01X22088715Y-5057176D01*
G01X22088715Y-4994184D02*
G01X22077285Y-4982754D01*
G01X22065855Y-4977166D01*
G01X22048837Y-4977166D01*
G01X22037407Y-4982754D01*
G01X22025977Y-4994184D01*
G01X22020135Y-5011456D01*
G01X22020135Y-5022886D01*
G01X22025977Y-5039904D01*
G01X22037407Y-5051334D01*
G01X22048837Y-5057176D01*
G01X22065855Y-5057176D01*
G01X22077285Y-5051334D01*
G01X22088715Y-5039904D01*
G01X23485352Y-4914174D02*
G01X23473922Y-4925604D01*
G01X23462492Y-4942876D01*
G01X23451062Y-4965736D01*
G01X23445220Y-4994184D01*
G01X23445220Y-5017044D01*
G01X23451062Y-5045746D01*
G01X23462492Y-5068606D01*
G01X23473922Y-5085624D01*
G01X23485352Y-5097054D01*
G01X23533104Y-4937034D02*
G01X23533104Y-5057176D01*
G01X23533104Y-4937034D02*
G01X23578824Y-5057176D01*
G01X23624544Y-4937034D02*
G01X23578824Y-5057176D01*
G01X23624544Y-4937034D02*
G01X23624544Y-5057176D01*
G01X23672296Y-4937034D02*
G01X23678138Y-4942876D01*
G01X23683726Y-4937034D01*
G01X23678138Y-4931446D01*
G01X23672296Y-4937034D01*
G01X23678138Y-4977166D02*
G01X23678138Y-5057176D01*
G01X23731478Y-4977166D02*
G01X23794470Y-5057176D01*
G01X23794470Y-4977166D02*
G01X23731478Y-5057176D01*
G01X23842222Y-5011456D02*
G01X23910802Y-5011456D01*
G01X23910802Y-5000026D01*
G01X23905214Y-4988596D01*
G01X23899372Y-4982754D01*
G01X23887942Y-4977166D01*
G01X23870924Y-4977166D01*
G01X23859494Y-4982754D01*
G01X23848064Y-4994184D01*
G01X23842222Y-5011456D01*
G01X23842222Y-5022886D01*
G01X23848064Y-5039904D01*
G01X23859494Y-5051334D01*
G01X23870924Y-5057176D01*
G01X23887942Y-5057176D01*
G01X23899372Y-5051334D01*
G01X23910802Y-5039904D01*
G01X24027134Y-4937034D02*
G01X24027134Y-5057176D01*
G01X24027134Y-4994184D02*
G01X24015704Y-4982754D01*
G01X24004274Y-4977166D01*
G01X23987256Y-4977166D01*
G01X23975826Y-4982754D01*
G01X23964396Y-4994184D01*
G01X23958554Y-5011456D01*
G01X23958554Y-5022886D01*
G01X23964396Y-5039904D01*
G01X23975826Y-5051334D01*
G01X23987256Y-5057176D01*
G01X24004274Y-5057176D01*
G01X24015704Y-5051334D01*
G01X24027134Y-5039904D01*
G01X24074886Y-4914174D02*
G01X24086316Y-4925604D01*
G01X24097746Y-4942876D01*
G01X24109176Y-4965736D01*
G01X24115018Y-4994184D01*
G01X24115018Y-5017044D01*
G01X24109176Y-5045746D01*
G01X24097746Y-5068606D01*
G01X24086316Y-5085624D01*
G01X24074886Y-5097054D01*
G01X25404721Y-4937034D02*
G01X25404721Y-5057176D01*
G01X25364589Y-4937034D02*
G01X25444599Y-4937034D01*
G01X25521053Y-4977166D02*
G01X25509623Y-4982754D01*
G01X25498193Y-4994184D01*
G01X25492351Y-5011456D01*
G01X25492351Y-5022886D01*
G01X25498193Y-5039904D01*
G01X25509623Y-5051334D01*
G01X25521053Y-5057176D01*
G01X25538071Y-5057176D01*
G01X25549501Y-5051334D01*
G01X25560931Y-5039904D01*
G01X25566773Y-5022886D01*
G01X25566773Y-5011456D01*
G01X25560931Y-4994184D01*
G01X25549501Y-4982754D01*
G01X25538071Y-4977166D01*
G01X25521053Y-4977166D01*
G01X25614525Y-4977166D02*
G01X25614525Y-5097054D01*
G01X25614525Y-4994184D02*
G01X25625955Y-4982754D01*
G01X25637385Y-4977166D01*
G01X25654657Y-4977166D01*
G01X25666087Y-4982754D01*
G01X25677517Y-4994184D01*
G01X25683105Y-5011456D01*
G01X25683105Y-5022886D01*
G01X25677517Y-5039904D01*
G01X25666087Y-5051334D01*
G01X25654657Y-5057176D01*
G01X25637385Y-5057176D01*
G01X25625955Y-5051334D01*
G01X25614525Y-5039904D01*
G01X25858873Y-4937034D02*
G01X25858873Y-5057176D01*
G01X25858873Y-5057176D02*
G01X25927453Y-5057176D01*
G01X26043785Y-4977166D02*
G01X26043785Y-5057176D01*
G01X26043785Y-4994184D02*
G01X26032355Y-4982754D01*
G01X26020925Y-4977166D01*
G01X26003907Y-4977166D01*
G01X25992477Y-4982754D01*
G01X25981047Y-4994184D01*
G01X25975205Y-5011456D01*
G01X25975205Y-5022886D01*
G01X25981047Y-5039904D01*
G01X25992477Y-5051334D01*
G01X26003907Y-5057176D01*
G01X26020925Y-5057176D01*
G01X26032355Y-5051334D01*
G01X26043785Y-5039904D01*
G01X26097379Y-4977166D02*
G01X26131669Y-5057176D01*
G01X26165959Y-4977166D02*
G01X26131669Y-5057176D01*
G01X26120239Y-5080036D01*
G01X26108809Y-5091466D01*
G01X26097379Y-5097054D01*
G01X26091537Y-5097054D01*
G01X26213711Y-5011456D02*
G01X26282291Y-5011456D01*
G01X26282291Y-5000026D01*
G01X26276703Y-4988596D01*
G01X26270861Y-4982754D01*
G01X26259431Y-4977166D01*
G01X26242413Y-4977166D01*
G01X26230983Y-4982754D01*
G01X26219553Y-4994184D01*
G01X26213711Y-5011456D01*
G01X26213711Y-5022886D01*
G01X26219553Y-5039904D01*
G01X26230983Y-5051334D01*
G01X26242413Y-5057176D01*
G01X26259431Y-5057176D01*
G01X26270861Y-5051334D01*
G01X26282291Y-5039904D01*
G01X26330043Y-4977166D02*
G01X26330043Y-5057176D01*
G01X26330043Y-5011456D02*
G01X26335885Y-4994184D01*
G01X26347315Y-4982754D01*
G01X26358745Y-4977166D01*
G01X26375763Y-4977166D01*
G01X26423515Y-5005614D02*
G01X26526385Y-5005614D01*
G01X26574137Y-4937034D02*
G01X26574137Y-5057176D01*
G01X26574137Y-4937034D02*
G01X26625699Y-4937034D01*
G01X26642717Y-4942876D01*
G01X26648559Y-4948464D01*
G01X26654147Y-4959894D01*
G01X26654147Y-4971324D01*
G01X26648559Y-4982754D01*
G01X26642717Y-4988596D01*
G01X26625699Y-4994184D01*
G01X26574137Y-4994184D02*
G01X26625699Y-4994184D01*
G01X26642717Y-5000026D01*
G01X26648559Y-5005614D01*
G01X26654147Y-5017044D01*
G01X26654147Y-5034316D01*
G01X26648559Y-5045746D01*
G01X26642717Y-5051334D01*
G01X26625699Y-5057176D01*
G01X26574137Y-5057176D01*
G01X26730601Y-4977166D02*
G01X26719171Y-4982754D01*
G01X26707741Y-4994184D01*
G01X26701899Y-5011456D01*
G01X26701899Y-5022886D01*
G01X26707741Y-5039904D01*
G01X26719171Y-5051334D01*
G01X26730601Y-5057176D01*
G01X26747619Y-5057176D01*
G01X26759049Y-5051334D01*
G01X26770479Y-5039904D01*
G01X26776321Y-5022886D01*
G01X26776321Y-5011456D01*
G01X26770479Y-4994184D01*
G01X26759049Y-4982754D01*
G01X26747619Y-4977166D01*
G01X26730601Y-4977166D01*
G01X26841345Y-4937034D02*
G01X26841345Y-5034316D01*
G01X26846933Y-5051334D01*
G01X26858363Y-5057176D01*
G01X26869793Y-5057176D01*
G01X26824073Y-4977166D02*
G01X26864205Y-4977166D01*
G01X26934817Y-4937034D02*
G01X26934817Y-5034316D01*
G01X26940405Y-5051334D01*
G01X26951835Y-5057176D01*
G01X26963265Y-5057176D01*
G01X26917545Y-4977166D02*
G01X26957677Y-4977166D01*
G01X27039719Y-4977166D02*
G01X27028289Y-4982754D01*
G01X27016859Y-4994184D01*
G01X27011017Y-5011456D01*
G01X27011017Y-5022886D01*
G01X27016859Y-5039904D01*
G01X27028289Y-5051334D01*
G01X27039719Y-5057176D01*
G01X27056737Y-5057176D01*
G01X27068167Y-5051334D01*
G01X27079597Y-5039904D01*
G01X27085439Y-5022886D01*
G01X27085439Y-5011456D01*
G01X27079597Y-4994184D01*
G01X27068167Y-4982754D01*
G01X27056737Y-4977166D01*
G01X27039719Y-4977166D01*
G01X27133191Y-4977166D02*
G01X27133191Y-5057176D01*
G01X27133191Y-5000026D02*
G01X27150463Y-4982754D01*
G01X27161893Y-4977166D01*
G01X27178911Y-4977166D01*
G01X27190341Y-4982754D01*
G01X27196183Y-5000026D01*
G01X27196183Y-5057176D01*
G01X27196183Y-5000026D02*
G01X27213201Y-4982754D01*
G01X27224631Y-4977166D01*
G01X27241903Y-4977166D01*
G01X27253333Y-4982754D01*
G01X27258921Y-5000026D01*
G01X27258921Y-5057176D01*
G01X27434689Y-4937034D02*
G01X27434689Y-5057176D01*
G01X27434689Y-5057176D02*
G01X27503269Y-5057176D01*
G01X27619601Y-4977166D02*
G01X27619601Y-5057176D01*
G01X27619601Y-4994184D02*
G01X27608171Y-4982754D01*
G01X27596741Y-4977166D01*
G01X27579723Y-4977166D01*
G01X27568293Y-4982754D01*
G01X27556863Y-4994184D01*
G01X27551021Y-5011456D01*
G01X27551021Y-5022886D01*
G01X27556863Y-5039904D01*
G01X27568293Y-5051334D01*
G01X27579723Y-5057176D01*
G01X27596741Y-5057176D01*
G01X27608171Y-5051334D01*
G01X27619601Y-5039904D01*
G01X27673195Y-4977166D02*
G01X27707485Y-5057176D01*
G01X27741775Y-4977166D02*
G01X27707485Y-5057176D01*
G01X27696055Y-5080036D01*
G01X27684625Y-5091466D01*
G01X27673195Y-5097054D01*
G01X27667353Y-5097054D01*
G01X27789527Y-5011456D02*
G01X27858107Y-5011456D01*
G01X27858107Y-5000026D01*
G01X27852519Y-4988596D01*
G01X27846677Y-4982754D01*
G01X27835247Y-4977166D01*
G01X27818229Y-4977166D01*
G01X27806799Y-4982754D01*
G01X27795369Y-4994184D01*
G01X27789527Y-5011456D01*
G01X27789527Y-5022886D01*
G01X27795369Y-5039904D01*
G01X27806799Y-5051334D01*
G01X27818229Y-5057176D01*
G01X27835247Y-5057176D01*
G01X27846677Y-5051334D01*
G01X27858107Y-5039904D01*
G01X27905859Y-4977166D02*
G01X27905859Y-5057176D01*
G01X27905859Y-5011456D02*
G01X27911701Y-4994184D01*
G01X27923131Y-4982754D01*
G01X27934561Y-4977166D01*
G01X27951579Y-4977166D01*
G01X13706896Y-5557738D02*
G01X13701054Y-5574756D01*
G01X13689624Y-5586186D01*
G01X13672606Y-5592028D01*
G01X13666764Y-5592028D01*
G01X13649746Y-5586186D01*
G01X13638316Y-5574756D01*
G01X13632474Y-5557738D01*
G01X13632474Y-5551896D01*
G01X13638316Y-5534878D01*
G01X13649746Y-5523448D01*
G01X13666764Y-5517606D01*
G01X13672606Y-5517606D01*
G01X13689624Y-5523448D01*
G01X13701054Y-5534878D01*
G01X13706896Y-5557738D01*
G01X13706896Y-5586186D01*
G01X13701054Y-5614888D01*
G01X13689624Y-5631906D01*
G01X13672606Y-5637748D01*
G01X13661176Y-5637748D01*
G01X13643904Y-5631906D01*
G01X13638316Y-5620476D01*
G01X13823228Y-5534878D02*
G01X13817640Y-5523448D01*
G01X13800368Y-5517606D01*
G01X13788938Y-5517606D01*
G01X13771920Y-5523448D01*
G01X13760490Y-5540466D01*
G01X13754648Y-5569168D01*
G01X13754648Y-5597616D01*
G01X13760490Y-5620476D01*
G01X13771920Y-5631906D01*
G01X13788938Y-5637748D01*
G01X13794780Y-5637748D01*
G01X13811798Y-5631906D01*
G01X13823228Y-5620476D01*
G01X13829070Y-5603458D01*
G01X13829070Y-5597616D01*
G01X13823228Y-5580598D01*
G01X13811798Y-5569168D01*
G01X13794780Y-5563326D01*
G01X13788938Y-5563326D01*
G01X13771920Y-5569168D01*
G01X13760490Y-5580598D01*
G01X13754648Y-5597616D01*
G01X15046637Y-5540466D02*
G01X15058067Y-5534878D01*
G01X15075339Y-5517606D01*
G01X15075339Y-5637748D01*
G01X15128933Y-5546308D02*
G01X15128933Y-5540466D01*
G01X15134521Y-5529036D01*
G01X15140363Y-5523448D01*
G01X15151793Y-5517606D01*
G01X15174653Y-5517606D01*
G01X15186083Y-5523448D01*
G01X15191671Y-5529036D01*
G01X15197513Y-5540466D01*
G01X15197513Y-5551896D01*
G01X15191671Y-5563326D01*
G01X15180241Y-5580598D01*
G01X15123091Y-5637748D01*
G01X15203101Y-5637748D01*
G01X15256695Y-5609046D02*
G01X15250853Y-5614888D01*
G01X15256695Y-5620476D01*
G01X15262283Y-5614888D01*
G01X15256695Y-5609046D01*
G01X15344325Y-5517606D02*
G01X15327307Y-5523448D01*
G01X15315877Y-5540466D01*
G01X15310035Y-5569168D01*
G01X15310035Y-5586186D01*
G01X15315877Y-5614888D01*
G01X15327307Y-5631906D01*
G01X15344325Y-5637748D01*
G01X15355755Y-5637748D01*
G01X15373027Y-5631906D01*
G01X15384457Y-5614888D01*
G01X15390045Y-5586186D01*
G01X15390045Y-5569168D01*
G01X15384457Y-5540466D01*
G01X15373027Y-5523448D01*
G01X15355755Y-5517606D01*
G01X15344325Y-5517606D01*
G01X15437797Y-5557738D02*
G01X15437797Y-5637748D01*
G01X15437797Y-5580598D02*
G01X15455069Y-5563326D01*
G01X15466499Y-5557738D01*
G01X15483517Y-5557738D01*
G01X15494947Y-5563326D01*
G01X15500789Y-5580598D01*
G01X15500789Y-5637748D01*
G01X15500789Y-5580598D02*
G01X15517807Y-5563326D01*
G01X15529237Y-5557738D01*
G01X15546509Y-5557738D01*
G01X15557939Y-5563326D01*
G01X15563527Y-5580598D01*
G01X15563527Y-5637748D01*
G01X15611279Y-5517606D02*
G01X15617121Y-5523448D01*
G01X15622709Y-5517606D01*
G01X15617121Y-5512018D01*
G01X15611279Y-5517606D01*
G01X15617121Y-5557738D02*
G01X15617121Y-5637748D01*
G01X15670461Y-5517606D02*
G01X15670461Y-5637748D01*
G01X15758345Y-5494746D02*
G01X15746915Y-5506176D01*
G01X15735485Y-5523448D01*
G01X15724055Y-5546308D01*
G01X15718213Y-5574756D01*
G01X15718213Y-5597616D01*
G01X15724055Y-5626318D01*
G01X15735485Y-5649178D01*
G01X15746915Y-5666196D01*
G01X15758345Y-5677626D01*
G01X15840387Y-5517606D02*
G01X15823369Y-5523448D01*
G01X15811939Y-5540466D01*
G01X15806097Y-5569168D01*
G01X15806097Y-5586186D01*
G01X15811939Y-5614888D01*
G01X15823369Y-5631906D01*
G01X15840387Y-5637748D01*
G01X15851817Y-5637748D01*
G01X15869089Y-5631906D01*
G01X15880519Y-5614888D01*
G01X15886107Y-5586186D01*
G01X15886107Y-5569168D01*
G01X15880519Y-5540466D01*
G01X15869089Y-5523448D01*
G01X15851817Y-5517606D01*
G01X15840387Y-5517606D01*
G01X15939701Y-5609046D02*
G01X15933859Y-5614888D01*
G01X15939701Y-5620476D01*
G01X15945289Y-5614888D01*
G01X15939701Y-5609046D01*
G01X16004471Y-5517606D02*
G01X16067463Y-5517606D01*
G01X16033173Y-5563326D01*
G01X16050191Y-5563326D01*
G01X16061621Y-5569168D01*
G01X16067463Y-5574756D01*
G01X16073051Y-5592028D01*
G01X16073051Y-5603458D01*
G01X16067463Y-5620476D01*
G01X16056033Y-5631906D01*
G01X16038761Y-5637748D01*
G01X16021743Y-5637748D01*
G01X16004471Y-5631906D01*
G01X15998883Y-5626318D01*
G01X15993041Y-5614888D01*
G01X16155093Y-5517606D02*
G01X16138075Y-5523448D01*
G01X16126645Y-5540466D01*
G01X16120803Y-5569168D01*
G01X16120803Y-5586186D01*
G01X16126645Y-5614888D01*
G01X16138075Y-5631906D01*
G01X16155093Y-5637748D01*
G01X16166523Y-5637748D01*
G01X16183795Y-5631906D01*
G01X16195225Y-5614888D01*
G01X16200813Y-5586186D01*
G01X16200813Y-5569168D01*
G01X16195225Y-5540466D01*
G01X16183795Y-5523448D01*
G01X16166523Y-5517606D01*
G01X16155093Y-5517606D01*
G01X16317145Y-5517606D02*
G01X16259995Y-5517606D01*
G01X16254407Y-5569168D01*
G01X16259995Y-5563326D01*
G01X16277267Y-5557738D01*
G01X16294285Y-5557738D01*
G01X16311557Y-5563326D01*
G01X16322987Y-5574756D01*
G01X16328575Y-5592028D01*
G01X16328575Y-5603458D01*
G01X16322987Y-5620476D01*
G01X16311557Y-5631906D01*
G01X16294285Y-5637748D01*
G01X16277267Y-5637748D01*
G01X16259995Y-5631906D01*
G01X16254407Y-5626318D01*
G01X16248565Y-5614888D01*
G01X16376327Y-5557738D02*
G01X16376327Y-5637748D01*
G01X16376327Y-5580598D02*
G01X16393599Y-5563326D01*
G01X16405029Y-5557738D01*
G01X16422047Y-5557738D01*
G01X16433477Y-5563326D01*
G01X16439319Y-5580598D01*
G01X16439319Y-5637748D01*
G01X16439319Y-5580598D02*
G01X16456337Y-5563326D01*
G01X16467767Y-5557738D01*
G01X16485039Y-5557738D01*
G01X16496469Y-5563326D01*
G01X16502057Y-5580598D01*
G01X16502057Y-5637748D01*
G01X16549809Y-5557738D02*
G01X16549809Y-5637748D01*
G01X16549809Y-5580598D02*
G01X16567081Y-5563326D01*
G01X16578511Y-5557738D01*
G01X16595529Y-5557738D01*
G01X16606959Y-5563326D01*
G01X16612801Y-5580598D01*
G01X16612801Y-5637748D01*
G01X16612801Y-5580598D02*
G01X16629819Y-5563326D01*
G01X16641249Y-5557738D01*
G01X16658521Y-5557738D01*
G01X16669951Y-5563326D01*
G01X16675539Y-5580598D01*
G01X16675539Y-5637748D01*
G01X16723291Y-5494746D02*
G01X16734721Y-5506176D01*
G01X16746151Y-5523448D01*
G01X16757581Y-5546308D01*
G01X16763423Y-5574756D01*
G01X16763423Y-5597616D01*
G01X16757581Y-5626318D01*
G01X16746151Y-5649178D01*
G01X16734721Y-5666196D01*
G01X16723291Y-5677626D01*
G01X18883453Y-5517606D02*
G01X18883453Y-5637748D01*
G01X18883453Y-5517606D02*
G01X18935015Y-5517606D01*
G01X18952033Y-5523448D01*
G01X18957875Y-5529036D01*
G01X18963463Y-5540466D01*
G01X18963463Y-5557738D01*
G01X18957875Y-5569168D01*
G01X18952033Y-5574756D01*
G01X18935015Y-5580598D01*
G01X18883453Y-5580598D01*
G01X19051347Y-5517606D02*
G01X19051347Y-5637748D01*
G01X19011215Y-5517606D02*
G01X19091225Y-5517606D01*
G01X19138977Y-5517606D02*
G01X19138977Y-5637748D01*
G01X19218987Y-5517606D02*
G01X19218987Y-5637748D01*
G01X19138977Y-5574756D02*
G01X19218987Y-5574756D01*
G01X20344860Y-5517606D02*
G01X20344860Y-5637748D01*
G01X20344860Y-5517606D02*
G01X20396422Y-5517606D01*
G01X20413440Y-5523448D01*
G01X20419282Y-5529036D01*
G01X20424870Y-5540466D01*
G01X20424870Y-5551896D01*
G01X20419282Y-5563326D01*
G01X20413440Y-5569168D01*
G01X20396422Y-5574756D01*
G01X20344860Y-5574756D01*
G01X20384992Y-5574756D02*
G01X20424870Y-5637748D01*
G01X20501324Y-5557738D02*
G01X20489894Y-5563326D01*
G01X20478464Y-5574756D01*
G01X20472622Y-5592028D01*
G01X20472622Y-5603458D01*
G01X20478464Y-5620476D01*
G01X20489894Y-5631906D01*
G01X20501324Y-5637748D01*
G01X20518342Y-5637748D01*
G01X20529772Y-5631906D01*
G01X20541202Y-5620476D01*
G01X20547044Y-5603458D01*
G01X20547044Y-5592028D01*
G01X20541202Y-5574756D01*
G01X20529772Y-5563326D01*
G01X20518342Y-5557738D01*
G01X20501324Y-5557738D01*
G01X20594796Y-5557738D02*
G01X20594796Y-5614888D01*
G01X20600638Y-5631906D01*
G01X20612068Y-5637748D01*
G01X20629086Y-5637748D01*
G01X20640516Y-5631906D01*
G01X20657788Y-5614888D01*
G01X20657788Y-5557738D02*
G01X20657788Y-5637748D01*
G01X20705540Y-5557738D02*
G01X20705540Y-5637748D01*
G01X20705540Y-5580598D02*
G01X20722812Y-5563326D01*
G01X20734242Y-5557738D01*
G01X20751260Y-5557738D01*
G01X20762690Y-5563326D01*
G01X20768532Y-5580598D01*
G01X20768532Y-5637748D01*
G01X20884864Y-5517606D02*
G01X20884864Y-5637748D01*
G01X20884864Y-5574756D02*
G01X20873434Y-5563326D01*
G01X20862004Y-5557738D01*
G01X20844986Y-5557738D01*
G01X20833556Y-5563326D01*
G01X20822126Y-5574756D01*
G01X20816284Y-5592028D01*
G01X20816284Y-5603458D01*
G01X20822126Y-5620476D01*
G01X20833556Y-5631906D01*
G01X20844986Y-5637748D01*
G01X20862004Y-5637748D01*
G01X20873434Y-5631906D01*
G01X20884864Y-5620476D01*
G01X21776041Y-5517606D02*
G01X21821761Y-5637748D01*
G01X21867481Y-5517606D02*
G01X21821761Y-5637748D01*
G01X21915233Y-5517606D02*
G01X21921075Y-5523448D01*
G01X21926663Y-5517606D01*
G01X21921075Y-5512018D01*
G01X21915233Y-5517606D01*
G01X21921075Y-5557738D02*
G01X21921075Y-5637748D01*
G01X22042995Y-5557738D02*
G01X22042995Y-5637748D01*
G01X22042995Y-5574756D02*
G01X22031565Y-5563326D01*
G01X22020135Y-5557738D01*
G01X22003117Y-5557738D01*
G01X21991687Y-5563326D01*
G01X21980257Y-5574756D01*
G01X21974415Y-5592028D01*
G01X21974415Y-5603458D01*
G01X21980257Y-5620476D01*
G01X21991687Y-5631906D01*
G01X22003117Y-5637748D01*
G01X22020135Y-5637748D01*
G01X22031565Y-5631906D01*
G01X22042995Y-5620476D01*
G01X25404721Y-5517606D02*
G01X25404721Y-5637748D01*
G01X25364589Y-5517606D02*
G01X25444599Y-5517606D01*
G01X25521053Y-5557738D02*
G01X25509623Y-5563326D01*
G01X25498193Y-5574756D01*
G01X25492351Y-5592028D01*
G01X25492351Y-5603458D01*
G01X25498193Y-5620476D01*
G01X25509623Y-5631906D01*
G01X25521053Y-5637748D01*
G01X25538071Y-5637748D01*
G01X25549501Y-5631906D01*
G01X25560931Y-5620476D01*
G01X25566773Y-5603458D01*
G01X25566773Y-5592028D01*
G01X25560931Y-5574756D01*
G01X25549501Y-5563326D01*
G01X25538071Y-5557738D01*
G01X25521053Y-5557738D01*
G01X25614525Y-5557738D02*
G01X25614525Y-5677626D01*
G01X25614525Y-5574756D02*
G01X25625955Y-5563326D01*
G01X25637385Y-5557738D01*
G01X25654657Y-5557738D01*
G01X25666087Y-5563326D01*
G01X25677517Y-5574756D01*
G01X25683105Y-5592028D01*
G01X25683105Y-5603458D01*
G01X25677517Y-5620476D01*
G01X25666087Y-5631906D01*
G01X25654657Y-5637748D01*
G01X25637385Y-5637748D01*
G01X25625955Y-5631906D01*
G01X25614525Y-5620476D01*
G01X25858873Y-5517606D02*
G01X25858873Y-5637748D01*
G01X25858873Y-5637748D02*
G01X25927453Y-5637748D01*
G01X26043785Y-5557738D02*
G01X26043785Y-5637748D01*
G01X26043785Y-5574756D02*
G01X26032355Y-5563326D01*
G01X26020925Y-5557738D01*
G01X26003907Y-5557738D01*
G01X25992477Y-5563326D01*
G01X25981047Y-5574756D01*
G01X25975205Y-5592028D01*
G01X25975205Y-5603458D01*
G01X25981047Y-5620476D01*
G01X25992477Y-5631906D01*
G01X26003907Y-5637748D01*
G01X26020925Y-5637748D01*
G01X26032355Y-5631906D01*
G01X26043785Y-5620476D01*
G01X26097379Y-5557738D02*
G01X26131669Y-5637748D01*
G01X26165959Y-5557738D02*
G01X26131669Y-5637748D01*
G01X26120239Y-5660608D01*
G01X26108809Y-5672038D01*
G01X26097379Y-5677626D01*
G01X26091537Y-5677626D01*
G01X26213711Y-5592028D02*
G01X26282291Y-5592028D01*
G01X26282291Y-5580598D01*
G01X26276703Y-5569168D01*
G01X26270861Y-5563326D01*
G01X26259431Y-5557738D01*
G01X26242413Y-5557738D01*
G01X26230983Y-5563326D01*
G01X26219553Y-5574756D01*
G01X26213711Y-5592028D01*
G01X26213711Y-5603458D01*
G01X26219553Y-5620476D01*
G01X26230983Y-5631906D01*
G01X26242413Y-5637748D01*
G01X26259431Y-5637748D01*
G01X26270861Y-5631906D01*
G01X26282291Y-5620476D01*
G01X26330043Y-5557738D02*
G01X26330043Y-5637748D01*
G01X26330043Y-5592028D02*
G01X26335885Y-5574756D01*
G01X26347315Y-5563326D01*
G01X26358745Y-5557738D01*
G01X26375763Y-5557738D01*
G01X26423515Y-5586186D02*
G01X26526385Y-5586186D01*
G01X26574137Y-5517606D02*
G01X26574137Y-5637748D01*
G01X26574137Y-5517606D02*
G01X26625699Y-5517606D01*
G01X26642717Y-5523448D01*
G01X26648559Y-5529036D01*
G01X26654147Y-5540466D01*
G01X26654147Y-5551896D01*
G01X26648559Y-5563326D01*
G01X26642717Y-5569168D01*
G01X26625699Y-5574756D01*
G01X26574137Y-5574756D02*
G01X26625699Y-5574756D01*
G01X26642717Y-5580598D01*
G01X26648559Y-5586186D01*
G01X26654147Y-5597616D01*
G01X26654147Y-5614888D01*
G01X26648559Y-5626318D01*
G01X26642717Y-5631906D01*
G01X26625699Y-5637748D01*
G01X26574137Y-5637748D01*
G01X26730601Y-5557738D02*
G01X26719171Y-5563326D01*
G01X26707741Y-5574756D01*
G01X26701899Y-5592028D01*
G01X26701899Y-5603458D01*
G01X26707741Y-5620476D01*
G01X26719171Y-5631906D01*
G01X26730601Y-5637748D01*
G01X26747619Y-5637748D01*
G01X26759049Y-5631906D01*
G01X26770479Y-5620476D01*
G01X26776321Y-5603458D01*
G01X26776321Y-5592028D01*
G01X26770479Y-5574756D01*
G01X26759049Y-5563326D01*
G01X26747619Y-5557738D01*
G01X26730601Y-5557738D01*
G01X26841345Y-5517606D02*
G01X26841345Y-5614888D01*
G01X26846933Y-5631906D01*
G01X26858363Y-5637748D01*
G01X26869793Y-5637748D01*
G01X26824073Y-5557738D02*
G01X26864205Y-5557738D01*
G01X26934817Y-5517606D02*
G01X26934817Y-5614888D01*
G01X26940405Y-5631906D01*
G01X26951835Y-5637748D01*
G01X26963265Y-5637748D01*
G01X26917545Y-5557738D02*
G01X26957677Y-5557738D01*
G01X27039719Y-5557738D02*
G01X27028289Y-5563326D01*
G01X27016859Y-5574756D01*
G01X27011017Y-5592028D01*
G01X27011017Y-5603458D01*
G01X27016859Y-5620476D01*
G01X27028289Y-5631906D01*
G01X27039719Y-5637748D01*
G01X27056737Y-5637748D01*
G01X27068167Y-5631906D01*
G01X27079597Y-5620476D01*
G01X27085439Y-5603458D01*
G01X27085439Y-5592028D01*
G01X27079597Y-5574756D01*
G01X27068167Y-5563326D01*
G01X27056737Y-5557738D01*
G01X27039719Y-5557738D01*
G01X27133191Y-5557738D02*
G01X27133191Y-5637748D01*
G01X27133191Y-5580598D02*
G01X27150463Y-5563326D01*
G01X27161893Y-5557738D01*
G01X27178911Y-5557738D01*
G01X27190341Y-5563326D01*
G01X27196183Y-5580598D01*
G01X27196183Y-5637748D01*
G01X27196183Y-5580598D02*
G01X27213201Y-5563326D01*
G01X27224631Y-5557738D01*
G01X27241903Y-5557738D01*
G01X27253333Y-5563326D01*
G01X27258921Y-5580598D01*
G01X27258921Y-5637748D01*
G01X27434689Y-5517606D02*
G01X27434689Y-5637748D01*
G01X27434689Y-5637748D02*
G01X27503269Y-5637748D01*
G01X27619601Y-5557738D02*
G01X27619601Y-5637748D01*
G01X27619601Y-5574756D02*
G01X27608171Y-5563326D01*
G01X27596741Y-5557738D01*
G01X27579723Y-5557738D01*
G01X27568293Y-5563326D01*
G01X27556863Y-5574756D01*
G01X27551021Y-5592028D01*
G01X27551021Y-5603458D01*
G01X27556863Y-5620476D01*
G01X27568293Y-5631906D01*
G01X27579723Y-5637748D01*
G01X27596741Y-5637748D01*
G01X27608171Y-5631906D01*
G01X27619601Y-5620476D01*
G01X27673195Y-5557738D02*
G01X27707485Y-5637748D01*
G01X27741775Y-5557738D02*
G01X27707485Y-5637748D01*
G01X27696055Y-5660608D01*
G01X27684625Y-5672038D01*
G01X27673195Y-5677626D01*
G01X27667353Y-5677626D01*
G01X27789527Y-5592028D02*
G01X27858107Y-5592028D01*
G01X27858107Y-5580598D01*
G01X27852519Y-5569168D01*
G01X27846677Y-5563326D01*
G01X27835247Y-5557738D01*
G01X27818229Y-5557738D01*
G01X27806799Y-5563326D01*
G01X27795369Y-5574756D01*
G01X27789527Y-5592028D01*
G01X27789527Y-5603458D01*
G01X27795369Y-5620476D01*
G01X27806799Y-5631906D01*
G01X27818229Y-5637748D01*
G01X27835247Y-5637748D01*
G01X27846677Y-5631906D01*
G01X27858107Y-5620476D01*
G01X27905859Y-5557738D02*
G01X27905859Y-5637748D01*
G01X27905859Y-5592028D02*
G01X27911701Y-5574756D01*
G01X27923131Y-5563326D01*
G01X27934561Y-5557738D01*
G01X27951579Y-5557738D01*

G04 Image Start*
G36*
G01X12467863Y-3956504D02*
G01X12362249Y-3945023D01*
G01X12319374Y-4042229D01*
G01X12276499Y-3945023D01*
G01X12170886Y-3956504D01*
G01X12233649Y-3870779D01*
G01X12193927Y-3816524D01*
G01X12225420Y-3816524D01*
G01X12265120Y-3870779D01*
G01X12225420Y-3925033D01*
G01X12292247Y-3917769D01*
G01X12292247Y-3917769D01*
G01X12319374Y-3979262D01*
G01X12346501Y-3917769D01*
G01X12413329Y-3925033D01*
G01X12373629Y-3870779D01*
G01X12413303Y-3816550D01*
G01X12346476Y-3823814D01*
G01X12319374Y-3762295D01*
G01X12292247Y-3823789D01*
G01X12225420Y-3816524D01*
G01X12193927Y-3816524D01*
G01X12170886Y-3785054D01*
G01X12276524Y-3796534D01*
G01X12319374Y-3699329D01*
G01X12362249Y-3796534D01*
G01X12467863Y-3785054D01*
G01X12405099Y-3870779D01*
G01X12467863Y-3956504D01*
G37*
G36*
G01X12338869Y-2842199D02*
G01X12331129Y-2842787D01*
G01X12323286Y-2842986D01*
G01X12315443Y-2842787D01*
G01X12307702Y-2842199D01*
G01X12300075Y-2841230D01*
G01X12292570Y-2839890D01*
G01X12277964Y-2836135D01*
G01X12263962Y-2831010D01*
G01X12250640Y-2824593D01*
G01X12238074Y-2816960D01*
G01X12226342Y-2808187D01*
G01X12215520Y-2798352D01*
G01X12205684Y-2787529D01*
G01X12196911Y-2775797D01*
G01X12189278Y-2763232D01*
G01X12182861Y-2749910D01*
G01X12177737Y-2735908D01*
G01X12173982Y-2721302D01*
G01X12172642Y-2713796D01*
G01X12171672Y-2706169D01*
G01X12171084Y-2698429D01*
G01X12170886Y-2690586D01*
G01X12196286Y-2690586D01*
G01X12196943Y-2703552D01*
G01X12198870Y-2716148D01*
G01X12202005Y-2728310D01*
G01X12206282Y-2739972D01*
G01X12211637Y-2751072D01*
G01X12218005Y-2761543D01*
G01X12225323Y-2771323D01*
G01X12233525Y-2780346D01*
G01X12242549Y-2788549D01*
G01X12252328Y-2795866D01*
G01X12262800Y-2802235D01*
G01X12273899Y-2807590D01*
G01X12285562Y-2811866D01*
G01X12297723Y-2815001D01*
G01X12297723Y-2815001D01*
G01X12310319Y-2816929D01*
G01X12323286Y-2817586D01*
G01X12336252Y-2816929D01*
G01X12348848Y-2815001D01*
G01X12361010Y-2811866D01*
G01X12372672Y-2807590D01*
G01X12383772Y-2802235D01*
G01X12394243Y-2795866D01*
G01X12404023Y-2788549D01*
G01X12413046Y-2780346D01*
G01X12421249Y-2771323D01*
G01X12428566Y-2761543D01*
G01X12434935Y-2751072D01*
G01X12440290Y-2739972D01*
G01X12444566Y-2728310D01*
G01X12447701Y-2716148D01*
G01X12449629Y-2703552D01*
G01X12450286Y-2690586D01*
G01X12449629Y-2677619D01*
G01X12447701Y-2665023D01*
G01X12444566Y-2652862D01*
G01X12440290Y-2641199D01*
G01X12434935Y-2630100D01*
G01X12428566Y-2619628D01*
G01X12421249Y-2609849D01*
G01X12413046Y-2600825D01*
G01X12404023Y-2592623D01*
G01X12394243Y-2585305D01*
G01X12383772Y-2578937D01*
G01X12372672Y-2573582D01*
G01X12361010Y-2569305D01*
G01X12348848Y-2566171D01*
G01X12336252Y-2564243D01*
G01X12323286Y-2563586D01*
G01X12310319Y-2564243D01*
G01X12297723Y-2566171D01*
G01X12285562Y-2569305D01*
G01X12273899Y-2573582D01*
G01X12262800Y-2578937D01*
G01X12252328Y-2585305D01*
G01X12242549Y-2592623D01*
G01X12233525Y-2600825D01*
G01X12225323Y-2609849D01*
G01X12218005Y-2619628D01*
G01X12211637Y-2630100D01*
G01X12206282Y-2641199D01*
G01X12202005Y-2652862D01*
G01X12198870Y-2665023D01*
G01X12196943Y-2677619D01*
G01X12196286Y-2690586D01*
G01X12170886Y-2690586D01*
G01X12171084Y-2682743D01*
G01X12171672Y-2675002D01*
G01X12172642Y-2667375D01*
G01X12173982Y-2659870D01*
G01X12177737Y-2645264D01*
G01X12182861Y-2631262D01*
G01X12189278Y-2617940D01*
G01X12196911Y-2605374D01*
G01X12205684Y-2593642D01*
G01X12215520Y-2582820D01*
G01X12226342Y-2572984D01*
G01X12238074Y-2564211D01*
G01X12250640Y-2556578D01*
G01X12263962Y-2550161D01*
G01X12277964Y-2545037D01*
G01X12292570Y-2541282D01*
G01X12300075Y-2539942D01*
G01X12307702Y-2538972D01*
G01X12315443Y-2538384D01*
G01X12323286Y-2538186D01*
G01X12331129Y-2538384D01*
G01X12338869Y-2538972D01*
G01X12346496Y-2539942D01*
G01X12354002Y-2541282D01*
G01X12368608Y-2545037D01*
G01X12382610Y-2550161D01*
G01X12395932Y-2556578D01*
G01X12408497Y-2564211D01*
G01X12420229Y-2572984D01*
G01X12431052Y-2582820D01*
G01X12440887Y-2593642D01*
G01X12449660Y-2605374D01*
G01X12457293Y-2617940D01*
G01X12463710Y-2631262D01*
G01X12468835Y-2645264D01*
G01X12472590Y-2659870D01*
G01X12473930Y-2667375D01*
G01X12474899Y-2675002D01*
G01X12475487Y-2682743D01*
G01X12475686Y-2690586D01*
G01X12475487Y-2698429D01*
G01X12474899Y-2706169D01*
G01X12473930Y-2713796D01*
G01X12472590Y-2721302D01*
G01X12468835Y-2735908D01*
G01X12463710Y-2749910D01*
G01X12457293Y-2763232D01*
G01X12449660Y-2775797D01*
G01X12440887Y-2787529D01*
G01X12431052Y-2798352D01*
G01X12420229Y-2808187D01*
G01X12408497Y-2816960D01*
G01X12395932Y-2824593D01*
G01X12382610Y-2831010D01*
G01X12368608Y-2836135D01*
G01X12354002Y-2839890D01*
G01X12346496Y-2841230D01*
G01X12338869Y-2842199D01*
G37*
G36*
G01X12475686Y-5082137D02*
G01X12392577Y-5082137D01*
G01X12392577Y-5165271D01*
G01X12254020Y-5165271D01*
G01X12254020Y-5082163D01*
G01X12170886Y-5082163D01*
G01X12170886Y-4969006D01*
G01X12196286Y-4969006D01*
G01X12196286Y-5056737D01*
G01X12279420Y-5056737D01*
G01X12279420Y-5139871D01*
G01X12279420Y-5139871D01*
G01X12367152Y-5139871D01*
G01X12367152Y-5056763D01*
G01X12450286Y-5056763D01*
G01X12450286Y-4969006D01*
G01X12367152Y-4969006D01*
G01X12367152Y-4885871D01*
G01X12279420Y-4885871D01*
G01X12279420Y-4969006D01*
G01X12196286Y-4969006D01*
G01X12170886Y-4969006D01*
G01X12170886Y-4943606D01*
G01X12254020Y-4943606D01*
G01X12254020Y-4860471D01*
G01X12392552Y-4860471D01*
G01X12392552Y-4943606D01*
G01X12475686Y-4943606D01*
G01X12475686Y-5082137D01*
G37*
G36*
G01X12475686Y-4279900D02*
G01X12405658Y-4432300D01*
G01X12475686Y-4584700D01*
G01X12323286Y-4514672D01*
G01X12170886Y-4584700D01*
G01X12194648Y-4532986D01*
G01X12222600Y-4532986D01*
G01X12312669Y-4491584D01*
G01X12323286Y-4486707D01*
G01X12333903Y-4491584D01*
G01X12423971Y-4532986D01*
G01X12382569Y-4442917D01*
G01X12377693Y-4432300D01*
G01X12382569Y-4421683D01*
G01X12423971Y-4331614D01*
G01X12333903Y-4373016D01*
G01X12323286Y-4377893D01*
G01X12312669Y-4373016D01*
G01X12222600Y-4331614D01*
G01X12264002Y-4421683D01*
G01X12268879Y-4432300D01*
G01X12268879Y-4432300D01*
G01X12264002Y-4442917D01*
G01X12222600Y-4532986D01*
G01X12194648Y-4532986D01*
G01X12240914Y-4432300D01*
G01X12170886Y-4279900D01*
G01X12323286Y-4349928D01*
G01X12475686Y-4279900D01*
G37*
G36*
G01X12170886Y-3118757D02*
G01X12475686Y-3118757D01*
G01X12323286Y-3382714D01*
G01X12185551Y-3144157D01*
G01X12214879Y-3144157D01*
G01X12323286Y-3331914D01*
G01X12431693Y-3144157D01*
G01X12431693Y-3144157D01*
G01X12214879Y-3144157D01*
G01X12185551Y-3144157D01*
G01X12170886Y-3118757D01*
G37*
G36*
G01X12170886Y-1957614D02*
G01X12450286Y-1957614D01*
G01X12450286Y-2237014D01*
G01X12170886Y-2237014D01*
G01X12170886Y-1983014D01*
G01X12196286Y-1983014D01*
G01X12196286Y-2211614D01*
G01X12424886Y-2211614D01*
G01X12424886Y-1983014D01*
G01X12424886Y-1983014D01*
G01X12196286Y-1983014D01*
G01X12170886Y-1983014D01*
G01X12170886Y-1957614D01*
G37*
G36*
G01X12450286Y-5720443D02*
G01X12348686Y-5720443D01*
G01X12310586Y-5644243D01*
G01X12272486Y-5720443D01*
G01X12170886Y-5720443D01*
G01X12170886Y-5695043D01*
G01X12196286Y-5695043D01*
G01X12256789Y-5695043D01*
G01X12287853Y-5632889D01*
G01X12310586Y-5587448D01*
G01X12333319Y-5632889D01*
G01X12364383Y-5695043D01*
G01X12424886Y-5695043D01*
G01X12424886Y-5634540D01*
G01X12362732Y-5603450D01*
G01X12317291Y-5580743D01*
G01X12362732Y-5558035D01*
G01X12424886Y-5526946D01*
G01X12424886Y-5466443D01*
G01X12364383Y-5466443D01*
G01X12333319Y-5528597D01*
G01X12310586Y-5574037D01*
G01X12287853Y-5528597D01*
G01X12256789Y-5466443D01*
G01X12196286Y-5466443D01*
G01X12196286Y-5526946D01*
G01X12258440Y-5558035D01*
G01X12303880Y-5580743D01*
G01X12258440Y-5603450D01*
G01X12196286Y-5634540D01*
G01X12196286Y-5695043D01*
G01X12196286Y-5695043D01*
G01X12170886Y-5695043D01*
G01X12170886Y-5618843D01*
G01X12247086Y-5580743D01*
G01X12170886Y-5542643D01*
G01X12170886Y-5441043D01*
G01X12272486Y-5441043D01*
G01X12310586Y-5517243D01*
G01X12348686Y-5441043D01*
G01X12450286Y-5441043D01*
G01X12450286Y-5542643D01*
G01X12374086Y-5580743D01*
G01X12450286Y-5618843D01*
G01X12450286Y-5720443D01*
G37*

G04 PolygonModel Start*
G54D18*
G01X11880600Y-5876471D02*
G01X28542311Y-5876471D01*
G01X11880600Y-5295900D02*
G01X28542311Y-5295900D01*
G01X11880600Y-4715329D02*
G01X28542311Y-4715329D01*
G01X11880600Y-4134757D02*
G01X28542311Y-4134757D01*
G01X11880600Y-3554186D02*
G01X28542311Y-3554186D01*
G01X11880600Y-2973614D02*
G01X28542311Y-2973614D01*
G01X11880600Y-2393043D02*
G01X28542311Y-2393043D01*
G01X11880600Y-1812471D02*
G01X28542311Y-1812471D01*
G01X11880600Y-1231900D02*
G01X28542311Y-1231900D01*
G01X11880600Y-1231900D02*
G01X11880600Y-5851071D01*
G01X13332029Y-1231900D02*
G01X13332029Y-5851071D01*
G01X14746192Y-1231900D02*
G01X14746192Y-5851071D01*
G01X18583007Y-1231900D02*
G01X18583007Y-5851071D01*
G01X20044414Y-1231900D02*
G01X20044414Y-5851071D01*
G01X21475595Y-1231900D02*
G01X21475595Y-5851071D01*
G01X23144774Y-1231900D02*
G01X23144774Y-5851071D01*
G01X25064143Y-1231900D02*
G01X25064143Y-5851071D01*
G01X28542311Y-1231900D02*
G01X28542311Y-5851071D01*

M02*

