G04 Layer: BottomSilkscreenLayer*
G04 EasyEDA Pro v3.2.148, 2026-07-30 20:47:14*
G04 Gerber Generator version 0.3*
G04 Scale: 100 percent, Rotated: No, Reflected: No*
G04 Dimensions in millimeters*
G04 Leading zeros omitted, absolute positions, 4 integers and 5 decimals*
G04 Generated by one-click*
G04 Object Configs: Pad,Via,Track,Text,Image,Dimension,BoardOutline,BoardCutout,CopperFilled,SolidRegion,FPCStiffener,Line,PlaneZone,ComponentProperty,ComponentSilkscreen,TearDrop*
G04 Layer Configs: 1,2,3,4,5,6,7,8,9,10,11,13,14,56*
G04 Copper Areas: 0*
%FSLAX45Y45*%
%MOMM*%
%ADD10C,0.1524*%
%ADD11C,0.127*%
%ADD12C,0.7860*%
G75*


G04 Text Start*
G54D10*
G01X6951980Y-4771390D02*
G01X6951980Y-4911344D01*
G01X6951980Y-4771390D02*
G01X6892036Y-4771390D01*
G01X6871970Y-4777994D01*
G01X6865366Y-4784852D01*
G01X6858508Y-4798060D01*
G01X6858508Y-4818126D01*
G01X6865366Y-4831334D01*
G01X6871970Y-4838192D01*
G01X6892036Y-4844796D01*
G01X6951980Y-4844796D01*
G01X6757924Y-4771390D02*
G01X6811264Y-4911344D01*
G01X6757924Y-4771390D02*
G01X6704584Y-4911344D01*
G01X6791198Y-4864862D02*
G01X6724650Y-4864862D01*
G01X6617208Y-4771390D02*
G01X6637274Y-4777994D01*
G01X6650736Y-4798060D01*
G01X6657340Y-4831334D01*
G01X6657340Y-4851400D01*
G01X6650736Y-4884674D01*
G01X6637274Y-4904740D01*
G01X6617208Y-4911344D01*
G01X6604000Y-4911344D01*
G01X6583934Y-4904740D01*
G01X6570726Y-4884674D01*
G01X6563868Y-4851400D01*
G01X6563868Y-4831334D01*
G01X6570726Y-4798060D01*
G01X6583934Y-4777994D01*
G01X6604000Y-4771390D01*
G01X6617208Y-4771390D01*
G01X6367272Y-4771390D02*
G01X6367272Y-4871466D01*
G01X6360668Y-4891532D01*
G01X6347206Y-4904740D01*
G01X6327140Y-4911344D01*
G01X6313932Y-4911344D01*
G01X6293866Y-4904740D01*
G01X6280658Y-4891532D01*
G01X6273800Y-4871466D01*
G01X6273800Y-4771390D01*
G01X6133084Y-4791456D02*
G01X6146546Y-4777994D01*
G01X6166612Y-4771390D01*
G01X6193282Y-4771390D01*
G01X6213094Y-4777994D01*
G01X6226556Y-4791456D01*
G01X6226556Y-4804664D01*
G01X6219952Y-4818126D01*
G01X6213094Y-4824730D01*
G01X6199886Y-4831334D01*
G01X6159754Y-4844796D01*
G01X6146546Y-4851400D01*
G01X6139942Y-4858004D01*
G01X6133084Y-4871466D01*
G01X6133084Y-4891532D01*
G01X6146546Y-4904740D01*
G01X6166612Y-4911344D01*
G01X6193282Y-4911344D01*
G01X6213094Y-4904740D01*
G01X6226556Y-4891532D01*
G01X6032500Y-4771390D02*
G01X6085840Y-4911344D01*
G01X6032500Y-4771390D02*
G01X5979160Y-4911344D01*
G01X6065774Y-4864862D02*
G01X5999226Y-4864862D01*
G01X5931916Y-4771390D02*
G01X5931916Y-4911344D01*
G01X5931916Y-4771390D02*
G01X5871972Y-4771390D01*
G01X5851906Y-4777994D01*
G01X5845302Y-4784852D01*
G01X5838444Y-4798060D01*
G01X5838444Y-4811522D01*
G01X5845302Y-4824730D01*
G01X5851906Y-4831334D01*
G01X5871972Y-4838192D01*
G01X5931916Y-4838192D01*
G01X5885180Y-4838192D02*
G01X5838444Y-4911344D01*
G01X5744464Y-4771390D02*
G01X5744464Y-4911344D01*
G01X5791200Y-4771390D02*
G01X5697728Y-4771390D01*
G01X5583682Y-4771390D02*
G01X5650484Y-4864862D01*
G01X5550408Y-4864862D01*
G01X5583682Y-4771390D02*
G01X5583682Y-4911344D01*
G01X5503164Y-4958080D02*
G01X5383022Y-4958080D01*
G01X5289042Y-4771390D02*
G01X5289042Y-4911344D01*
G01X5335778Y-4771390D02*
G01X5242306Y-4771390D01*
G01X5195062Y-4771390D02*
G01X5101590Y-4911344D01*
G01X5101590Y-4771390D02*
G01X5195062Y-4911344D01*
G01X6951980Y-4999990D02*
G01X6951980Y-5139944D01*
G01X6951980Y-4999990D02*
G01X6892036Y-4999990D01*
G01X6871970Y-5006594D01*
G01X6865366Y-5013452D01*
G01X6858508Y-5026660D01*
G01X6858508Y-5046726D01*
G01X6865366Y-5059934D01*
G01X6871970Y-5066792D01*
G01X6892036Y-5073396D01*
G01X6951980Y-5073396D01*
G01X6711188Y-5033264D02*
G01X6717792Y-5020056D01*
G01X6731254Y-5006594D01*
G01X6744462Y-4999990D01*
G01X6771132Y-4999990D01*
G01X6784594Y-5006594D01*
G01X6797802Y-5020056D01*
G01X6804660Y-5033264D01*
G01X6811264Y-5053330D01*
G01X6811264Y-5086604D01*
G01X6804660Y-5106670D01*
G01X6797802Y-5120132D01*
G01X6784594Y-5133340D01*
G01X6771132Y-5139944D01*
G01X6744462Y-5139944D01*
G01X6731254Y-5133340D01*
G01X6717792Y-5120132D01*
G01X6711188Y-5106670D01*
G01X6663944Y-5026660D02*
G01X6650482Y-5020056D01*
G01X6630670Y-4999990D01*
G01X6630670Y-5139944D01*
G01X6583426Y-5026660D02*
G01X6569964Y-5020056D01*
G01X6550152Y-4999990D01*
G01X6550152Y-5139944D01*
G01X6353556Y-4999990D02*
G01X6353556Y-5100066D01*
G01X6346952Y-5120132D01*
G01X6333490Y-5133340D01*
G01X6313424Y-5139944D01*
G01X6300216Y-5139944D01*
G01X6280150Y-5133340D01*
G01X6266942Y-5120132D01*
G01X6260084Y-5100066D01*
G01X6260084Y-4999990D01*
G01X6119368Y-5020056D02*
G01X6132830Y-5006594D01*
G01X6152896Y-4999990D01*
G01X6179566Y-4999990D01*
G01X6199378Y-5006594D01*
G01X6212840Y-5020056D01*
G01X6212840Y-5033264D01*
G01X6206236Y-5046726D01*
G01X6199378Y-5053330D01*
G01X6186170Y-5059934D01*
G01X6146038Y-5073396D01*
G01X6132830Y-5080000D01*
G01X6126226Y-5086604D01*
G01X6119368Y-5100066D01*
G01X6119368Y-5120132D01*
G01X6132830Y-5133340D01*
G01X6152896Y-5139944D01*
G01X6179566Y-5139944D01*
G01X6199378Y-5133340D01*
G01X6212840Y-5120132D01*
G01X6018784Y-4999990D02*
G01X6072124Y-5139944D01*
G01X6018784Y-4999990D02*
G01X5965444Y-5139944D01*
G01X6052058Y-5093462D02*
G01X5985510Y-5093462D01*
G01X5918200Y-4999990D02*
G01X5918200Y-5139944D01*
G01X5918200Y-4999990D02*
G01X5858256Y-4999990D01*
G01X5838190Y-5006594D01*
G01X5831586Y-5013452D01*
G01X5824728Y-5026660D01*
G01X5824728Y-5040122D01*
G01X5831586Y-5053330D01*
G01X5838190Y-5059934D01*
G01X5858256Y-5066792D01*
G01X5918200Y-5066792D01*
G01X5871464Y-5066792D02*
G01X5824728Y-5139944D01*
G01X5730748Y-4999990D02*
G01X5730748Y-5139944D01*
G01X5777484Y-4999990D02*
G01X5684012Y-4999990D01*
G01X5569966Y-4999990D02*
G01X5636768Y-5093462D01*
G01X5536692Y-5093462D01*
G01X5569966Y-4999990D02*
G01X5569966Y-5139944D01*
G01X5489448Y-5186680D02*
G01X5369306Y-5186680D01*
G01X5322062Y-4999990D02*
G01X5322062Y-5139944D01*
G01X5322062Y-4999990D02*
G01X5262118Y-4999990D01*
G01X5242052Y-5006594D01*
G01X5235448Y-5013452D01*
G01X5228590Y-5026660D01*
G01X5228590Y-5040122D01*
G01X5235448Y-5053330D01*
G01X5242052Y-5059934D01*
G01X5262118Y-5066792D01*
G01X5322062Y-5066792D01*
G01X5275326Y-5066792D02*
G01X5228590Y-5139944D01*
G01X5181346Y-4999990D02*
G01X5087874Y-5139944D01*
G01X5087874Y-4999990D02*
G01X5181346Y-5139944D01*
G01X7511542Y-1366520D02*
G01X7599426Y-1366520D01*
G01X7617206Y-1372362D01*
G01X7628890Y-1384046D01*
G01X7634732Y-1401826D01*
G01X7634732Y-1413510D01*
G01X7628890Y-1431036D01*
G01X7617206Y-1442974D01*
G01X7599426Y-1448816D01*
G01X7511542Y-1448816D01*
G01X7529068Y-1574546D02*
G01X7517384Y-1562862D01*
G01X7511542Y-1545082D01*
G01X7511542Y-1521714D01*
G01X7517384Y-1503934D01*
G01X7529068Y-1492250D01*
G01X7540752Y-1492250D01*
G01X7552436Y-1498092D01*
G01X7558532Y-1503934D01*
G01X7564374Y-1515872D01*
G01X7576058Y-1550924D01*
G01X7581900Y-1562862D01*
G01X7587742Y-1568704D01*
G01X7599426Y-1574546D01*
G01X7617206Y-1574546D01*
G01X7628890Y-1562862D01*
G01X7634732Y-1545082D01*
G01X7634732Y-1521714D01*
G01X7628890Y-1503934D01*
G01X7617206Y-1492250D01*
G01X7511542Y-1617980D02*
G01X7634732Y-1617980D01*
G01X7511542Y-1617980D02*
G01X7511542Y-1694434D01*
G01X7570216Y-1617980D02*
G01X7570216Y-1664970D01*
G01X7634732Y-1617980D02*
G01X7634732Y-1694434D01*
G01X7529068Y-1951736D02*
G01X7517384Y-1940052D01*
G01X7511542Y-1922272D01*
G01X7511542Y-1898904D01*
G01X7517384Y-1881124D01*
G01X7529068Y-1869440D01*
G01X7540752Y-1869440D01*
G01X7552436Y-1875282D01*
G01X7558532Y-1881124D01*
G01X7564374Y-1893062D01*
G01X7576058Y-1928114D01*
G01X7581900Y-1940052D01*
G01X7587742Y-1945894D01*
G01X7599426Y-1951736D01*
G01X7617206Y-1951736D01*
G01X7628890Y-1940052D01*
G01X7634732Y-1922272D01*
G01X7634732Y-1898904D01*
G01X7628890Y-1881124D01*
G01X7617206Y-1869440D01*
G01X7511542Y-1995170D02*
G01X7634732Y-1995170D01*
G01X7511542Y-1995170D02*
G01X7511542Y-2048002D01*
G01X7517384Y-2065782D01*
G01X7523226Y-2071624D01*
G01X7534910Y-2077466D01*
G01X7552436Y-2077466D01*
G01X7564374Y-2071624D01*
G01X7570216Y-2065782D01*
G01X7576058Y-2048002D01*
G01X7576058Y-1995170D01*
G01X7511542Y-2120900D02*
G01X7634732Y-2120900D01*
G01X7540752Y-2170176D02*
G01X7534910Y-2170176D01*
G01X7523226Y-2176018D01*
G01X7517384Y-2181860D01*
G01X7511542Y-2193798D01*
G01X7511542Y-2217166D01*
G01X7517384Y-2228850D01*
G01X7523226Y-2234946D01*
G01X7534910Y-2240788D01*
G01X7546594Y-2240788D01*
G01X7558532Y-2234946D01*
G01X7576058Y-2223008D01*
G01X7634732Y-2164334D01*
G01X7634732Y-2246630D01*
G01X7714742Y-1366520D02*
G01X7837932Y-1366520D01*
G01X7714742Y-1366520D02*
G01X7714742Y-1419352D01*
G01X7720584Y-1437132D01*
G01X7726426Y-1442974D01*
G01X7738110Y-1448816D01*
G01X7755636Y-1448816D01*
G01X7767574Y-1442974D01*
G01X7773416Y-1437132D01*
G01X7779258Y-1419352D01*
G01X7779258Y-1366520D01*
G01X7743952Y-1580388D02*
G01X7732268Y-1574546D01*
G01X7720584Y-1562862D01*
G01X7714742Y-1550924D01*
G01X7714742Y-1527556D01*
G01X7720584Y-1515872D01*
G01X7732268Y-1503934D01*
G01X7743952Y-1498092D01*
G01X7761732Y-1492250D01*
G01X7790942Y-1492250D01*
G01X7808722Y-1498092D01*
G01X7820406Y-1503934D01*
G01X7832090Y-1515872D01*
G01X7837932Y-1527556D01*
G01X7837932Y-1550924D01*
G01X7832090Y-1562862D01*
G01X7820406Y-1574546D01*
G01X7808722Y-1580388D01*
G01X7714742Y-1635506D02*
G01X7714742Y-1700276D01*
G01X7761732Y-1664970D01*
G01X7761732Y-1682496D01*
G01X7767574Y-1694434D01*
G01X7773416Y-1700276D01*
G01X7790942Y-1706118D01*
G01X7802626Y-1706118D01*
G01X7820406Y-1700276D01*
G01X7832090Y-1688338D01*
G01X7837932Y-1670812D01*
G01X7837932Y-1653286D01*
G01X7832090Y-1635506D01*
G01X7826248Y-1629664D01*
G01X7814564Y-1623822D01*
G01X7785100Y-1881124D02*
G01X7785100Y-1986788D01*
G01X7714742Y-2161794D02*
G01X7837932Y-2161794D01*
G01X7714742Y-2161794D02*
G01X7837932Y-2208784D01*
G01X7714742Y-2255774D02*
G01X7837932Y-2208784D01*
G01X7714742Y-2255774D02*
G01X7837932Y-2255774D01*
G01X7714742Y-2334514D02*
G01X7720584Y-2322830D01*
G01X7732268Y-2310892D01*
G01X7743952Y-2305050D01*
G01X7761732Y-2299208D01*
G01X7790942Y-2299208D01*
G01X7808722Y-2305050D01*
G01X7820406Y-2310892D01*
G01X7832090Y-2322830D01*
G01X7837932Y-2334514D01*
G01X7837932Y-2357882D01*
G01X7832090Y-2369820D01*
G01X7820406Y-2381504D01*
G01X7808722Y-2387346D01*
G01X7790942Y-2393188D01*
G01X7761732Y-2393188D01*
G01X7743952Y-2387346D01*
G01X7732268Y-2381504D01*
G01X7720584Y-2369820D01*
G01X7714742Y-2357882D01*
G01X7714742Y-2334514D01*
G01X7732268Y-2518918D02*
G01X7720584Y-2507234D01*
G01X7714742Y-2489454D01*
G01X7714742Y-2466086D01*
G01X7720584Y-2448306D01*
G01X7732268Y-2436622D01*
G01X7743952Y-2436622D01*
G01X7755636Y-2442464D01*
G01X7761732Y-2448306D01*
G01X7767574Y-2460244D01*
G01X7779258Y-2495296D01*
G01X7785100Y-2507234D01*
G01X7790942Y-2513076D01*
G01X7802626Y-2518918D01*
G01X7820406Y-2518918D01*
G01X7832090Y-2507234D01*
G01X7837932Y-2489454D01*
G01X7837932Y-2466086D01*
G01X7832090Y-2448306D01*
G01X7820406Y-2436622D01*
G01X7714742Y-2562352D02*
G01X7837932Y-2562352D01*
G01X7691120Y-2778506D02*
G01X7702804Y-2766822D01*
G01X7720584Y-2754884D01*
G01X7743952Y-2743200D01*
G01X7773416Y-2737358D01*
G01X7796784Y-2737358D01*
G01X7826248Y-2743200D01*
G01X7849616Y-2754884D01*
G01X7867396Y-2766822D01*
G01X7879080Y-2778506D01*
G01X7714742Y-2839466D02*
G01X7814564Y-2839466D01*
G01X7832090Y-2845562D01*
G01X7837932Y-2857246D01*
G01X7837932Y-2868930D01*
G01X7755636Y-2821940D02*
G01X7755636Y-2863088D01*
G01X7755636Y-2941828D02*
G01X7761732Y-2929890D01*
G01X7773416Y-2918206D01*
G01X7790942Y-2912364D01*
G01X7802626Y-2912364D01*
G01X7820406Y-2918206D01*
G01X7832090Y-2929890D01*
G01X7837932Y-2941828D01*
G01X7837932Y-2959354D01*
G01X7832090Y-2971038D01*
G01X7820406Y-2982976D01*
G01X7802626Y-2988818D01*
G01X7790942Y-2988818D01*
G01X7773416Y-2982976D01*
G01X7761732Y-2971038D01*
G01X7755636Y-2959354D01*
G01X7755636Y-2941828D01*
G01X7743952Y-3251962D02*
G01X7732268Y-3246120D01*
G01X7720584Y-3234436D01*
G01X7714742Y-3222498D01*
G01X7714742Y-3199130D01*
G01X7720584Y-3187446D01*
G01X7732268Y-3175508D01*
G01X7743952Y-3169666D01*
G01X7761732Y-3163824D01*
G01X7790942Y-3163824D01*
G01X7808722Y-3169666D01*
G01X7820406Y-3175508D01*
G01X7832090Y-3187446D01*
G01X7837932Y-3199130D01*
G01X7837932Y-3222498D01*
G01X7832090Y-3234436D01*
G01X7820406Y-3246120D01*
G01X7808722Y-3251962D01*
G01X7714742Y-3295396D02*
G01X7837932Y-3295396D01*
G01X7714742Y-3295396D02*
G01X7837932Y-3342386D01*
G01X7714742Y-3389376D02*
G01X7837932Y-3342386D01*
G01X7714742Y-3389376D02*
G01X7837932Y-3389376D01*
G01X7714742Y-3432810D02*
G01X7837932Y-3432810D01*
G01X7714742Y-3432810D02*
G01X7714742Y-3473958D01*
G01X7720584Y-3491484D01*
G01X7732268Y-3503422D01*
G01X7743952Y-3509264D01*
G01X7761732Y-3515106D01*
G01X7790942Y-3515106D01*
G01X7808722Y-3509264D01*
G01X7820406Y-3503422D01*
G01X7832090Y-3491484D01*
G01X7837932Y-3473958D01*
G01X7837932Y-3432810D01*
G01X7691120Y-3558540D02*
G01X7702804Y-3570224D01*
G01X7720584Y-3582162D01*
G01X7743952Y-3593846D01*
G01X7773416Y-3599688D01*
G01X7796784Y-3599688D01*
G01X7826248Y-3593846D01*
G01X7849616Y-3582162D01*
G01X7867396Y-3570224D01*
G01X7879080Y-3558540D01*
G01X7917942Y-1366520D02*
G01X8041132Y-1366520D01*
G01X7917942Y-1366520D02*
G01X7917942Y-1419352D01*
G01X7923784Y-1437132D01*
G01X7929626Y-1442974D01*
G01X7941310Y-1448816D01*
G01X7958836Y-1448816D01*
G01X7970774Y-1442974D01*
G01X7976616Y-1437132D01*
G01X7982458Y-1419352D01*
G01X7982458Y-1366520D01*
G01X7917942Y-1492250D02*
G01X8041132Y-1492250D01*
G01X7917942Y-1492250D02*
G01X7917942Y-1545082D01*
G01X7923784Y-1562862D01*
G01X7929626Y-1568704D01*
G01X7941310Y-1574546D01*
G01X7952994Y-1574546D01*
G01X7964932Y-1568704D01*
G01X7970774Y-1562862D01*
G01X7976616Y-1545082D01*
G01X7976616Y-1492250D02*
G01X7976616Y-1545082D01*
G01X7982458Y-1562862D01*
G01X7988300Y-1568704D01*
G01X7999984Y-1574546D01*
G01X8017764Y-1574546D01*
G01X8029448Y-1568704D01*
G01X8035290Y-1562862D01*
G01X8041132Y-1545082D01*
G01X8041132Y-1492250D01*
G01X7941310Y-1617980D02*
G01X7935468Y-1629664D01*
G01X7917942Y-1647444D01*
G01X8041132Y-1647444D01*
G01X7917942Y-1702562D02*
G01X7917942Y-1767332D01*
G01X7964932Y-1732026D01*
G01X7964932Y-1749552D01*
G01X7970774Y-1761490D01*
G01X7976616Y-1767332D01*
G01X7994142Y-1773174D01*
G01X8005826Y-1773174D01*
G01X8023606Y-1767332D01*
G01X8035290Y-1755394D01*
G01X8041132Y-1737868D01*
G01X8041132Y-1720342D01*
G01X8035290Y-1702562D01*
G01X8029448Y-1696720D01*
G01X8017764Y-1690878D01*
G01X7988300Y-1948180D02*
G01X7988300Y-2053844D01*
G01X7935468Y-2311146D02*
G01X7923784Y-2299462D01*
G01X7917942Y-2281682D01*
G01X7917942Y-2258314D01*
G01X7923784Y-2240534D01*
G01X7935468Y-2228850D01*
G01X7947152Y-2228850D01*
G01X7958836Y-2234692D01*
G01X7964932Y-2240534D01*
G01X7970774Y-2252472D01*
G01X7982458Y-2287524D01*
G01X7988300Y-2299462D01*
G01X7994142Y-2305304D01*
G01X8005826Y-2311146D01*
G01X8023606Y-2311146D01*
G01X8035290Y-2299462D01*
G01X8041132Y-2281682D01*
G01X8041132Y-2258314D01*
G01X8035290Y-2240534D01*
G01X8023606Y-2228850D01*
G01X7947152Y-2442718D02*
G01X7935468Y-2436876D01*
G01X7923784Y-2425192D01*
G01X7917942Y-2413254D01*
G01X7917942Y-2389886D01*
G01X7923784Y-2378202D01*
G01X7935468Y-2366264D01*
G01X7947152Y-2360422D01*
G01X7964932Y-2354580D01*
G01X7994142Y-2354580D01*
G01X8011922Y-2360422D01*
G01X8023606Y-2366264D01*
G01X8035290Y-2378202D01*
G01X8041132Y-2389886D01*
G01X8041132Y-2413254D01*
G01X8035290Y-2425192D01*
G01X8023606Y-2436876D01*
G01X8011922Y-2442718D01*
G01X7917942Y-2486152D02*
G01X8041132Y-2486152D01*
G01X7917942Y-2568448D02*
G01X7999984Y-2486152D01*
G01X7970774Y-2515616D02*
G01X8041132Y-2568448D01*
G01X7894320Y-2784602D02*
G01X7906004Y-2772918D01*
G01X7923784Y-2760980D01*
G01X7947152Y-2749296D01*
G01X7976616Y-2743454D01*
G01X7999984Y-2743454D01*
G01X8029448Y-2749296D01*
G01X8052816Y-2760980D01*
G01X8070596Y-2772918D01*
G01X8082280Y-2784602D01*
G01X7917942Y-2845562D02*
G01X8017764Y-2845562D01*
G01X8035290Y-2851658D01*
G01X8041132Y-2863342D01*
G01X8041132Y-2875026D01*
G01X7958836Y-2828036D02*
G01X7958836Y-2869184D01*
G01X7958836Y-2947924D02*
G01X7964932Y-2935986D01*
G01X7976616Y-2924302D01*
G01X7994142Y-2918460D01*
G01X8005826Y-2918460D01*
G01X8023606Y-2924302D01*
G01X8035290Y-2935986D01*
G01X8041132Y-2947924D01*
G01X8041132Y-2965450D01*
G01X8035290Y-2977134D01*
G01X8023606Y-2989072D01*
G01X8005826Y-2994914D01*
G01X7994142Y-2994914D01*
G01X7976616Y-2989072D01*
G01X7964932Y-2977134D01*
G01X7958836Y-2965450D01*
G01X7958836Y-2947924D01*
G01X7947152Y-3258058D02*
G01X7935468Y-3252216D01*
G01X7923784Y-3240532D01*
G01X7917942Y-3228594D01*
G01X7917942Y-3205226D01*
G01X7923784Y-3193542D01*
G01X7935468Y-3181604D01*
G01X7947152Y-3175762D01*
G01X7964932Y-3169920D01*
G01X7994142Y-3169920D01*
G01X8011922Y-3175762D01*
G01X8023606Y-3181604D01*
G01X8035290Y-3193542D01*
G01X8041132Y-3205226D01*
G01X8041132Y-3228594D01*
G01X8035290Y-3240532D01*
G01X8023606Y-3252216D01*
G01X8011922Y-3258058D01*
G01X7917942Y-3301492D02*
G01X8041132Y-3301492D01*
G01X8041132Y-3301492D02*
G01X8041132Y-3372104D01*
G01X7917942Y-3415538D02*
G01X8041132Y-3497834D01*
G01X7917942Y-3497834D02*
G01X8041132Y-3415538D01*
G01X7894320Y-3541268D02*
G01X7906004Y-3552952D01*
G01X7923784Y-3564890D01*
G01X7947152Y-3576574D01*
G01X7976616Y-3582416D01*
G01X7999984Y-3582416D01*
G01X8029448Y-3576574D01*
G01X8052816Y-3564890D01*
G01X8070596Y-3552952D01*
G01X8082280Y-3541268D01*
G01X8121142Y-1366520D02*
G01X8244332Y-1366520D01*
G01X8121142Y-1366520D02*
G01X8121142Y-1419352D01*
G01X8126984Y-1437132D01*
G01X8132826Y-1442974D01*
G01X8144510Y-1448816D01*
G01X8162036Y-1448816D01*
G01X8173974Y-1442974D01*
G01X8179816Y-1437132D01*
G01X8185658Y-1419352D01*
G01X8185658Y-1366520D01*
G01X8150352Y-1580388D02*
G01X8138668Y-1574546D01*
G01X8126984Y-1562862D01*
G01X8121142Y-1550924D01*
G01X8121142Y-1527556D01*
G01X8126984Y-1515872D01*
G01X8138668Y-1503934D01*
G01X8150352Y-1498092D01*
G01X8168132Y-1492250D01*
G01X8197342Y-1492250D01*
G01X8215122Y-1498092D01*
G01X8226806Y-1503934D01*
G01X8238490Y-1515872D01*
G01X8244332Y-1527556D01*
G01X8244332Y-1550924D01*
G01X8238490Y-1562862D01*
G01X8226806Y-1574546D01*
G01X8215122Y-1580388D01*
G01X8150352Y-1629664D02*
G01X8144510Y-1629664D01*
G01X8132826Y-1635506D01*
G01X8126984Y-1641348D01*
G01X8121142Y-1653286D01*
G01X8121142Y-1676654D01*
G01X8126984Y-1688338D01*
G01X8132826Y-1694434D01*
G01X8144510Y-1700276D01*
G01X8156194Y-1700276D01*
G01X8168132Y-1694434D01*
G01X8185658Y-1682496D01*
G01X8244332Y-1623822D01*
G01X8244332Y-1706118D01*
G01X8191500Y-1881124D02*
G01X8191500Y-1986788D01*
G01X8121142Y-2161794D02*
G01X8244332Y-2161794D01*
G01X8121142Y-2161794D02*
G01X8244332Y-2208784D01*
G01X8121142Y-2255774D02*
G01X8244332Y-2208784D01*
G01X8121142Y-2255774D02*
G01X8244332Y-2255774D01*
G01X8121142Y-2299208D02*
G01X8244332Y-2299208D01*
G01X8138668Y-2424938D02*
G01X8126984Y-2413254D01*
G01X8121142Y-2395474D01*
G01X8121142Y-2372106D01*
G01X8126984Y-2354326D01*
G01X8138668Y-2342642D01*
G01X8150352Y-2342642D01*
G01X8162036Y-2348484D01*
G01X8168132Y-2354326D01*
G01X8173974Y-2366264D01*
G01X8185658Y-2401316D01*
G01X8191500Y-2413254D01*
G01X8197342Y-2419096D01*
G01X8209026Y-2424938D01*
G01X8226806Y-2424938D01*
G01X8238490Y-2413254D01*
G01X8244332Y-2395474D01*
G01X8244332Y-2372106D01*
G01X8238490Y-2354326D01*
G01X8226806Y-2342642D01*
G01X8121142Y-2503678D02*
G01X8126984Y-2491994D01*
G01X8138668Y-2480056D01*
G01X8150352Y-2474214D01*
G01X8168132Y-2468372D01*
G01X8197342Y-2468372D01*
G01X8215122Y-2474214D01*
G01X8226806Y-2480056D01*
G01X8238490Y-2491994D01*
G01X8244332Y-2503678D01*
G01X8244332Y-2527046D01*
G01X8238490Y-2538984D01*
G01X8226806Y-2550668D01*
G01X8215122Y-2556510D01*
G01X8197342Y-2562352D01*
G01X8168132Y-2562352D01*
G01X8150352Y-2556510D01*
G01X8138668Y-2550668D01*
G01X8126984Y-2538984D01*
G01X8121142Y-2527046D01*
G01X8121142Y-2503678D01*
G01X8097520Y-2778506D02*
G01X8109204Y-2766822D01*
G01X8126984Y-2754884D01*
G01X8150352Y-2743200D01*
G01X8179816Y-2737358D01*
G01X8203184Y-2737358D01*
G01X8232648Y-2743200D01*
G01X8256016Y-2754884D01*
G01X8273796Y-2766822D01*
G01X8285480Y-2778506D01*
G01X8121142Y-2839466D02*
G01X8220964Y-2839466D01*
G01X8238490Y-2845562D01*
G01X8244332Y-2857246D01*
G01X8244332Y-2868930D01*
G01X8162036Y-2821940D02*
G01X8162036Y-2863088D01*
G01X8162036Y-2941828D02*
G01X8168132Y-2929890D01*
G01X8179816Y-2918206D01*
G01X8197342Y-2912364D01*
G01X8209026Y-2912364D01*
G01X8226806Y-2918206D01*
G01X8238490Y-2929890D01*
G01X8244332Y-2941828D01*
G01X8244332Y-2959354D01*
G01X8238490Y-2971038D01*
G01X8226806Y-2982976D01*
G01X8209026Y-2988818D01*
G01X8197342Y-2988818D01*
G01X8179816Y-2982976D01*
G01X8168132Y-2971038D01*
G01X8162036Y-2959354D01*
G01X8162036Y-2941828D01*
G01X8121142Y-3163824D02*
G01X8244332Y-3163824D01*
G01X8121142Y-3163824D02*
G01X8121142Y-3204972D01*
G01X8126984Y-3222498D01*
G01X8138668Y-3234436D01*
G01X8150352Y-3240278D01*
G01X8168132Y-3246120D01*
G01X8197342Y-3246120D01*
G01X8215122Y-3240278D01*
G01X8226806Y-3234436D01*
G01X8238490Y-3222498D01*
G01X8244332Y-3204972D01*
G01X8244332Y-3163824D01*
G01X8121142Y-3336544D02*
G01X8244332Y-3289554D01*
G01X8121142Y-3336544D02*
G01X8244332Y-3383534D01*
G01X8203184Y-3307080D02*
G01X8203184Y-3366008D01*
G01X8121142Y-3468116D02*
G01X8244332Y-3468116D01*
G01X8121142Y-3426968D02*
G01X8121142Y-3509264D01*
G01X8121142Y-3588004D02*
G01X8126984Y-3570224D01*
G01X8144510Y-3558540D01*
G01X8173974Y-3552698D01*
G01X8191500Y-3552698D01*
G01X8220964Y-3558540D01*
G01X8238490Y-3570224D01*
G01X8244332Y-3588004D01*
G01X8244332Y-3599688D01*
G01X8238490Y-3617214D01*
G01X8220964Y-3629152D01*
G01X8191500Y-3634994D01*
G01X8173974Y-3634994D01*
G01X8144510Y-3629152D01*
G01X8126984Y-3617214D01*
G01X8121142Y-3599688D01*
G01X8121142Y-3588004D01*
G01X8097520Y-3678428D02*
G01X8109204Y-3690112D01*
G01X8126984Y-3702050D01*
G01X8150352Y-3713734D01*
G01X8179816Y-3719576D01*
G01X8203184Y-3719576D01*
G01X8232648Y-3713734D01*
G01X8256016Y-3702050D01*
G01X8273796Y-3690112D01*
G01X8285480Y-3678428D01*
G01X8324342Y-1366520D02*
G01X8447532Y-1366520D01*
G01X8324342Y-1366520D02*
G01X8324342Y-1419352D01*
G01X8330184Y-1437132D01*
G01X8336026Y-1442974D01*
G01X8347710Y-1448816D01*
G01X8365236Y-1448816D01*
G01X8377174Y-1442974D01*
G01X8383016Y-1437132D01*
G01X8388858Y-1419352D01*
G01X8388858Y-1366520D01*
G01X8353552Y-1580388D02*
G01X8341868Y-1574546D01*
G01X8330184Y-1562862D01*
G01X8324342Y-1550924D01*
G01X8324342Y-1527556D01*
G01X8330184Y-1515872D01*
G01X8341868Y-1503934D01*
G01X8353552Y-1498092D01*
G01X8371332Y-1492250D01*
G01X8400542Y-1492250D01*
G01X8418322Y-1498092D01*
G01X8430006Y-1503934D01*
G01X8441690Y-1515872D01*
G01X8447532Y-1527556D01*
G01X8447532Y-1550924D01*
G01X8441690Y-1562862D01*
G01X8430006Y-1574546D01*
G01X8418322Y-1580388D01*
G01X8365236Y-1700276D02*
G01X8383016Y-1694434D01*
G01X8394700Y-1682496D01*
G01X8400542Y-1664970D01*
G01X8400542Y-1659128D01*
G01X8394700Y-1641348D01*
G01X8383016Y-1629664D01*
G01X8365236Y-1623822D01*
G01X8359394Y-1623822D01*
G01X8341868Y-1629664D01*
G01X8330184Y-1641348D01*
G01X8324342Y-1659128D01*
G01X8324342Y-1664970D01*
G01X8330184Y-1682496D01*
G01X8341868Y-1694434D01*
G01X8365236Y-1700276D01*
G01X8394700Y-1700276D01*
G01X8424164Y-1694434D01*
G01X8441690Y-1682496D01*
G01X8447532Y-1664970D01*
G01X8447532Y-1653286D01*
G01X8441690Y-1635506D01*
G01X8430006Y-1629664D01*
G01X8394700Y-1875282D02*
G01X8394700Y-1980946D01*
G01X8353552Y-2244090D02*
G01X8341868Y-2238248D01*
G01X8330184Y-2226564D01*
G01X8324342Y-2214626D01*
G01X8324342Y-2191258D01*
G01X8330184Y-2179574D01*
G01X8341868Y-2167636D01*
G01X8353552Y-2161794D01*
G01X8371332Y-2155952D01*
G01X8400542Y-2155952D01*
G01X8418322Y-2161794D01*
G01X8430006Y-2167636D01*
G01X8441690Y-2179574D01*
G01X8447532Y-2191258D01*
G01X8447532Y-2214626D01*
G01X8441690Y-2226564D01*
G01X8430006Y-2238248D01*
G01X8418322Y-2244090D01*
G01X8324342Y-2287524D02*
G01X8447532Y-2287524D01*
G01X8388858Y-2287524D02*
G01X8371332Y-2305050D01*
G01X8365236Y-2316988D01*
G01X8365236Y-2334514D01*
G01X8371332Y-2346198D01*
G01X8388858Y-2352040D01*
G01X8447532Y-2352040D01*
G01X8324342Y-2395474D02*
G01X8330184Y-2401316D01*
G01X8324342Y-2407158D01*
G01X8318246Y-2401316D01*
G01X8324342Y-2395474D01*
G01X8365236Y-2401316D02*
G01X8447532Y-2401316D01*
G01X8365236Y-2450592D02*
G01X8488680Y-2450592D01*
G01X8383016Y-2450592D02*
G01X8371332Y-2462276D01*
G01X8365236Y-2474214D01*
G01X8365236Y-2491740D01*
G01X8371332Y-2503424D01*
G01X8383016Y-2515108D01*
G01X8400542Y-2521204D01*
G01X8412226Y-2521204D01*
G01X8430006Y-2515108D01*
G01X8441690Y-2503424D01*
G01X8447532Y-2491740D01*
G01X8447532Y-2474214D01*
G01X8441690Y-2462276D01*
G01X8430006Y-2450592D01*
G01X8383016Y-2760726D02*
G01X8371332Y-2754884D01*
G01X8365236Y-2737358D01*
G01X8365236Y-2719832D01*
G01X8371332Y-2702052D01*
G01X8383016Y-2696210D01*
G01X8394700Y-2702052D01*
G01X8400542Y-2713736D01*
G01X8406384Y-2743200D01*
G01X8412226Y-2754884D01*
G01X8424164Y-2760726D01*
G01X8430006Y-2760726D01*
G01X8441690Y-2754884D01*
G01X8447532Y-2737358D01*
G01X8447532Y-2719832D01*
G01X8441690Y-2702052D01*
G01X8430006Y-2696210D01*
G01X8400542Y-2804160D02*
G01X8400542Y-2874772D01*
G01X8388858Y-2874772D01*
G01X8377174Y-2868676D01*
G01X8371332Y-2862834D01*
G01X8365236Y-2851150D01*
G01X8365236Y-2833624D01*
G01X8371332Y-2821686D01*
G01X8383016Y-2810002D01*
G01X8400542Y-2804160D01*
G01X8412226Y-2804160D01*
G01X8430006Y-2810002D01*
G01X8441690Y-2821686D01*
G01X8447532Y-2833624D01*
G01X8447532Y-2851150D01*
G01X8441690Y-2862834D01*
G01X8430006Y-2874772D01*
G01X8324342Y-2918206D02*
G01X8447532Y-2918206D01*
G01X8400542Y-2961640D02*
G01X8400542Y-3032252D01*
G01X8388858Y-3032252D01*
G01X8377174Y-3026156D01*
G01X8371332Y-3020314D01*
G01X8365236Y-3008630D01*
G01X8365236Y-2991104D01*
G01X8371332Y-2979166D01*
G01X8383016Y-2967482D01*
G01X8400542Y-2961640D01*
G01X8412226Y-2961640D01*
G01X8430006Y-2967482D01*
G01X8441690Y-2979166D01*
G01X8447532Y-2991104D01*
G01X8447532Y-3008630D01*
G01X8441690Y-3020314D01*
G01X8430006Y-3032252D01*
G01X8383016Y-3146298D02*
G01X8371332Y-3134360D01*
G01X8365236Y-3122676D01*
G01X8365236Y-3105150D01*
G01X8371332Y-3093212D01*
G01X8383016Y-3081528D01*
G01X8400542Y-3075686D01*
G01X8412226Y-3075686D01*
G01X8430006Y-3081528D01*
G01X8441690Y-3093212D01*
G01X8447532Y-3105150D01*
G01X8447532Y-3122676D01*
G01X8441690Y-3134360D01*
G01X8430006Y-3146298D01*
G01X8324342Y-3207258D02*
G01X8424164Y-3207258D01*
G01X8441690Y-3213354D01*
G01X8447532Y-3225038D01*
G01X8447532Y-3236722D01*
G01X8365236Y-3189732D02*
G01X8365236Y-3230880D01*
G01X8424164Y-3291840D02*
G01X8430006Y-3285998D01*
G01X8424164Y-3280156D01*
G01X8418322Y-3285998D01*
G01X8424164Y-3291840D01*
G01X8435848Y-3291840D01*
G01X8447532Y-3280156D01*
G01X8324342Y-3466846D02*
G01X8447532Y-3466846D01*
G01X8324342Y-3466846D02*
G01X8324342Y-3507994D01*
G01X8330184Y-3525520D01*
G01X8341868Y-3537458D01*
G01X8353552Y-3543300D01*
G01X8371332Y-3549142D01*
G01X8400542Y-3549142D01*
G01X8418322Y-3543300D01*
G01X8430006Y-3537458D01*
G01X8441690Y-3525520D01*
G01X8447532Y-3507994D01*
G01X8447532Y-3466846D01*
G01X8324342Y-3639566D02*
G01X8447532Y-3592576D01*
G01X8324342Y-3639566D02*
G01X8447532Y-3686556D01*
G01X8406384Y-3610102D02*
G01X8406384Y-3669030D01*
G01X8324342Y-3771138D02*
G01X8447532Y-3771138D01*
G01X8324342Y-3729990D02*
G01X8324342Y-3812286D01*
G01X8324342Y-3867404D02*
G01X8324342Y-3932174D01*
G01X8371332Y-3896868D01*
G01X8371332Y-3914394D01*
G01X8377174Y-3926332D01*
G01X8383016Y-3932174D01*
G01X8400542Y-3938016D01*
G01X8412226Y-3938016D01*
G01X8430006Y-3932174D01*
G01X8441690Y-3920236D01*
G01X8447532Y-3902710D01*
G01X8447532Y-3885184D01*
G01X8441690Y-3867404D01*
G01X8435848Y-3861562D01*
G01X8424164Y-3855720D01*
G54D11*
G01X7089902Y-1377950D02*
G01X7085330Y-1386586D01*
G01X7072376Y-1399794D01*
G01X7164070Y-1399794D01*
G01X7072376Y-1459738D02*
G01X7076694Y-1446530D01*
G01X7089902Y-1437894D01*
G01X7111492Y-1433576D01*
G01X7124700Y-1433576D01*
G01X7146544Y-1437894D01*
G01X7159752Y-1446530D01*
G01X7164070Y-1459738D01*
G01X7164070Y-1468374D01*
G01X7159752Y-1481582D01*
G01X7146544Y-1490218D01*
G01X7124700Y-1494536D01*
G01X7111492Y-1494536D01*
G01X7089902Y-1490218D01*
G01X7076694Y-1481582D01*
G01X7072376Y-1468374D01*
G01X7072376Y-1459738D01*
G01X7102856Y-1528318D02*
G01X7194550Y-1528318D01*
G01X7116064Y-1528318D02*
G01X7107174Y-1536954D01*
G01X7102856Y-1545590D01*
G01X7102856Y-1558798D01*
G01X7107174Y-1567434D01*
G01X7116064Y-1576324D01*
G01X7129018Y-1580642D01*
G01X7137908Y-1580642D01*
G01X7150862Y-1576324D01*
G01X7159752Y-1567434D01*
G01X7164070Y-1558798D01*
G01X7164070Y-1545590D01*
G01X7159752Y-1536954D01*
G01X7150862Y-1528318D01*
G01X7072376Y-1614424D02*
G01X7164070Y-1614424D01*
G01X7072376Y-1614424D02*
G01X7072376Y-1671066D01*
G01X7116064Y-1614424D02*
G01X7116064Y-1649222D01*
G01X7146544Y-1713484D02*
G01X7150862Y-1709166D01*
G01X7146544Y-1704848D01*
G01X7142226Y-1709166D01*
G01X7146544Y-1713484D01*
G01X7155180Y-1713484D01*
G01X7164070Y-1704848D01*
G01X7089902Y-1845056D02*
G01X7085330Y-1853692D01*
G01X7072376Y-1866646D01*
G01X7164070Y-1866646D01*
G01X7094220Y-1904746D02*
G01X7089902Y-1904746D01*
G01X7081012Y-1909064D01*
G01X7076694Y-1913382D01*
G01X7072376Y-1922018D01*
G01X7072376Y-1939544D01*
G01X7076694Y-1948434D01*
G01X7081012Y-1952752D01*
G01X7089902Y-1957070D01*
G01X7098538Y-1957070D01*
G01X7107174Y-1952752D01*
G01X7120382Y-1943862D01*
G01X7164070Y-1900428D01*
G01X7164070Y-1961388D01*
G01X7102856Y-1995170D02*
G01X7194550Y-1995170D01*
G01X7116064Y-1995170D02*
G01X7107174Y-2003806D01*
G01X7102856Y-2012442D01*
G01X7102856Y-2025650D01*
G01X7107174Y-2034286D01*
G01X7116064Y-2043176D01*
G01X7129018Y-2047494D01*
G01X7137908Y-2047494D01*
G01X7150862Y-2043176D01*
G01X7159752Y-2034286D01*
G01X7164070Y-2025650D01*
G01X7164070Y-2012442D01*
G01X7159752Y-2003806D01*
G01X7150862Y-1995170D01*
G01X7072376Y-2081276D02*
G01X7164070Y-2081276D01*
G01X7072376Y-2081276D02*
G01X7072376Y-2137918D01*
G01X7116064Y-2081276D02*
G01X7116064Y-2116074D01*
G01X7146544Y-2180336D02*
G01X7150862Y-2176018D01*
G01X7146544Y-2171700D01*
G01X7142226Y-2176018D01*
G01X7146544Y-2180336D01*
G01X7155180Y-2180336D01*
G01X7164070Y-2171700D01*
G01X7102856Y-2333498D02*
G01X7107174Y-2324862D01*
G01X7116064Y-2316226D01*
G01X7129018Y-2311908D01*
G01X7137908Y-2311908D01*
G01X7150862Y-2316226D01*
G01X7159752Y-2324862D01*
G01X7164070Y-2333498D01*
G01X7164070Y-2346706D01*
G01X7159752Y-2355342D01*
G01X7150862Y-2364232D01*
G01X7137908Y-2368550D01*
G01X7129018Y-2368550D01*
G01X7116064Y-2364232D01*
G01X7107174Y-2355342D01*
G01X7102856Y-2346706D01*
G01X7102856Y-2333498D01*
G01X7102856Y-2402332D02*
G01X7164070Y-2402332D01*
G01X7129018Y-2402332D02*
G01X7116064Y-2406650D01*
G01X7107174Y-2415286D01*
G01X7102856Y-2423922D01*
G01X7102856Y-2437130D01*
G01X7089902Y-2568702D02*
G01X7085330Y-2577338D01*
G01X7072376Y-2590292D01*
G01X7164070Y-2590292D01*
G01X7072376Y-2676398D02*
G01X7072376Y-2632710D01*
G01X7111492Y-2628392D01*
G01X7107174Y-2632710D01*
G01X7102856Y-2645664D01*
G01X7102856Y-2658872D01*
G01X7107174Y-2672080D01*
G01X7116064Y-2680716D01*
G01X7129018Y-2685034D01*
G01X7137908Y-2685034D01*
G01X7150862Y-2680716D01*
G01X7159752Y-2672080D01*
G01X7164070Y-2658872D01*
G01X7164070Y-2645664D01*
G01X7159752Y-2632710D01*
G01X7155180Y-2628392D01*
G01X7146544Y-2624074D01*
G01X7102856Y-2718816D02*
G01X7194550Y-2718816D01*
G01X7116064Y-2718816D02*
G01X7107174Y-2727452D01*
G01X7102856Y-2736088D01*
G01X7102856Y-2749296D01*
G01X7107174Y-2757932D01*
G01X7116064Y-2766822D01*
G01X7129018Y-2771140D01*
G01X7137908Y-2771140D01*
G01X7150862Y-2766822D01*
G01X7159752Y-2757932D01*
G01X7164070Y-2749296D01*
G01X7164070Y-2736088D01*
G01X7159752Y-2727452D01*
G01X7150862Y-2718816D01*
G01X7072376Y-2804922D02*
G01X7164070Y-2804922D01*
G01X7072376Y-2804922D02*
G01X7072376Y-2861564D01*
G01X7116064Y-2804922D02*
G01X7116064Y-2839720D01*
G01X7268464Y-1430274D02*
G01X7259574Y-1421638D01*
G01X7255256Y-1413002D01*
G01X7255256Y-1399794D01*
G01X7259574Y-1391158D01*
G01X7268464Y-1382268D01*
G01X7281418Y-1377950D01*
G01X7290308Y-1377950D01*
G01X7303262Y-1382268D01*
G01X7312152Y-1391158D01*
G01X7316470Y-1399794D01*
G01X7316470Y-1413002D01*
G01X7312152Y-1421638D01*
G01X7303262Y-1430274D01*
G01X7255256Y-1516380D02*
G01X7316470Y-1516380D01*
G01X7268464Y-1516380D02*
G01X7259574Y-1507490D01*
G01X7255256Y-1498854D01*
G01X7255256Y-1485646D01*
G01X7259574Y-1477010D01*
G01X7268464Y-1468374D01*
G01X7281418Y-1464056D01*
G01X7290308Y-1464056D01*
G01X7303262Y-1468374D01*
G01X7312152Y-1477010D01*
G01X7316470Y-1485646D01*
G01X7316470Y-1498854D01*
G01X7312152Y-1507490D01*
G01X7303262Y-1516380D01*
G01X7255256Y-1550162D02*
G01X7346950Y-1550162D01*
G01X7268464Y-1550162D02*
G01X7259574Y-1558798D01*
G01X7255256Y-1567434D01*
G01X7255256Y-1580642D01*
G01X7259574Y-1589278D01*
G01X7268464Y-1598168D01*
G01X7281418Y-1602486D01*
G01X7290308Y-1602486D01*
G01X7303262Y-1598168D01*
G01X7312152Y-1589278D01*
G01X7316470Y-1580642D01*
G01X7316470Y-1567434D01*
G01X7312152Y-1558798D01*
G01X7303262Y-1550162D01*
G01X7268464Y-1684274D02*
G01X7259574Y-1679702D01*
G01X7255256Y-1666748D01*
G01X7255256Y-1653540D01*
G01X7259574Y-1640586D01*
G01X7268464Y-1636268D01*
G01X7277100Y-1640586D01*
G01X7281418Y-1649222D01*
G01X7285736Y-1671066D01*
G01X7290308Y-1679702D01*
G01X7298944Y-1684274D01*
G01X7303262Y-1684274D01*
G01X7312152Y-1679702D01*
G01X7316470Y-1666748D01*
G01X7316470Y-1653540D01*
G01X7312152Y-1640586D01*
G01X7303262Y-1636268D01*
G01X7255256Y-1815846D02*
G01X7316470Y-1815846D01*
G01X7272782Y-1815846D02*
G01X7259574Y-1828800D01*
G01X7255256Y-1837436D01*
G01X7255256Y-1850644D01*
G01X7259574Y-1859280D01*
G01X7272782Y-1863852D01*
G01X7316470Y-1863852D01*
G01X7281418Y-1897634D02*
G01X7281418Y-1949958D01*
G01X7272782Y-1949958D01*
G01X7263892Y-1945640D01*
G01X7259574Y-1941068D01*
G01X7255256Y-1932432D01*
G01X7255256Y-1919224D01*
G01X7259574Y-1910588D01*
G01X7268464Y-1901952D01*
G01X7281418Y-1897634D01*
G01X7290308Y-1897634D01*
G01X7303262Y-1901952D01*
G01X7312152Y-1910588D01*
G01X7316470Y-1919224D01*
G01X7316470Y-1932432D01*
G01X7312152Y-1941068D01*
G01X7303262Y-1949958D01*
G01X7281418Y-1983740D02*
G01X7281418Y-2036064D01*
G01X7272782Y-2036064D01*
G01X7263892Y-2031746D01*
G01X7259574Y-2027174D01*
G01X7255256Y-2018538D01*
G01X7255256Y-2005330D01*
G01X7259574Y-1996694D01*
G01X7268464Y-1988058D01*
G01X7281418Y-1983740D01*
G01X7290308Y-1983740D01*
G01X7303262Y-1988058D01*
G01X7312152Y-1996694D01*
G01X7316470Y-2005330D01*
G01X7316470Y-2018538D01*
G01X7312152Y-2027174D01*
G01X7303262Y-2036064D01*
G01X7224776Y-2122170D02*
G01X7316470Y-2122170D01*
G01X7268464Y-2122170D02*
G01X7259574Y-2113280D01*
G01X7255256Y-2104644D01*
G01X7255256Y-2091436D01*
G01X7259574Y-2082800D01*
G01X7268464Y-2074164D01*
G01X7281418Y-2069846D01*
G01X7290308Y-2069846D01*
G01X7303262Y-2074164D01*
G01X7312152Y-2082800D01*
G01X7316470Y-2091436D01*
G01X7316470Y-2104644D01*
G01X7312152Y-2113280D01*
G01X7303262Y-2122170D01*
G01X7281418Y-2155952D02*
G01X7281418Y-2208276D01*
G01X7272782Y-2208276D01*
G01X7263892Y-2203958D01*
G01X7259574Y-2199386D01*
G01X7255256Y-2190750D01*
G01X7255256Y-2177542D01*
G01X7259574Y-2168906D01*
G01X7268464Y-2160270D01*
G01X7281418Y-2155952D01*
G01X7290308Y-2155952D01*
G01X7303262Y-2160270D01*
G01X7312152Y-2168906D01*
G01X7316470Y-2177542D01*
G01X7316470Y-2190750D01*
G01X7312152Y-2199386D01*
G01X7303262Y-2208276D01*
G01X7224776Y-2294382D02*
G01X7316470Y-2294382D01*
G01X7268464Y-2294382D02*
G01X7259574Y-2285492D01*
G01X7255256Y-2276856D01*
G01X7255256Y-2263648D01*
G01X7259574Y-2255012D01*
G01X7268464Y-2246376D01*
G01X7281418Y-2242058D01*
G01X7290308Y-2242058D01*
G01X7303262Y-2246376D01*
G01X7312152Y-2255012D01*
G01X7316470Y-2263648D01*
G01X7316470Y-2276856D01*
G01X7312152Y-2285492D01*
G01X7303262Y-2294382D01*
G01X7224776Y-2460752D02*
G01X7224776Y-2452116D01*
G01X7229094Y-2443226D01*
G01X7242302Y-2438908D01*
G01X7316470Y-2438908D01*
G01X7255256Y-2425954D02*
G01X7255256Y-2456434D01*
G01X7255256Y-2516124D02*
G01X7259574Y-2507488D01*
G01X7268464Y-2498852D01*
G01X7281418Y-2494534D01*
G01X7290308Y-2494534D01*
G01X7303262Y-2498852D01*
G01X7312152Y-2507488D01*
G01X7316470Y-2516124D01*
G01X7316470Y-2529332D01*
G01X7312152Y-2537968D01*
G01X7303262Y-2546858D01*
G01X7290308Y-2551176D01*
G01X7281418Y-2551176D01*
G01X7268464Y-2546858D01*
G01X7259574Y-2537968D01*
G01X7255256Y-2529332D01*
G01X7255256Y-2516124D01*
G01X7255256Y-2584958D02*
G01X7316470Y-2584958D01*
G01X7281418Y-2584958D02*
G01X7268464Y-2589276D01*
G01X7259574Y-2597912D01*
G01X7255256Y-2606548D01*
G01X7255256Y-2619756D01*
G01X7255256Y-2751328D02*
G01X7316470Y-2799334D01*
G01X7255256Y-2799334D02*
G01X7316470Y-2751328D01*
G01X7224776Y-2846070D02*
G01X7298944Y-2846070D01*
G01X7312152Y-2850388D01*
G01X7316470Y-2859278D01*
G01X7316470Y-2867914D01*
G01X7255256Y-2833116D02*
G01X7255256Y-2863596D01*
G01X7255256Y-2954020D02*
G01X7316470Y-2954020D01*
G01X7268464Y-2954020D02*
G01X7259574Y-2945130D01*
G01X7255256Y-2936494D01*
G01X7255256Y-2923286D01*
G01X7259574Y-2914650D01*
G01X7268464Y-2906014D01*
G01X7281418Y-2901696D01*
G01X7290308Y-2901696D01*
G01X7303262Y-2906014D01*
G01X7312152Y-2914650D01*
G01X7316470Y-2923286D01*
G01X7316470Y-2936494D01*
G01X7312152Y-2945130D01*
G01X7303262Y-2954020D01*
G01X7224776Y-2987802D02*
G01X7316470Y-2987802D01*
G04 Text End*

M02*

