G04 Layer: BottomSolderMaskLayer*
G04 EasyEDA Pro v3.2.148, 2026-07-30 20:47:14*
G04 Gerber Generator version 0.3*
G04 Scale: 100 percent, Rotated: No, Reflected: No*
G04 Dimensions in millimeters*
G04 Leading zeros omitted, absolute positions, 4 integers and 5 decimals*
G04 Generated by one-click*
G04 Object Configs: Pad,Via,Track,Text,Image,Dimension,BoardOutline,BoardCutout,CopperFilled,SolidRegion,FPCStiffener,Line,PlaneZone,ComponentProperty,ComponentSilkscreen,TearDrop*
G04 Layer Configs: 1,2,3,4,5,6,7,8,9,10,11,13,14,56*
G04 Copper Areas: 0*
%FSLAX45Y45*%
%MOMM*%
%AMRoundRect*1,1,$1,$2,$3*1,1,$1,$4,$5*1,1,$1,0-$2,0-$3*1,1,$1,0-$4,0-$5*20,1,$1,$2,$3,$4,$5,0*20,1,$1,$4,$5,0-$2,0-$3,0*20,1,$1,0-$2,0-$3,0-$4,0-$5,0*20,1,$1,0-$4,0-$5,$2,$3,0*4,1,4,$2,$3,$4,$5,0-$2,0-$3,0-$4,0-$5,$2,$3,0*%
%ADD10RoundRect,0.1016X-0.85X0.85X0.85X0.85*%
%ADD11C,1.8016*%
%ADD12RoundRect,0.1016X-0.9X0.9X0.9X0.9*%
%ADD13C,1.9016*%
%ADD14RoundRect,0.1016X-0.9X-0.9X-0.9X0.9*%
%ADD15O,2.10002X1.20002*%
%ADD16O,1.9000X1.30002*%
%ADD17O,1.90002X1.30002*%
G75*


G04 Pad Start*
G54D10*
G01X3479800Y-4140200D03*
G54D11*
G01X3479800Y-3886200D03*
G01X3733800Y-4140200D03*
G01X3733800Y-3886200D03*
G01X3987800Y-4140200D03*
G01X3987800Y-3886200D03*
G01X4241800Y-4140200D03*
G01X4241800Y-3886200D03*
G01X4495800Y-4140200D03*
G01X4495800Y-3886200D03*
G54D12*
G01X7467600Y-5359400D03*
G54D13*
G01X7467600Y-5105400D03*
G01X7721600Y-5359400D03*
G01X7721600Y-5105400D03*
G01X7975600Y-5359400D03*
G01X7975600Y-5105400D03*
G01X8229600Y-5359400D03*
G01X8229600Y-5105400D03*
G01X8483600Y-5359400D03*
G01X8483600Y-5105400D03*
G01X8737600Y-5359400D03*
G01X8737600Y-5105400D03*
G01X8991600Y-5359400D03*
G01X8991600Y-5105400D03*
G01X9245600Y-5359400D03*
G01X9245600Y-5105400D03*
G54D12*
G01X6756400Y-1879600D03*
G54D13*
G01X6756400Y-2133600D03*
G01X6502400Y-1879600D03*
G01X6502400Y-2133600D03*
G01X6248400Y-1879600D03*
G01X6248400Y-2133600D03*
G01X5994400Y-1879600D03*
G01X5994400Y-2133600D03*
G01X5740400Y-1879600D03*
G01X5740400Y-2133600D03*
G01X5486400Y-1879600D03*
G01X5486400Y-2133600D03*
G01X5232400Y-1879600D03*
G01X5232400Y-2133600D03*
G01X4978400Y-1879600D03*
G01X4978400Y-2133600D03*
G54D14*
G01X9359900Y-3530600D03*
G54D13*
G01X9105900Y-3530600D03*
G01X9359900Y-3276600D03*
G01X9105900Y-3276600D03*
G01X9359900Y-3022600D03*
G01X9105900Y-3022600D03*
G01X9359900Y-2768600D03*
G01X9105900Y-2768600D03*
G01X9359900Y-2514600D03*
G01X9105900Y-2514600D03*
G01X9359900Y-2260600D03*
G01X9105900Y-2260600D03*
G01X9359900Y-2006600D03*
G01X9105900Y-2006600D03*
G01X9359900Y-1752600D03*
G01X9105900Y-1752600D03*
G01X4259707Y-5083607D03*
G01X4909693Y-5083607D03*
G01X4259707Y-5533593D03*
G01X4909693Y-5533593D03*
G54D15*
G01X3636912Y-2005901D03*
G01X3636912Y-2870898D03*
G54D17*
G01X3216897Y-2005901D03*
G01X3216897Y-2870898D03*
G04 Pad End*

M02*

